<svg width="33" height="33" viewBox="0 0 33 33" fill="none" xmlns="http://www.w3.org/2000/svg">
<path d="M7.5419 10.4358L15.6955 6.85346C16.2082 6.62821 16.7918 6.62821 17.3045 6.85346L25.4581 10.4358C25.8566 10.6109 25.8566 11.1763 25.4581 11.3513L17.3045 14.9337C16.7918 15.1589 16.2082 15.1589 15.6955 14.9337L7.5419 11.3513C7.1434 11.1763 7.1434 10.6109 7.5419 10.4358Z" fill="black"/>
<path fill-rule="evenodd" clip-rule="evenodd" d="M11.5 20.064L7.54192 21.803C7.14342 21.978 7.14342 22.5434 7.54192 22.7185L15.6955 26.3008C16.2082 26.5261 16.7918 26.5261 17.3045 26.3008L25.4581 22.7185C25.8566 22.5434 25.8566 21.978 25.4581 21.803L21.5001 20.064L17.3045 21.9073C16.7918 22.1326 16.2082 22.1326 15.6955 21.9073L11.5 20.064Z" fill="black"/>
<path fill-rule="evenodd" clip-rule="evenodd" d="M11.5 14.4575L7.54192 16.1965C7.14342 16.3716 7.14342 16.937 7.54192 17.112L15.6955 20.6944C16.2082 20.9196 16.7918 20.9196 17.3045 20.6944L25.4581 17.112C25.8566 16.937 25.8566 16.3716 25.4581 16.1965L21.5001 14.4575L17.3045 16.3009C16.7918 16.5261 16.2082 16.5261 15.6955 16.3009L11.5 14.4575Z" fill="black"/>
</svg>
