<svg width="32" height="32" viewBox="0 0 32 32" fill="none" xmlns="http://www.w3.org/2000/svg">
<rect width="32" height="32" rx="9.6" fill="white"/>
<g clip-path="url(#clip0)">
<path fill-rule="evenodd" clip-rule="evenodd" d="M18.8873 5.38424L7.04685 6.25661C6.86386 6.25709 6.68303 6.29625 6.51622 6.37153C6.34942 6.4468 6.20042 6.55649 6.07899 6.69339C5.95755 6.83029 5.86643 6.99132 5.8116 7.16591C5.75677 7.3405 5.73947 7.52471 5.76083 7.70646V20.6445C5.78847 21.2897 6.0372 21.9058 6.46527 22.3893L9.2503 25.9934C9.70901 26.575 10.1227 26.702 10.995 26.661L24.744 25.8419C25.9072 25.76 26.2389 25.2193 26.2389 24.306V9.73789C26.2389 9.26689 26.0505 9.13174 25.5017 8.73037L25.4198 8.66074L21.6273 6.00678C20.7139 5.3351 20.3412 5.25728 18.8873 5.38424ZM11.3063 9.50034C10.1841 9.57406 9.93017 9.59045 9.29125 9.09078L7.66939 7.79247C7.50556 7.62864 7.58748 7.41977 8.00523 7.38291L19.387 6.56378C19.7123 6.52145 20.0429 6.54768 20.3575 6.64078C20.6721 6.73389 20.9637 6.89182 21.2136 7.1044L23.1631 8.5133C23.2491 8.55835 23.4539 8.80409 23.2041 8.80409L11.4537 9.48806L11.3063 9.50034ZM9.9957 24.175V11.8103C9.9957 11.2737 10.1636 11.0239 10.6633 10.9911L24.1788 10.2048C24.6376 10.1597 24.8423 10.4505 24.8423 10.9911V23.278C24.8423 23.8186 24.7604 24.2733 24.0232 24.3142L11.0851 25.0432C10.3315 25.0842 9.9957 24.8344 9.9957 24.175ZM22.7495 12.4738C22.8314 12.8506 22.7495 13.2233 22.3768 13.2642L21.7542 13.3871V22.5121C21.3126 22.7771 20.8142 22.9329 20.3003 22.9667C19.6327 22.9667 19.4812 22.762 18.9692 22.1476L14.8982 15.7585V21.9306L16.1883 22.2213C16.1883 22.2213 16.1883 22.9667 15.148 22.9667L12.2811 23.1347C12.2369 23.0078 12.2423 22.8689 12.2962 22.7458C12.3502 22.6228 12.4486 22.5247 12.5718 22.4712L13.3213 22.2623V14.0915L12.2811 14.0096C12.2552 13.8995 12.2537 13.785 12.2767 13.6742C12.2996 13.5634 12.3464 13.4589 12.4139 13.3681C12.4813 13.2772 12.5678 13.2022 12.6672 13.1482C12.7667 13.0942 12.8767 13.0625 12.9896 13.0553L16.0613 12.8506L20.3003 19.3175V13.5837L19.219 13.4608C19.2027 13.3625 19.2074 13.2619 19.2329 13.1656C19.2583 13.0693 19.3039 12.9794 19.3666 12.902C19.4293 12.8246 19.5077 12.7614 19.5966 12.7165C19.6856 12.6716 19.783 12.6461 19.8825 12.6417L22.7495 12.4738Z" fill="black"/>
</g>
<defs>
<clipPath id="clip0">
<rect width="20.4781" height="21.33" fill="white" transform="translate(5.76074 5.33508)"/>
</clipPath>
</defs>
</svg>
