<svg width="48" height="48" viewBox="0 0 48 48" fill="none" xmlns="http://www.w3.org/2000/svg">
<rect width="48" height="48" rx="14.4" fill="white"/>
<g clip-path="url(#clip0)">
<path fill-rule="evenodd" clip-rule="evenodd" d="M28.3321 8.07369L10.5686 9.38245C10.2941 9.38317 10.0228 9.44192 9.77256 9.55485C9.52232 9.66778 9.29878 9.83233 9.1166 10.0377C8.93443 10.2431 8.79772 10.4847 8.71546 10.7466C8.6332 11.0085 8.60725 11.2849 8.63929 11.5576V30.9677C8.68076 31.9356 9.05391 32.8598 9.69613 33.5852L13.8743 38.9923C14.5625 39.8648 15.1831 40.0553 16.4918 39.9938L37.1186 38.7649C38.8636 38.642 39.3613 37.831 39.3613 36.4608V14.6052C39.3613 13.8986 39.0786 13.6958 38.2553 13.0937L38.1324 12.9892L32.4427 9.00764C31.0725 7.99996 30.5133 7.88322 28.3321 8.07369ZM16.9588 14.2488C15.2752 14.3594 14.8943 14.384 13.9358 13.6344L11.5026 11.6866C11.2568 11.4408 11.3797 11.1275 12.0064 11.0722L29.0817 9.84328C29.5698 9.77976 30.0658 9.81911 30.5377 9.9588C31.0097 10.0985 31.4472 10.3354 31.8221 10.6543L34.7468 12.768C34.8759 12.8356 35.1831 13.2043 34.8083 13.2043L17.18 14.2304L16.9588 14.2488ZM14.9926 36.2642V17.7142C14.9926 16.9093 15.2445 16.5345 15.9941 16.4854L36.2706 15.3056C36.9588 15.2381 37.266 15.6743 37.266 16.4854V34.9185C37.266 35.7296 37.1431 36.4116 36.0371 36.4731L16.627 37.5668C15.4964 37.6282 14.9926 37.2534 14.9926 36.2642ZM34.1262 18.7096C34.2491 19.2749 34.1262 19.8341 33.5671 19.8955L32.6331 20.0798V33.7695C31.9706 34.167 31.2228 34.4008 30.4519 34.4516C29.4504 34.4516 29.223 34.1443 28.455 33.2227L22.3474 23.6374V32.897L24.2829 33.3333C24.2829 33.3333 24.2829 34.4516 22.7222 34.4516L18.4212 34.7035C18.3549 34.5131 18.363 34.3048 18.4439 34.1202C18.5248 33.9356 18.6725 33.7884 18.8574 33.7081L19.9818 33.3947V21.1367L18.4212 21.0138C18.3824 20.8485 18.3802 20.6768 18.4146 20.5105C18.449 20.3443 18.5193 20.1876 18.6205 20.0513C18.7216 19.915 18.8514 19.8024 19.0005 19.7214C19.1497 19.6404 19.3147 19.5928 19.4841 19.5821L24.0924 19.2749L30.4519 28.9769V20.3748L28.8298 20.1904C28.8053 20.043 28.8124 19.892 28.8505 19.7475C28.8887 19.603 28.957 19.4683 29.0511 19.3521C29.1452 19.236 29.2628 19.1411 29.3962 19.0738C29.5297 19.0065 29.6759 18.9682 29.8252 18.9616L34.1262 18.7096Z" fill="black"/>
</g>
<defs>
<clipPath id="clip0">
<rect width="30.722" height="32" fill="white" transform="translate(8.63916 8)"/>
</clipPath>
</defs>
</svg>
