<svg width="32" height="32" viewBox="0 0 32 32" fill="none" xmlns="http://www.w3.org/2000/svg">
<rect width="32" height="32" rx="9.6" fill="white"/>
<g filter="url(#filter0_d)">
<path d="M16.0003 5.33325C10.1184 5.33325 5.3335 10.1185 5.3335 16.0001C5.3335 21.8815 10.1186 26.6666 16.0004 26.6666C21.8819 26.6666 26.6668 21.8814 26.6668 16.0001C26.6667 10.1185 21.8818 5.33325 16.0003 5.33325Z" fill="white"/>
<path d="M6.38525 16.0004C6.38525 10.6903 10.69 6.3855 16.0002 6.3855C21.3102 6.3855 25.6147 10.6903 25.6147 16.0004C25.6147 21.31 21.3102 25.6151 16.0002 25.6151C10.6902 25.6151 6.38525 21.31 6.38525 16.0004Z" fill="#51A601"/>
<path d="M25.1561 19.5024C25.2066 19.3663 25.2546 19.2286 25.2995 19.0898H17.2396L17.6337 18.5856H23.2168C23.333 18.5856 23.4271 18.4946 23.4271 18.3827C23.4271 18.2709 23.333 18.1802 23.2168 18.1802H17.9509L18.3377 17.6858H21.1779C21.273 17.6858 21.3508 17.5934 21.3508 17.4792C21.3508 17.3645 21.273 17.2722 21.1779 17.2722H13.641L18.2599 11.2537H10.6583V12.8973H14.7059L10.4664 18.3956L9.59375 19.5004L12.2354 19.5027H12.9584C13.2443 18.7976 13.9354 18.2999 14.7428 18.2999C15.5504 18.2999 16.2418 18.7976 16.5278 19.5027L25.1561 19.5024Z" fill="white"/>
<path d="M16.2269 20.2464C16.2269 21.0666 15.5622 21.7309 14.7424 21.7309C13.9229 21.7309 13.2583 21.0665 13.2583 20.2464C13.2583 19.4269 13.9229 18.7625 14.7424 18.7625C15.5622 18.7625 16.2269 19.4269 16.2269 20.2464Z" fill="#4D4D5A"/>
</g>
<defs>
<filter id="filter0_d" x="5.06683" y="5.06659" width="22" height="22" filterUnits="userSpaceOnUse" color-interpolation-filters="sRGB">
<feFlood flood-opacity="0" result="BackgroundImageFix"/>
<feColorMatrix in="SourceAlpha" type="matrix" values="0 0 0 0 0 0 0 0 0 0 0 0 0 0 0 0 0 0 127 0"/>
<feOffset dx="0.0666667" dy="0.0666667"/>
<feGaussianBlur stdDeviation="0.166667"/>
<feColorMatrix type="matrix" values="0 0 0 0 0 0 0 0 0 0 0 0 0 0 0 0 0 0 0.25 0"/>
<feBlend mode="normal" in2="BackgroundImageFix" result="effect1_dropShadow"/>
<feBlend mode="normal" in="SourceGraphic" in2="effect1_dropShadow" result="shape"/>
</filter>
</defs>
</svg>
