<svg width="32" height="32" viewBox="0 0 32 32" fill="none" xmlns="http://www.w3.org/2000/svg">
<rect width="32" height="32" rx="9.6" fill="white"/>
<path fill-rule="evenodd" clip-rule="evenodd" d="M16.0002 5.33325C10.1187 5.33325 5.3335 10.1182 5.3335 15.9999C5.3335 21.8814 10.1187 26.6666 16.0002 26.6666C21.8816 26.6666 26.6668 21.8814 26.6668 15.9999C26.6668 10.1182 21.8816 5.33325 16.0002 5.33325ZM16.0002 25.3333C10.8539 25.3333 6.66683 21.1462 6.66683 15.9999C6.66683 10.8536 10.8539 6.66659 16.0002 6.66659C21.1465 6.66659 25.3335 10.8536 25.3335 15.9999C25.3335 21.1462 21.1465 25.3333 16.0002 25.3333Z" fill="#FF6000"/>
<path fill-rule="evenodd" clip-rule="evenodd" d="M18.4452 13.5272C18.4452 13.5272 19.6149 12.7396 19.9218 12.7163L20.2762 13.1723L20.3411 13.2013L20.5942 13.0682L20.7672 13.1395L21.4589 14.07C21.4589 14.07 21.7027 14.233 21.959 13.8728C21.959 13.8728 22.0952 13.7301 22.0978 13.5039L19.1123 9.56408C19.1123 9.56408 18.767 9.42129 18.6592 9.81041L18.6054 10.2627L19.2269 11.1024L19.1618 11.3353L19.0713 11.3586L19.0531 11.5091L19.2747 11.7973C19.2747 11.7973 18.3446 12.4148 18.0877 12.6915L16.7764 13.8148L15.8454 14.708L15.0245 13.9201L13.7132 12.7971C13.4564 12.5203 12.5265 11.9025 12.5265 11.9025L12.7473 11.6146L12.7293 11.4642L12.6392 11.4408L12.5743 11.2076L13.1955 10.3676L13.1424 9.91594C13.0343 9.52682 12.6884 9.66961 12.6884 9.66961L9.70342 13.6094C9.70626 13.8362 9.84194 13.9784 9.84194 13.9784C10.0982 14.3385 10.3417 14.1761 10.3417 14.1761L11.0338 13.2451L11.2064 13.1737L11.4604 13.3074L11.5244 13.2778L11.8791 12.8218C12.1866 12.8451 13.3557 13.6328 13.3557 13.6328C13.7044 13.849 13.8134 14.1539 13.8134 14.1539C13.9854 14.6448 14.3242 14.9108 14.3242 14.9108L14.9833 15.5354L10.2313 20.0931C10.2313 20.0931 9.64169 20.4941 9.90025 20.8642C9.90025 20.8642 10.2558 21.4044 11.0235 20.8491L12.8252 19.2144L15.8449 16.3523L18.9757 19.32L20.7774 20.9541C21.5448 21.5093 21.9007 20.9692 21.9007 20.9692C22.159 20.5991 21.5696 20.1986 21.5696 20.1986L16.7073 15.534L17.4764 14.8053C17.4764 14.8053 18.1705 14.3755 18.3428 13.8842C18.3428 13.8842 18.0962 13.7426 18.4452 13.5272Z" fill="#FF6000"/>
</svg>
