<svg width="48" height="48" viewBox="0 0 48 48" fill="none" xmlns="http://www.w3.org/2000/svg">
<rect width="48" height="48" rx="14.4" fill="white"/>
<path fill-rule="evenodd" clip-rule="evenodd" d="M24 8C15.1778 8 8 15.1774 8 24C8 32.8222 15.1778 40 24 40C32.8222 40 40 32.8222 40 24C40 15.1774 32.8222 8 24 8ZM24 38C16.2806 38 10 31.7194 10 24C10 16.2806 16.2806 10 24 10C31.7194 10 38 16.2806 38 24C38 31.7194 31.7194 38 24 38Z" fill="#FF6000"/>
<path fill-rule="evenodd" clip-rule="evenodd" d="M27.6676 20.291C27.6676 20.291 29.4221 19.1095 29.8825 19.0746L30.4141 19.7585L30.5114 19.802L30.8911 19.6023L31.1505 19.7094L32.1882 21.1051C32.1882 21.1051 32.5538 21.3495 32.9382 20.8094C32.9382 20.8094 33.1426 20.5952 33.1465 20.256L28.6682 14.3462C28.6682 14.3462 28.1502 14.1321 27.9885 14.7157L27.9078 15.3941L28.8401 16.6537L28.7424 17.0031L28.6067 17.0381L28.5794 17.2638L28.9118 17.696C28.9118 17.696 27.5166 18.6223 27.1313 19.0374L25.1644 20.7223L23.7679 22.0621L22.5365 20.8802L20.5696 19.1957C20.1843 18.7806 18.7895 17.8539 18.7895 17.8539L19.1206 17.4221L19.0938 17.1964L18.9585 17.1614L18.8612 16.8115L19.7931 15.5516L19.7133 14.874C19.5511 14.2903 19.0323 14.5045 19.0323 14.5045L14.5549 20.4143C14.5591 20.7543 14.7627 20.9677 14.7627 20.9677C15.1471 21.5078 15.5123 21.2642 15.5123 21.2642L16.5504 19.8677L16.8094 19.7606L17.1904 19.9612L17.2864 19.9168L17.8185 19.2329C18.2797 19.2678 20.0333 20.4493 20.0333 20.4493C20.5564 20.7735 20.7198 21.2309 20.7198 21.2309C20.9779 21.9674 21.4861 22.3663 21.4861 22.3663L22.4747 23.3033L15.3468 30.1397C15.3468 30.1397 14.4623 30.7413 14.8501 31.2964C14.8501 31.2964 15.3835 32.1067 16.535 31.2738L19.2375 28.8218L23.767 24.5286L28.4634 28.9801L31.1659 31.4313C32.317 32.2641 32.8508 31.4539 32.8508 31.4539C33.2382 30.8988 32.3541 30.298 32.3541 30.298L25.0607 23.3011L26.2144 22.208C26.2144 22.208 27.2555 21.5633 27.514 20.8265C27.514 20.8265 27.1441 20.614 27.6676 20.291Z" fill="#FF6000"/>
</svg>
