<svg width="32" height="32" viewBox="0 0 32 32" fill="none" xmlns="http://www.w3.org/2000/svg">
<rect width="32" height="32" rx="9.6" fill="white"/>
<path fill-rule="evenodd" clip-rule="evenodd" d="M26.6668 15.9996C26.6668 21.8904 21.8913 26.6666 16.0005 26.6666C10.1097 26.6666 5.3335 21.8904 5.3335 15.9996C5.3335 10.1088 10.1097 5.33325 16.0005 5.33325C21.8913 5.33325 26.6668 10.1088 26.6668 15.9996Z" fill="#15C39A"/>
<path fill-rule="evenodd" clip-rule="evenodd" d="M18.1044 17.4455C17.6613 17.4455 17.3106 17.845 17.3939 18.3031C17.457 18.6519 17.7856 18.8913 18.1402 18.8913H19.2581L19.9056 18.8002C18.869 20.3209 17.0692 21.0211 15.1014 20.712C13.4994 20.4608 12.1238 19.3768 11.5434 17.8632C10.2251 14.4275 12.7342 11.1467 16.0046 11.1467C17.7095 11.1467 19.2028 12.1442 20.0604 13.3493V13.3753C20.2882 13.7026 20.7391 13.797 21.0677 13.5692C21.3788 13.3532 21.4647 12.9426 21.2773 12.6199H21.2825C20.6768 11.6717 19.8268 10.9044 18.8219 10.3986C17.8169 9.89281 16.6942 9.66726 15.5719 9.7457C12.4531 9.95523 9.92898 12.5073 9.74939 15.6281C9.54116 19.259 12.4218 22.2242 16.0046 22.2242C16.8986 22.2276 17.7828 22.0376 18.5965 21.6673C19.4102 21.297 20.1342 20.7552 20.719 20.0789L20.583 20.8396V21.5267C20.583 21.8807 20.8218 22.2099 21.1712 22.2731C21.2758 22.2928 21.3834 22.2892 21.4864 22.2625C21.5894 22.2359 21.6852 22.1869 21.7671 22.119C21.849 22.0511 21.9149 21.9659 21.9602 21.8696C22.0054 21.7733 22.0289 21.6682 22.0288 21.5618V17.4455H18.1044Z" fill="white"/>
</svg>
