<svg width="48" height="48" viewBox="0 0 48 48" fill="none" xmlns="http://www.w3.org/2000/svg">
<rect width="48" height="48" rx="14.4" fill="white"/>
<path fill-rule="evenodd" clip-rule="evenodd" d="M40 23.9995C40 32.8357 32.8367 40 24.0005 40C15.1643 40 8 32.8357 8 23.9995C8 15.1633 15.1643 8 24.0005 8C32.8367 8 40 15.1633 40 23.9995Z" fill="#15C39A"/>
<path fill-rule="evenodd" clip-rule="evenodd" d="M27.1569 26.1682C26.4922 26.1682 25.9661 26.7675 26.091 27.4547C26.1857 27.9778 26.6786 28.337 27.2106 28.337H28.8874L29.8586 28.2004C28.3038 30.4814 25.604 31.5316 22.6524 31.068C20.2493 30.6913 18.186 29.0652 17.3153 26.7948C15.3378 21.6413 19.1015 16.72 24.0072 16.72C26.5644 16.72 28.8045 18.2163 30.0909 20.0239V20.063C30.4325 20.5539 31.1089 20.6955 31.6019 20.3539C32.0684 20.0298 32.1972 19.4139 31.9161 18.9298H31.9239C31.0155 17.5076 29.7405 16.3566 28.233 15.5979C26.7256 14.8392 25.0416 14.5009 23.3581 14.6185C18.6798 14.9328 14.8937 18.7609 14.6243 23.4421C14.312 28.8885 18.633 33.3364 24.0072 33.3364C25.3482 33.3414 26.6744 33.0565 27.895 32.501C29.1156 31.9456 30.2016 31.1328 31.0787 30.1183L30.8747 31.2593V32.29C30.8747 32.821 31.2329 33.3149 31.757 33.4096C31.9139 33.4391 32.0753 33.4338 32.2298 33.3938C32.3843 33.3539 32.5281 33.2803 32.651 33.1785C32.7738 33.0766 32.8727 32.9489 32.9405 32.8044C33.0084 32.66 33.0435 32.5023 33.0435 32.3428V26.1682H27.1569Z" fill="white"/>
</svg>
