<svg width="32" height="32" viewBox="0 0 32 32" fill="none" xmlns="http://www.w3.org/2000/svg">
<rect width="32" height="32" rx="9.6" fill="white"/>
<g clip-path="url(#clip0)">
<path d="M5.3335 14H6.8975C7.1954 14 7.41883 14.0745 7.58434 14.1986C7.76639 14.3476 7.86569 14.5627 7.86569 14.8275C7.86569 15.1337 7.74157 15.324 7.49331 15.4399V15.4564C7.82432 15.564 8.01464 15.8619 8.01464 16.2177C8.01464 16.557 7.88224 16.8218 7.66709 16.9873C7.48503 17.1197 7.25333 17.1777 6.93887 17.1777H5.3335V14ZM6.74027 15.2413C6.90577 15.2413 7.0299 15.1502 7.0299 14.9599C7.0299 14.7779 6.90577 14.6868 6.732 14.6868H6.19411V15.233H6.74027V15.2413ZM6.81475 16.4743C7.00508 16.4743 7.14575 16.3584 7.14575 16.1515C7.14575 15.9281 6.9968 15.8288 6.81475 15.8288H6.20239V16.4825H6.81475V16.4743Z" fill="black"/>
<path d="M8.15479 14H8.97402V17.1859H8.15479V14Z" fill="black"/>
<path d="M9.14014 16.0522C9.14014 15.3323 9.60355 14.8523 10.3235 14.8523C11.0434 14.8523 11.4986 15.3405 11.4986 16.0522C11.4986 16.7721 11.0434 17.2521 10.3235 17.2521C9.60355 17.2521 9.14014 16.7721 9.14014 16.0522ZM10.6793 16.0522C10.6793 15.655 10.5552 15.4067 10.3069 15.4067C10.0587 15.4067 9.94283 15.655 9.94283 16.0522C9.94283 16.4494 10.0587 16.7059 10.3069 16.7059C10.5552 16.6977 10.6793 16.4494 10.6793 16.0522Z" fill="black"/>
<path d="M11.5894 16.0522C11.5894 15.3323 12.0528 14.8523 12.7727 14.8523C13.4926 14.8523 13.9395 15.3323 13.9395 16.0522C13.9395 16.7721 13.4844 17.2521 12.7644 17.2521C12.0528 17.2521 11.5894 16.7721 11.5894 16.0522ZM13.1285 16.0522C13.1285 15.655 13.0044 15.4067 12.7562 15.4067C12.5079 15.4067 12.392 15.655 12.392 16.0522C12.392 16.4494 12.5079 16.7059 12.7562 16.7059C13.0044 16.6977 13.1285 16.4494 13.1285 16.0522Z" fill="black"/>
<path d="M14.105 14.9102H14.8663V15.2495H14.8828C15.0318 14.9847 15.2387 14.844 15.5697 14.844C15.8593 14.844 16.0745 14.9847 16.182 15.2329H16.1986C16.3806 14.935 16.6206 14.844 16.902 14.844C17.4316 14.844 17.655 15.2329 17.655 15.7543V17.1776H16.8606V15.8949C16.8606 15.6632 16.7861 15.5143 16.5875 15.5143C16.3889 15.5143 16.2896 15.6963 16.2896 15.9446V17.1776H15.4952V15.8949C15.4952 15.6632 15.4207 15.5143 15.2221 15.5143C15.0235 15.5143 14.9242 15.6963 14.9242 15.9446V17.1776H14.105V14.9102Z" fill="black"/>
<path d="M18.6563 16.8798H18.648V17.1777H17.8867V14H18.6811V15.142H18.6977C18.8466 14.9434 19.0535 14.8358 19.3431 14.8358C19.9141 14.8358 20.2451 15.3488 20.2451 16.0357C20.2451 16.8053 19.8893 17.2521 19.2935 17.2521C19.0452 17.2521 18.7887 17.1363 18.6563 16.8798ZM19.4259 16.0274C19.4259 15.6633 19.2935 15.4233 19.0535 15.4233C18.8053 15.4233 18.6563 15.6633 18.6563 16.0274C18.6563 16.3915 18.8135 16.6315 19.0535 16.6315C19.2935 16.6315 19.4259 16.3998 19.4259 16.0274Z" fill="black"/>
<path d="M20.3364 16.0439C20.3364 15.3322 20.8081 14.844 21.4867 14.844C21.826 14.844 22.0825 14.9516 22.2811 15.1419C22.5459 15.3984 22.6617 15.7956 22.6535 16.259H21.1308C21.1639 16.5404 21.2963 16.6894 21.5363 16.6894C21.677 16.6894 21.8011 16.6232 21.8508 16.4742H22.6204C22.488 16.9955 22.0825 17.2521 21.5115 17.2521C20.8081 17.2438 20.3364 16.7638 20.3364 16.0439ZM21.1308 15.8039H21.8591C21.8425 15.5308 21.6936 15.3902 21.5032 15.3902C21.2798 15.3819 21.1557 15.5391 21.1308 15.8039Z" fill="black"/>
<path d="M23.5553 15.2992H23.5718C23.7373 14.9847 23.9525 14.8606 24.2255 14.8606C24.2917 14.8606 24.3331 14.8689 24.3579 14.8854V15.5805H24.3414C23.8697 15.4978 23.5966 15.7212 23.5966 16.2343V17.1859H22.7939V14.9102H23.5553V15.2992Z" fill="black"/>
<path d="M24.4408 17.1858H25.2104C25.2435 17.2851 25.3428 17.3762 25.5331 17.3762C25.7896 17.3762 25.8807 17.2189 25.8807 16.979V16.8135H25.8641C25.74 16.9624 25.5662 17.07 25.318 17.07C24.8297 17.07 24.3994 16.7059 24.3994 15.9942C24.3994 15.3405 24.747 14.8357 25.2766 14.8357C25.5828 14.8357 25.7648 14.9598 25.8889 15.1501H25.9055V14.9019H26.6668V16.8714C26.6668 17.2355 26.5427 17.5168 26.3523 17.6823C26.1537 17.8561 25.8724 17.9306 25.5497 17.9306C24.9373 17.9389 24.5153 17.6906 24.4408 17.1858ZM25.9138 15.9611C25.9138 15.6798 25.7814 15.4481 25.5497 15.4481C25.3262 15.4481 25.1856 15.6467 25.1856 15.9611C25.1856 16.2673 25.3262 16.4824 25.5497 16.4824C25.7731 16.4824 25.9138 16.259 25.9138 15.9611Z" fill="black"/>
</g>
<defs>
<clipPath id="clip0">
<rect width="21.3333" height="3.93897" fill="white" transform="translate(5.3335 14)"/>
</clipPath>
</defs>
</svg>
