<svg width="32" height="32" viewBox="0 0 32 32" fill="none" xmlns="http://www.w3.org/2000/svg">
<rect width="32" height="32" rx="9.6" fill="white"/>
<path d="M9.17514 7.69699H17.1375C18.6541 7.69699 19.7916 8.07615 20.6342 8.70808C21.561 9.4664 22.0665 10.5617 22.0665 11.9099C22.0665 13.4686 21.4346 14.4376 20.1707 15.0274V15.1117C21.8559 15.6593 22.8249 17.176 22.8249 18.9875C22.8249 20.7148 22.1508 22.0629 21.0554 22.9055C20.1286 23.5795 18.949 23.8744 17.3481 23.8744H9.17514V7.69699ZM16.337 14.0163C17.1796 14.0163 17.8115 13.5529 17.8115 12.5839C17.8115 11.6571 17.1796 11.1937 16.2949 11.1937H13.5565V14.0163H16.337ZM16.7162 20.2935C17.6851 20.2935 18.4013 19.7037 18.4013 18.6505C18.4013 17.513 17.643 17.0074 16.7162 17.0074H13.5987V20.2935H16.7162Z" fill="url(#paint0_linear)"/>
<defs>
<linearGradient id="paint0_linear" x1="9.17514" y1="7.69699" x2="21.9589" y2="23.8744" gradientUnits="userSpaceOnUse">
<stop stop-color="#2800D7"/>
<stop offset="0.407361" stop-color="#2800D7"/>
<stop offset="0.817708" stop-color="#B00097"/>
</linearGradient>
</defs>
</svg>
