<svg width="40" height="40" viewBox="0 0 40 40" fill="none" xmlns="http://www.w3.org/2000/svg">
<rect width="40" height="40" rx="12" fill="white"/>
<path d="M11.4689 9.62122H21.4218C23.3176 9.62122 24.7395 10.0952 25.7927 10.8851C26.9512 11.833 27.5832 13.2022 27.5832 14.8873C27.5832 16.8358 26.7933 18.047 25.2134 18.7842V18.8895C27.3199 19.5741 28.5311 21.4699 28.5311 23.7344C28.5311 25.8934 27.6885 27.5786 26.3193 28.6318C25.1608 29.4744 23.6863 29.843 21.6851 29.843H11.4689V9.62122ZM20.4213 17.5204C21.4745 17.5204 22.2644 16.9411 22.2644 15.7299C22.2644 14.5713 21.4745 13.9921 20.3686 13.9921H16.9457V17.5204H20.4213ZM20.8952 25.3668C22.1064 25.3668 23.0017 24.6296 23.0017 23.3131C23.0017 21.8912 22.0538 21.2593 20.8952 21.2593H16.9983V25.3668H20.8952Z" fill="url(#paint0_linear)"/>
<defs>
<linearGradient id="paint0_linear" x1="11.4689" y1="9.62122" x2="27.4487" y2="29.843" gradientUnits="userSpaceOnUse">
<stop stop-color="#2800D7"/>
<stop offset="0.407361" stop-color="#2800D7"/>
<stop offset="0.817708" stop-color="#B00097"/>
</linearGradient>
</defs>
</svg>
