<svg width="48" height="48" viewBox="0 0 48 48" fill="none" xmlns="http://www.w3.org/2000/svg">
<rect width="48" height="48" rx="14.4" fill="white"/>
<g clip-path="url(#clip0)">
<path d="M8 21H10.346C10.7929 21 11.128 21.1117 11.3763 21.2979C11.6493 21.5213 11.7983 21.8441 11.7983 22.2413C11.7983 22.7005 11.6121 22.986 11.2397 23.1598V23.1846C11.7362 23.346 12.0217 23.7929 12.0217 24.3266C12.0217 24.8355 11.8231 25.2327 11.5004 25.481C11.2273 25.6796 10.8798 25.7665 10.4081 25.7665H8V21ZM10.1102 22.8619C10.3584 22.8619 10.5446 22.7254 10.5446 22.4399C10.5446 22.1668 10.3584 22.0303 10.0977 22.0303H9.29092V22.8495H10.1102V22.8619ZM10.2219 24.7114C10.5074 24.7114 10.7184 24.5376 10.7184 24.2273C10.7184 23.8922 10.495 23.7432 10.2219 23.7432H9.30334V24.7238H10.2219V24.7114Z" fill="black"/>
<path d="M12.2324 21H13.4613V25.7789H12.2324V21Z" fill="black"/>
<path d="M13.71 24.0784C13.71 22.9985 14.4051 22.2786 15.485 22.2786C16.5649 22.2786 17.2476 23.0109 17.2476 24.0784C17.2476 25.1583 16.5649 25.8783 15.485 25.8783C14.4051 25.8783 13.71 25.1583 13.71 24.0784ZM16.0187 24.0784C16.0187 23.4826 15.8325 23.1102 15.4602 23.1102C15.0878 23.1102 14.914 23.4826 14.914 24.0784C14.914 24.6742 15.0878 25.059 15.4602 25.059C15.8325 25.0466 16.0187 24.6742 16.0187 24.0784Z" fill="black"/>
<path d="M17.3838 24.0784C17.3838 22.9985 18.0789 22.2786 19.1588 22.2786C20.2387 22.2786 20.909 22.9985 20.909 24.0784C20.909 25.1583 20.2263 25.8783 19.1464 25.8783C18.0789 25.8783 17.3838 25.1583 17.3838 24.0784ZM19.6926 24.0784C19.6926 23.4826 19.5064 23.1102 19.134 23.1102C18.7616 23.1102 18.5878 23.4826 18.5878 24.0784C18.5878 24.6742 18.7616 25.059 19.134 25.059C19.5064 25.0466 19.6926 24.6742 19.6926 24.0784Z" fill="black"/>
<path d="M21.1577 22.3654H22.2997V22.8743H22.3245C22.5479 22.4771 22.8583 22.2661 23.3548 22.2661C23.7892 22.2661 24.1119 22.4771 24.2733 22.8495H24.2981C24.5712 22.4027 24.9312 22.2661 25.3532 22.2661C26.1476 22.2661 26.4828 22.8495 26.4828 23.6315V25.7665H25.2912V23.8425C25.2912 23.495 25.1794 23.2715 24.8815 23.2715C24.5836 23.2715 24.4347 23.5446 24.4347 23.917V25.7665H23.2431V23.8425C23.2431 23.495 23.1313 23.2715 22.8334 23.2715C22.5355 23.2715 22.3866 23.5446 22.3866 23.917V25.7665H21.1577V22.3654Z" fill="black"/>
<path d="M27.9845 25.3196H27.972V25.7665H26.8301V21H28.0217V22.713H28.0465C28.27 22.4151 28.5803 22.2537 29.0147 22.2537C29.8712 22.2537 30.3677 23.0233 30.3677 24.0535C30.3677 25.2079 29.834 25.8782 28.9402 25.8782C28.5679 25.8782 28.1831 25.7044 27.9845 25.3196ZM29.1388 24.0411C29.1388 23.495 28.9402 23.135 28.5803 23.135C28.2079 23.135 27.9845 23.495 27.9845 24.0411C27.9845 24.5873 28.2203 24.9472 28.5803 24.9472C28.9402 24.9472 29.1388 24.5997 29.1388 24.0411Z" fill="black"/>
<path d="M30.5044 24.066C30.5044 22.9985 31.2119 22.2661 32.2298 22.2661C32.7387 22.2661 33.1235 22.4275 33.4214 22.713C33.8186 23.0978 33.9924 23.6936 33.98 24.3887H31.696C31.7457 24.8107 31.9443 25.0342 32.3042 25.0342C32.5153 25.0342 32.7014 24.9348 32.7759 24.7114H33.9303C33.7317 25.4934 33.1235 25.8782 32.267 25.8782C31.2119 25.8658 30.5044 25.1459 30.5044 24.066ZM31.696 23.706H32.7883C32.7635 23.2964 32.5401 23.0854 32.2546 23.0854C31.9194 23.0729 31.7333 23.3088 31.696 23.706Z" fill="black"/>
<path d="M35.3329 22.9489H35.3577C35.606 22.4772 35.9287 22.291 36.3383 22.291C36.4376 22.291 36.4997 22.3034 36.5369 22.3283V23.3709H36.5121C35.8046 23.2468 35.395 23.5819 35.395 24.3515V25.779H34.1909V22.3655H35.3329V22.9489Z" fill="black"/>
<path d="M36.6612 25.7789H37.8156C37.8652 25.9278 38.0142 26.0644 38.2997 26.0644C38.6845 26.0644 38.821 25.8285 38.821 25.4686V25.2203H38.7962C38.61 25.4437 38.3493 25.6051 37.9769 25.6051C37.2446 25.6051 36.5991 25.0589 36.5991 23.9914C36.5991 23.0108 37.1205 22.2537 37.9149 22.2537C38.3741 22.2537 38.6472 22.4399 38.8334 22.7253H38.8582V22.353H40.0002V25.3072C40.0002 25.8534 39.814 26.2754 39.5285 26.5236C39.2306 26.7843 38.8086 26.896 38.3245 26.896C37.4059 26.9084 36.7729 26.5361 36.6612 25.7789ZM38.8707 23.9418C38.8707 23.5198 38.672 23.1722 38.3245 23.1722C37.9893 23.1722 37.7783 23.4701 37.7783 23.9418C37.7783 24.4011 37.9893 24.7238 38.3245 24.7238C38.6596 24.7238 38.8707 24.3887 38.8707 23.9418Z" fill="black"/>
</g>
<defs>
<clipPath id="clip0">
<rect width="32" height="5.90846" fill="white" transform="translate(8 21)"/>
</clipPath>
</defs>
</svg>
