<svg width="32" height="32" viewBox="0 0 32 32" fill="none" xmlns="http://www.w3.org/2000/svg">
<rect width="32" height="32" rx="9.6" fill="black"/>
<path d="M18.4062 19.7021H20.1058V12.6667H18.4062V19.7021ZM15.4221 17.6962C15.4221 17.9433 15.2146 18.1508 14.9676 18.1508H13.9795C13.7324 18.1508 13.5249 17.9433 13.5249 17.6962V14.8604H11.8254V17.8346C11.8254 19.05 12.606 19.6922 13.7522 19.6922H15.4122C16.4695 19.6922 17.1118 18.9314 17.1118 17.8346V14.8604H15.4122C15.4221 14.8604 15.4221 17.6073 15.4221 17.6962ZM24.9772 14.8604V17.6962C24.9772 17.9433 24.7697 18.1508 24.5226 18.1508H23.5345C23.2875 18.1508 23.08 17.9433 23.08 17.6962V14.8604H21.3804V17.8346C21.3804 19.05 22.161 19.6922 23.3072 19.6922H24.9673C26.0246 19.6922 26.6668 18.9314 26.6668 17.8346V14.8604H24.9772ZM8.69308 14.8604H7.60615C7.22079 14.8604 7.03305 14.9592 7.03305 14.9592V12.6667H5.3335V19.6922H7.02317V16.8662C7.02317 16.6192 7.23067 16.4117 7.4777 16.4117H8.46581C8.71284 16.4117 8.92034 16.6192 8.92034 16.8662V19.7021H10.6199V16.639C10.6199 15.3544 9.76024 14.8604 8.69308 14.8604Z" fill="#1CE783"/>
</svg>
