<svg width="48" height="48" viewBox="0 0 48 48" fill="none" xmlns="http://www.w3.org/2000/svg">
<rect width="48" height="48" rx="14.4" fill="black"/>
<path d="M27.6091 29.2764H30.1584V18.7234H27.6091V29.2764ZM23.1329 26.2676C23.1329 26.6382 22.8217 26.9494 22.4511 26.9494H20.969C20.5984 26.9494 20.2872 26.6382 20.2872 26.2676V22.0138H17.7378V26.4751C17.7378 28.2982 18.9088 29.2616 20.6281 29.2616H23.1181C24.704 29.2616 25.6674 28.1203 25.6674 26.4751V22.0138H23.1181C23.1329 22.0138 23.1329 26.1342 23.1329 26.2676ZM37.4655 22.0138V26.2676C37.4655 26.6382 37.1542 26.9494 36.7837 26.9494H35.3015C34.931 26.9494 34.6197 26.6382 34.6197 26.2676V22.0138H32.0704V26.4751C32.0704 28.2982 33.2413 29.2616 34.9606 29.2616H37.4507C39.0366 29.2616 40 28.1203 40 26.4751V22.0138H37.4655ZM13.0394 22.0138H11.409C10.8309 22.0138 10.5493 22.162 10.5493 22.162V18.7234H8V29.2616H10.5345V25.0226C10.5345 24.6521 10.8458 24.3408 11.2163 24.3408H12.6985C13.069 24.3408 13.3803 24.6521 13.3803 25.0226V29.2764H15.9296V24.6817C15.9296 22.7549 14.6401 22.0138 13.0394 22.0138Z" fill="#1CE783"/>
</svg>
