<svg width="24" height="24" viewBox="0 0 24 24" fill="none" xmlns="http://www.w3.org/2000/svg">
<path d="M12.0043 15.1256C12.3313 15.1256 12.5568 14.9114 12.5624 14.5731C12.5793 11.7828 12.5962 8.98676 12.6131 6.19639C12.6131 5.84125 12.3369 5.60449 11.9987 5.60449C11.6661 5.60449 11.3843 5.84125 11.3843 6.19639C11.4068 8.98676 11.4237 11.7828 11.4463 14.5731C11.4519 14.9114 11.6774 15.1256 12.0043 15.1256ZM5.01997 11.5065C5.14399 11.6362 5.33565 11.6306 5.45966 11.4953C6.82384 10.0522 8.5488 9.15023 10.4767 8.84583L10.4541 6.81083C7.8498 7.19416 5.45966 8.50196 4.0673 10.1762C3.97147 10.2889 3.9771 10.4411 4.08985 10.5595L5.01997 11.5065ZM18.5547 11.5009C18.673 11.6249 18.8534 11.6249 18.9944 11.4784L19.9132 10.5595C20.0259 10.4411 20.0259 10.2889 19.9301 10.1762C18.5377 8.5076 16.1533 7.19416 13.5433 6.81647L13.5264 8.85146C15.4543 9.16151 17.1736 10.0747 18.5547 11.5009ZM7.92308 14.4266C8.06401 14.5619 8.23876 14.5506 8.37405 14.3984C8.92085 13.8008 9.67622 13.3217 10.5161 13.0511L10.4936 10.9428C8.97158 11.2641 7.65813 12.0421 6.84639 13.006C6.75056 13.1188 6.76183 13.2653 6.87458 13.3781L7.92308 14.4266ZM15.6403 14.4153C15.7756 14.5562 15.9334 14.5506 16.0912 14.404L17.1285 13.3781C17.2412 13.271 17.2469 13.1188 17.151 13.006C16.3449 12.0421 15.0258 11.2585 13.5151 10.9428L13.4982 13.0624C14.3325 13.3386 15.0935 13.8234 15.6403 14.4153ZM11.9987 18.3951C12.5737 18.3951 13.0416 17.9272 13.0416 17.3579C13.0416 16.7829 12.5737 16.315 11.9987 16.315C11.4294 16.315 10.9615 16.7772 10.9615 17.3579C10.9615 17.9272 11.4294 18.3951 11.9987 18.3951Z" fill="white"/>
</svg>
