<svg width="32" height="32" viewBox="0 0 32 32" fill="none" xmlns="http://www.w3.org/2000/svg">
<path fill-rule="evenodd" clip-rule="evenodd" d="M9.6 0C4.29807 0 0 4.29807 0 9.6V22.4C0 27.7019 4.29807 32 9.6 32H22.4C27.7019 32 32 27.7019 32 22.4V9.6C32 4.29807 27.7019 0 22.4 0H9.6Z" fill="#E44332"/>
<path d="M6.76875 15.0999C7.325 14.775 19.3125 7.8062 19.5875 7.64995C19.8625 7.48745 19.875 6.99995 19.5688 6.82495C19.2625 6.64995 18.6812 6.31245 18.4625 6.18745C18.1562 6.0187 17.7812 6.02495 17.475 6.19995C17.3188 6.28745 7.08125 12.2374 6.7375 12.4312C6.325 12.6687 5.81875 12.6687 5.4125 12.4312L0 9.24995V11.9499C1.3125 12.7249 4.5875 14.6499 5.38125 15.1062C5.85625 15.3749 6.30625 15.3687 6.76875 15.0999Z" fill="white"/>
<path d="M6.76875 20.2C7.325 19.875 19.3125 12.9125 19.5813 12.75C19.8563 12.5875 19.8688 12.1 19.5625 11.925C19.2563 11.75 18.675 11.4125 18.4563 11.2875C18.15 11.1188 17.775 11.125 17.4688 11.3C17.3125 11.3875 7.075 17.3375 6.73125 17.5313C6.31875 17.7688 5.8125 17.7688 5.40625 17.5313L0 14.35V17.05C1.3125 17.825 4.5875 19.75 5.38125 20.2063C5.85625 20.475 6.30625 20.4688 6.76875 20.2Z" fill="white"/>
<path d="M6.76875 25.6187C7.325 25.2937 19.3125 18.325 19.5875 18.1687C19.8625 18.0062 19.875 17.5187 19.5688 17.3437C19.2625 17.1687 18.6812 16.8312 18.4625 16.7062C18.1562 16.5375 17.7812 16.5437 17.475 16.7187C17.3188 16.8062 7.08125 22.7562 6.7375 22.95C6.325 23.1875 5.81875 23.1875 5.4125 22.95L0 19.775V22.475C1.3125 23.25 4.5875 25.175 5.38125 25.625C5.85625 25.8937 6.30625 25.8875 6.76875 25.6187Z" fill="white"/>
</svg>
