<svg width="48" height="48" viewBox="0 0 48 48" fill="none" xmlns="http://www.w3.org/2000/svg">
<path fill-rule="evenodd" clip-rule="evenodd" d="M14.4 0C6.4471 0 0 6.4471 0 14.4V33.6C0 41.5529 6.4471 48 14.4 48H33.6C41.5529 48 48 41.5529 48 33.6V14.4C48 6.4471 41.5529 0 33.6 0H14.4Z" fill="#E44332"/>
<path d="M10.1531 22.65C10.9875 22.1625 28.9688 11.7094 29.3812 11.475C29.7937 11.2313 29.8125 10.5 29.3531 10.2375C28.8938 9.97505 28.0219 9.4688 27.6937 9.2813C27.2344 9.02817 26.6719 9.03755 26.2125 9.30005C25.9781 9.4313 10.6219 18.3563 10.1063 18.6469C9.4875 19.0032 8.72812 19.0032 8.11875 18.6469L0 13.875V17.925C1.96875 19.0875 6.88125 21.975 8.07187 22.6594C8.78438 23.0625 9.45938 23.0532 10.1531 22.65Z" fill="white"/>
<path d="M10.1531 30.2999C10.9875 29.8124 28.9687 19.3687 29.3719 19.1249C29.7844 18.8812 29.8031 18.1499 29.3438 17.8874C28.8844 17.6249 28.0125 17.1187 27.6844 16.9312C27.225 16.6781 26.6625 16.6874 26.2031 16.9499C25.9688 17.0812 10.6125 26.0062 10.0969 26.2968C9.47812 26.6531 8.71875 26.6531 8.10938 26.2968L0 21.5249V25.5749C1.96875 26.7374 6.88125 29.6249 8.07187 30.3093C8.78438 30.7124 9.45938 30.7031 10.1531 30.2999Z" fill="white"/>
<path d="M10.1531 38.4281C10.9875 37.9406 28.9688 27.4875 29.3812 27.2531C29.7937 27.0094 29.8125 26.2781 29.3531 26.0156C28.8938 25.7531 28.0219 25.2469 27.6937 25.0594C27.2344 24.8062 26.6719 24.8156 26.2125 25.0781C25.9781 25.2094 10.6219 34.1344 10.1063 34.425C9.4875 34.7812 8.72812 34.7812 8.11875 34.425L0 29.6625V33.7125C1.96875 34.875 6.88125 37.7625 8.07187 38.4375C8.78438 38.8406 9.45938 38.8312 10.1531 38.4281Z" fill="white"/>
</svg>
