<svg width="32" height="32" viewBox="0 0 32 32" fill="none" xmlns="http://www.w3.org/2000/svg">
<rect width="32" height="32" rx="9.6" fill="white"/>
<path fill-rule="evenodd" clip-rule="evenodd" d="M5.70068 15.9995C5.70068 21.6876 10.3116 26.2984 15.9995 26.2984C21.6874 26.2984 26.2984 21.6876 26.2984 15.9995C26.2984 10.3116 21.6874 5.70068 15.9995 5.70068C10.3116 5.70068 5.70068 10.3116 5.70068 15.9995Z" fill="white"/>
<path fill-rule="evenodd" clip-rule="evenodd" d="M16.0002 7.90796C20.4691 7.90796 24.0921 11.5309 24.0921 15.9999C24.0921 20.4691 20.4691 24.0919 16.0002 24.0919C11.5312 24.0919 7.9082 20.4691 7.9082 15.9999C7.9082 11.5309 11.5312 7.90796 16.0002 7.90796Z" fill="#1A8CFF"/>
<path opacity="0.5" d="M5.3335 15.9999C5.3335 21.8912 10.109 26.6666 16.0002 26.6666C21.8913 26.6666 26.6668 21.8912 26.6668 15.9999C26.6668 10.1088 21.8913 5.33325 16.0002 5.33325C10.109 5.33325 5.3335 10.1088 5.3335 15.9999ZM5.70131 15.9999C5.70131 10.3126 10.3117 5.70107 16.0002 5.70107C21.6886 5.70107 26.299 10.3126 26.299 15.9999C26.299 21.6873 21.6888 26.2988 16.0002 26.2988C10.3115 26.2988 5.70131 21.6873 5.70131 15.9999Z" fill="black"/>
<path fill-rule="evenodd" clip-rule="evenodd" d="M26.2839 15.4481C26.2934 15.6307 26.2984 15.8148 26.2984 15.9998C26.2984 21.6878 21.6874 26.2987 15.9995 26.2987C10.3116 26.2987 5.70068 21.6878 5.70068 15.9998C5.70068 15.8148 5.70565 15.6307 5.71521 15.4481C6.00192 20.8795 10.4968 25.1952 15.9995 25.1952C21.4598 25.1952 25.9278 20.9459 26.2763 15.5735L26.2839 15.4481ZM15.9995 6.80444C20.9765 6.80444 25.011 10.839 25.011 15.8159C25.011 18.5985 23.75 21.0862 21.7684 22.7393C23.4239 21.1951 24.4593 18.9942 24.4593 16.5516C24.4593 11.8794 20.6717 8.0918 15.9995 8.0918C11.3274 8.0918 7.53976 11.8794 7.53976 16.5516C7.53976 18.9942 8.57498 21.1951 10.2305 22.7393C8.2491 21.0862 6.98804 18.5983 6.98804 15.8159C6.98804 10.839 11.0226 6.80444 15.9995 6.80444Z" fill="black" fill-opacity="0.052"/>
<path opacity="0.256" d="M16.0002 7.90796C20.4699 7.90796 24.0921 11.5315 24.0921 15.9999C24.0921 20.4685 20.4699 24.0919 16.0002 24.0919C11.5753 24.0919 7.98066 20.5406 7.90931 16.1338L7.9082 15.9999C7.9082 11.5315 11.5305 7.90796 16.0002 7.90796ZM16.0002 8.27578C11.7342 8.27578 8.27602 11.734 8.27602 15.9999C8.27602 20.266 11.7342 23.7241 16.0002 23.7241C20.2661 23.7241 23.7243 20.266 23.7243 15.9999C23.7243 11.734 20.2661 8.27578 16.0002 8.27578Z" fill="black"/>
<path d="M16.0413 9.56303C15.1898 9.55994 14.346 9.72539 13.5587 10.0498C12.7714 10.3743 12.0561 10.8513 11.4539 11.4534C10.8518 12.0556 10.3748 12.7709 10.0503 13.5582C9.72588 14.3455 9.56043 15.1893 9.56352 16.0408C9.56352 19.5682 12.4588 22.4366 16.0413 22.4366C19.5552 22.4366 22.4371 19.5548 22.4371 16.0408C22.4371 12.4583 19.5685 9.56303 16.0413 9.56303ZM16.0409 9.93085C19.352 9.93085 22.0693 12.6481 22.0693 16.0405C22.0693 19.3517 19.352 22.0688 16.0409 22.0688C12.6486 22.0688 9.93134 19.3517 9.93134 16.0405C9.9283 15.2373 10.0843 14.4414 10.3902 13.6988C10.6962 12.9562 11.1461 12.2815 11.714 11.7135C12.282 11.1456 12.9567 10.6957 13.6993 10.3897C14.4419 10.0838 15.2378 9.92781 16.0409 9.93085Z" fill="black" fill-opacity="0.25"/>
<path fill-rule="evenodd" clip-rule="evenodd" d="M16.0408 9.93095C19.3519 9.93095 22.0691 12.6482 22.0691 16.0406C22.0691 19.3518 19.3519 22.0689 16.0408 22.0689C12.6484 22.0689 9.9312 19.3518 9.9312 16.0406C9.92816 15.2374 10.0841 14.4415 10.3901 13.6989C10.696 12.9563 11.1459 12.2816 11.7139 11.7136C12.2818 11.1457 12.9565 10.6958 13.6992 10.3898C14.4418 10.0839 15.2376 9.92791 16.0408 9.93095Z" fill="#F7F7F7"/>
<path fill-rule="evenodd" clip-rule="evenodd" d="M18.7585 15.9996C18.7585 17.5231 17.5233 18.7582 15.9998 18.7582C14.4763 18.7582 13.2412 17.5231 13.2412 15.9996C13.2412 14.4761 14.4763 13.241 15.9998 13.241C17.5233 13.241 18.7585 14.4761 18.7585 15.9996Z" fill="black" fill-opacity="0.05"/>
<path d="M16 12.8735C14.2733 12.8735 12.8735 14.2733 12.8735 16C12.8735 17.7267 14.2733 19.1264 16 19.1264C17.7267 19.1264 19.1264 17.7267 19.1264 16C19.1264 14.2733 17.7267 12.8735 16 12.8735ZM16 13.2414C17.5235 13.2414 18.7586 14.4765 18.7586 16C18.7586 17.5235 17.5235 18.7586 16 18.7586C14.4765 18.7586 13.2414 17.5235 13.2414 16C13.2414 14.4765 14.4765 13.2414 16 13.2414Z" fill="white"/>
<path d="M15.9998 13.241C17.5233 13.241 18.7585 14.4761 18.7585 15.9996C18.7585 17.5231 17.5233 18.7582 15.9998 18.7582C14.4763 18.7582 13.2412 17.5231 13.2412 15.9996C13.2412 14.4761 14.4763 13.241 15.9998 13.241ZM15.9998 13.6088C14.6794 13.6088 13.609 14.6791 13.609 15.9996C13.609 17.32 14.6794 18.3904 15.9998 18.3904C17.3203 18.3904 18.3906 17.32 18.3906 15.9996C18.3906 14.6791 17.3203 13.6088 15.9998 13.6088Z" fill="black" fill-opacity="0.15"/>
<path d="M17.0254 11.2183H14.9741C14.5195 11.2183 14.1607 11.6164 14.1607 12.0959V14.0806C14.1607 14.2612 14.2258 14.4355 14.3438 14.5665L14.6454 14.901C14.6522 14.9087 14.6522 14.9306 14.6454 14.9385L14.3438 15.2729C14.2249 15.4068 14.1597 15.5799 14.1607 15.759V19.9041C14.1607 20.3833 14.5195 20.7815 14.9741 20.7815H17.0254C17.48 20.7815 17.8388 20.3833 17.8388 19.9039V17.9191C17.8397 17.7401 17.7745 17.5671 17.6556 17.4333L17.354 17.0987C17.3472 17.091 17.3472 17.0691 17.354 17.0612L17.6556 16.7269C17.7745 16.5929 17.8398 16.4199 17.8388 16.2408V12.0959C17.8388 11.6164 17.48 11.2183 17.0254 11.2183ZM17.002 11.5931C17.261 11.5931 17.471 11.831 17.471 12.1246V16.2393C17.471 16.3331 17.4379 16.4232 17.3794 16.4898L17.0863 16.8219C16.9641 16.9602 16.9641 17.1846 17.0863 17.3231L17.3794 17.655C17.4381 17.7214 17.471 17.8115 17.471 17.9055V19.8752C17.471 20.1685 17.261 20.4067 17.002 20.4067H14.9974C14.7385 20.4067 14.5285 20.1685 14.5285 19.8752V15.7602C14.5285 15.6664 14.5616 15.5763 14.6201 15.5098L14.9132 15.1776C15.0353 15.0393 15.0353 14.815 14.9132 14.6765L14.6201 14.3447C14.5602 14.275 14.5277 14.1859 14.5285 14.094V12.1244C14.5285 11.831 14.7385 11.5929 14.9974 11.5929H17.002V11.5931Z" fill="white"/>
<path fill-rule="evenodd" clip-rule="evenodd" d="M14.5283 14.0905V12.1181C14.5283 11.824 14.7384 11.5857 14.9973 11.5857H17.0019C17.2608 11.5857 17.4709 11.824 17.4709 12.1179V16.2393C17.4716 16.3312 17.4391 16.4203 17.3793 16.4902L17.0861 16.823C16.964 16.9615 16.964 17.1861 17.0861 17.3247L17.3793 17.6574C17.4379 17.724 17.4709 17.8143 17.4709 17.9083V19.8811C17.4709 20.1749 17.2608 20.4133 17.0019 20.4133H14.9973C14.7384 20.4133 14.5283 20.1749 14.5283 19.8811V15.7597C14.5283 15.6657 14.5614 15.5754 14.6199 15.5088L14.9131 15.1759C15.0352 15.0375 15.0352 14.8129 14.9131 14.6742L14.6199 14.3416C14.5601 14.2717 14.5276 14.1826 14.5283 14.0907V14.0905Z" fill="#0A2D4D"/>
<path d="M17.0019 11.5857C17.2608 11.5857 17.4709 11.824 17.4709 12.1179V16.2393C17.4716 16.3312 17.4391 16.4203 17.3793 16.4902L17.0861 16.823C16.964 16.9615 16.964 17.1861 17.0861 17.3247L17.3793 17.6574C17.4379 17.724 17.4709 17.8143 17.4709 17.9083V19.8811C17.4709 20.1749 17.2608 20.4133 17.0019 20.4133H14.9973C14.7384 20.4133 14.5283 20.1749 14.5283 19.8811V15.7597C14.5283 15.6657 14.5614 15.5754 14.6199 15.5088L14.9131 15.1759C15.0352 15.0375 15.0352 14.8129 14.9131 14.6742L14.6199 14.3416C14.5601 14.2717 14.5276 14.1826 14.5283 14.0907V12.1179C14.5283 11.824 14.7384 11.5857 14.9973 11.5857H17.0019ZM16.9489 11.9634L15.0503 11.961C14.976 11.961 14.9061 12.0309 14.8971 12.1295L14.8961 12.1512V14.1062C14.8961 14.112 14.8974 14.117 14.8989 14.1205L14.9015 14.1247L15.2088 14.4547C15.449 14.7127 15.4571 15.1169 15.2336 15.3851L15.2088 15.4132L14.9017 15.7431C14.8998 15.745 14.898 15.7488 14.8971 15.7538L14.8963 15.7617V19.8478C14.8963 19.9506 14.9613 20.0271 15.0346 20.0368L15.0504 20.0379L16.9491 20.0403C17.0234 20.0403 17.0933 19.9706 17.1023 19.8719L17.1032 19.8503V17.8952C17.1033 17.8903 17.1024 17.8854 17.1005 17.8809L17.0979 17.8766L16.7908 17.5467C16.5506 17.2887 16.5425 16.8846 16.7659 16.6165L16.7908 16.5882L17.0979 16.2582C17.0997 16.2564 17.1016 16.2527 17.1025 16.2478L17.1032 16.2397V12.1536C17.1032 12.051 17.0383 11.9743 16.9649 11.9645L16.9491 11.9634H16.9489Z" fill="black" fill-opacity="0.4"/>
</svg>
