<svg width="48" height="48" viewBox="0 0 48 48" fill="none" xmlns="http://www.w3.org/2000/svg">
<rect width="48" height="48" rx="14.4" fill="white"/>
<path fill-rule="evenodd" clip-rule="evenodd" d="M8.55078 23.9993C8.55078 32.5314 15.4672 39.4476 23.9991 39.4476C32.5309 39.4476 39.4473 32.5314 39.4473 23.9993C39.4473 15.4674 32.5309 8.55103 23.9991 8.55103C15.4672 8.55103 8.55078 15.4674 8.55078 23.9993Z" fill="white"/>
<path fill-rule="evenodd" clip-rule="evenodd" d="M24.0002 11.8621C30.7037 11.8621 36.1382 17.2965 36.1382 24C36.1382 30.7037 30.7037 36.1379 24.0002 36.1379C17.2968 36.1379 11.8623 30.7037 11.8623 24C11.8623 17.2965 17.2968 11.8621 24.0002 11.8621Z" fill="#1A8CFF"/>
<path opacity="0.5" d="M8 24C8 32.837 15.1633 40 24 40C32.8367 40 40 32.837 40 24C40 15.1633 32.8367 8 24 8C15.1633 8 8 15.1633 8 24ZM8.55172 24C8.55172 15.469 15.4673 8.55172 24 8.55172C32.5327 8.55172 39.4483 15.469 39.4483 24C39.4483 32.531 32.533 39.4483 24 39.4483C15.467 39.4483 8.55172 32.531 8.55172 24Z" fill="black"/>
<path fill-rule="evenodd" clip-rule="evenodd" d="M39.426 23.1723C39.4404 23.4462 39.4478 23.7224 39.4478 23.9999C39.4478 32.5318 32.5314 39.4482 23.9995 39.4482C15.4677 39.4482 8.55127 32.5318 8.55127 23.9999C8.55127 23.7224 8.55872 23.4462 8.57306 23.1723C9.00313 31.3193 15.7455 37.793 23.9995 37.793C32.1899 37.793 38.892 31.4189 39.4147 23.3604L39.426 23.1723ZM23.9995 10.2068C31.4649 10.2068 37.5168 16.2586 37.5168 23.724C37.5168 27.8978 35.6252 31.6294 32.6528 34.1091C35.1361 31.7927 36.6892 28.4915 36.6892 24.8275C36.6892 17.8192 31.0078 12.1378 23.9995 12.1378C16.9913 12.1378 11.3099 17.8192 11.3099 24.8275C11.3099 28.4915 12.8627 31.7927 15.346 34.1091C12.3739 31.6294 10.4823 27.8975 10.4823 23.724C10.4823 16.2586 16.5342 10.2068 23.9995 10.2068Z" fill="black" fill-opacity="0.052"/>
<path opacity="0.256" d="M24.0002 11.8621C30.7048 11.8621 36.1382 17.2974 36.1382 24C36.1382 30.7029 30.7048 36.1379 24.0002 36.1379C17.363 36.1379 11.971 30.811 11.864 24.2008L11.8623 24C11.8623 17.2974 17.2957 11.8621 24.0002 11.8621ZM24.0002 12.4138C17.6013 12.4138 12.414 17.6011 12.414 24C12.414 30.3992 17.6013 35.5862 24.0002 35.5862C30.3991 35.5862 35.5864 30.3992 35.5864 24C35.5864 17.6011 30.3991 12.4138 24.0002 12.4138Z" fill="black"/>
<path d="M24.062 14.3448C22.7847 14.3402 21.5191 14.5883 20.3381 15.075C19.1571 15.5617 18.0841 16.2772 17.1809 17.1804C16.2777 18.0836 15.5622 19.1566 15.0755 20.3376C14.5888 21.5186 14.3406 22.7842 14.3453 24.0615C14.3453 29.3525 18.6882 33.6551 24.062 33.6551C29.3329 33.6551 33.6556 29.3324 33.6556 24.0615C33.6556 18.6877 29.3527 14.3448 24.062 14.3448ZM24.0614 14.8965C29.028 14.8965 33.1039 18.9724 33.1039 24.0609C33.1039 29.0278 29.028 33.1034 24.0614 33.1034C18.9729 33.1034 14.897 29.0278 14.897 24.0609C14.8924 22.8562 15.1264 21.6624 15.5853 20.5485C16.0443 19.4345 16.7191 18.4224 17.571 17.5705C18.4229 16.7186 19.435 16.0438 20.549 15.5848C21.6629 15.1259 22.8567 14.892 24.0614 14.8965Z" fill="black" fill-opacity="0.25"/>
<path fill-rule="evenodd" clip-rule="evenodd" d="M24.061 14.8965C29.0276 14.8965 33.1034 18.9724 33.1034 24.061C33.1034 29.0279 29.0276 33.1034 24.061 33.1034C18.9724 33.1034 14.8965 29.0279 14.8965 24.061C14.892 22.8562 15.1259 21.6624 15.5849 20.5485C16.0438 19.4346 16.7187 18.4225 17.5706 17.5706C18.4225 16.7187 19.4346 16.0438 20.5485 15.5849C21.6624 15.1259 22.8562 14.892 24.061 14.8965Z" fill="#F7F7F7"/>
<path fill-rule="evenodd" clip-rule="evenodd" d="M28.1377 23.9993C28.1377 26.2845 26.285 28.1372 23.9997 28.1372C21.7145 28.1372 19.8618 26.2845 19.8618 23.9993C19.8618 21.714 21.7145 19.8613 23.9997 19.8613C26.285 19.8613 28.1377 21.714 28.1377 23.9993Z" fill="black" fill-opacity="0.05"/>
<path d="M24.0002 19.3103C21.4101 19.3103 19.3105 21.4099 19.3105 24C19.3105 26.59 21.4101 28.6896 24.0002 28.6896C26.5903 28.6896 28.6899 26.59 28.6899 24C28.6899 21.4099 26.5903 19.3103 24.0002 19.3103ZM24.0002 19.862C26.2854 19.862 28.1381 21.7147 28.1381 24C28.1381 26.2852 26.2854 28.1379 24.0002 28.1379C21.715 28.1379 19.8623 26.2852 19.8623 24C19.8623 21.7147 21.715 19.862 24.0002 19.862Z" fill="white"/>
<path d="M23.9997 19.8613C26.285 19.8613 28.1377 21.714 28.1377 23.9993C28.1377 26.2845 26.285 28.1372 23.9997 28.1372C21.7145 28.1372 19.8618 26.2845 19.8618 23.9993C19.8618 21.714 21.7145 19.8613 23.9997 19.8613ZM23.9997 20.4131C22.0191 20.4131 20.4135 22.0186 20.4135 23.9993C20.4135 25.9799 22.0191 27.5855 23.9997 27.5855C25.9804 27.5855 27.586 25.9799 27.586 23.9993C27.586 22.0186 25.9804 20.4131 23.9997 20.4131Z" fill="black" fill-opacity="0.15"/>
<path d="M25.5383 16.8276H22.4614C21.7794 16.8276 21.2412 17.4249 21.2412 18.1441V21.1212C21.2412 21.3921 21.3389 21.6536 21.516 21.85L21.9684 22.3518C21.9786 22.3634 21.9786 22.3962 21.9684 22.4081L21.516 22.9096C21.3377 23.1104 21.2398 23.3701 21.2412 23.6387V29.8563C21.2412 30.5752 21.7794 31.1725 22.4614 31.1725H25.5383C26.2203 31.1725 26.7585 30.5752 26.7585 29.856V26.8789C26.7598 26.6104 26.662 26.3509 26.4837 26.1501L26.0313 25.6483C26.0211 25.6367 26.0211 25.6039 26.0313 25.5921L26.4837 25.0905C26.662 24.8897 26.7599 24.63 26.7585 24.3614V18.1441C26.7585 17.4249 26.2203 16.8276 25.5383 16.8276ZM25.5033 17.3898C25.8917 17.3898 26.2067 17.7468 26.2067 18.1871V24.3592C26.2067 24.4999 26.1571 24.6351 26.0694 24.7349L25.6296 25.2332C25.4465 25.4406 25.4465 25.7772 25.6296 25.9849L26.0694 26.4828C26.1574 26.5824 26.2067 26.7176 26.2067 26.8585V29.813C26.2067 30.253 25.8917 30.6103 25.5033 30.6103H22.4964C22.108 30.6103 21.7929 30.253 21.7929 29.813V23.6406C21.7929 23.4999 21.8426 23.3647 21.9303 23.2649L22.3701 22.7667C22.5532 22.5592 22.5532 22.2227 22.3701 22.0149L21.9303 21.5173C21.8405 21.4127 21.7917 21.2791 21.7929 21.1413V18.1868C21.7929 17.7468 22.108 17.3896 22.4964 17.3896H25.5033V17.3898Z" fill="white"/>
<path fill-rule="evenodd" clip-rule="evenodd" d="M21.7925 21.1359V18.1773C21.7925 17.7362 22.1075 17.3787 22.4959 17.3787H25.5028C25.8913 17.3787 26.2063 17.7362 26.2063 18.177V24.3591C26.2074 24.497 26.1586 24.6306 26.0689 24.7354L25.6292 25.2347C25.446 25.4424 25.446 25.7792 25.6292 25.9872L26.0689 26.4862C26.1569 26.5861 26.2063 26.7216 26.2063 26.8625V29.8217C26.2063 30.2625 25.8913 30.62 25.5028 30.62H22.4959C22.1075 30.62 21.7925 30.2625 21.7925 29.8217V23.6396C21.7925 23.4987 21.8422 23.3632 21.9299 23.2634L22.3696 22.764C22.5528 22.5563 22.5528 22.2195 22.3696 22.0115L21.9299 21.5125C21.8402 21.4077 21.7914 21.2741 21.7925 21.1362V21.1359Z" fill="#0A2D4D"/>
<path d="M25.5028 17.3787C25.8913 17.3787 26.2063 17.7362 26.2063 18.177V24.3591C26.2074 24.497 26.1586 24.6306 26.0689 24.7354L25.6292 25.2347C25.446 25.4424 25.446 25.7792 25.6292 25.9872L26.0689 26.4862C26.1569 26.5861 26.2063 26.7216 26.2063 26.8625V29.8217C26.2063 30.2625 25.8913 30.62 25.5028 30.62H22.4959C22.1075 30.62 21.7925 30.2625 21.7925 29.8217V23.6396C21.7925 23.4987 21.8422 23.3632 21.9299 23.2634L22.3696 22.764C22.5528 22.5563 22.5528 22.2195 22.3696 22.0115L21.9299 21.5125C21.8402 21.4077 21.7914 21.2741 21.7925 21.1362V18.177C21.7925 17.7362 22.1075 17.3787 22.4959 17.3787H25.5028ZM25.4234 17.9453L22.5754 17.9417C22.4639 17.9417 22.3591 18.0465 22.3456 18.1944L22.3442 18.2269V21.1594C22.3442 21.1682 22.3462 21.1756 22.3484 21.1809L22.3522 21.1872L22.8132 21.6821C23.1735 22.0691 23.1856 22.6755 22.8504 23.0777L22.8132 23.1199L22.3525 23.6148C22.3497 23.6176 22.347 23.6234 22.3456 23.6308L22.3445 23.6427V29.7718C22.3445 29.926 22.4419 30.0407 22.5519 30.0554L22.5757 30.057L25.4237 30.0606C25.5351 30.0606 25.6399 29.956 25.6535 29.8079L25.6548 29.7756V26.8429C25.6549 26.8356 25.6535 26.8282 25.6507 26.8214L25.6468 26.8151L25.1862 26.3202C24.8259 25.9331 24.8137 25.3271 25.1489 24.9249L25.1862 24.8824L25.6468 24.3875C25.6496 24.3847 25.6524 24.3792 25.6537 24.3718L25.6548 24.3596V18.2305C25.6548 18.0766 25.5575 17.9616 25.4474 17.9469L25.4237 17.9453H25.4234Z" fill="black" fill-opacity="0.4"/>
</svg>
