<svg width="32" height="32" viewBox="0 0 32 32" fill="none" xmlns="http://www.w3.org/2000/svg">
<rect width="32" height="32" rx="9.6" fill="white"/>
<path d="M11.6291 13.2677L7.69401 9.3334C8.04365 8.94008 8.3937 8.54655 8.78703 8.1967L12.7217 12.1312L11.6291 13.2677ZM9.09299 7.93441C9.57388 7.4972 10.0985 7.14735 10.6669 6.79771L14.3828 10.5138L13.0277 11.8689L9.09299 7.93441ZM14.6453 10.2513L11.0165 6.62319C11.4972 6.3607 12.0222 6.1421 12.5466 5.96717L15.7379 9.15847L14.6453 10.2513ZM17.6616 10.5138L21.3771 6.79771C21.946 7.14735 22.4701 7.4972 22.9512 7.93441L19.0165 11.8689L17.6616 10.5138ZM20.4153 18.7756L24.35 22.7103C24.132 22.973 23.7379 23.3665 23.5197 23.6286C23.3882 23.7601 23.3449 23.8472 23.3011 23.8472L19.3668 19.913L20.4153 18.7756ZM19.0604 20.1316L22.9951 24.0658C22.514 24.5035 21.9896 24.8527 21.4212 25.2021L17.7055 21.4865L19.0604 20.1316ZM17.3994 21.7924L21.0277 25.4207C20.547 25.683 19.6287 26.0329 19.497 26.077L16.3061 22.8855L17.3994 21.7924ZM16.0436 23.1473L19.1045 26.2076C17.0932 26.8199 14.9512 26.8199 12.984 26.2076L16.0436 23.1473ZM14.3828 21.4865L10.6669 25.2021C10.0987 24.8527 9.57388 24.5035 9.09299 24.0658L13.0277 20.1316L14.3828 21.4865ZM17.9235 13.53L19.0165 12.4371L20.1094 13.53L19.0165 14.623L17.9235 13.53ZM14.1205 18.4697L13.0277 19.5627L11.9346 18.4697L13.0277 17.3767L14.1205 18.4697ZM11.7599 15.8909C11.6726 15.9783 11.6726 16.0656 11.7599 16.153L12.7215 17.1152L11.6289 18.2082L9.44284 15.9783L11.6289 13.7924L12.7215 14.8855L11.7599 15.8909ZM11.891 13.53L13.0277 12.3935L14.1205 13.4863L13.0277 14.5793L11.891 13.53ZM13.29 12.1748L14.6449 10.8195L15.7377 11.9126L14.3828 13.2679L13.29 12.1748ZM17.6616 13.2677L16.3065 11.9124L17.3996 10.8193L18.7545 12.1746L17.6616 13.2677ZM18.7545 19.8685L17.3996 21.2244L16.3065 20.1314L17.6616 18.7754L18.7545 19.8685ZM14.3828 18.7756L15.7377 20.1316L14.6449 21.2681L13.29 19.913L14.3828 18.7756ZM14.2517 16.153C14.3393 16.0656 14.3393 15.9783 14.2517 15.8909L13.2902 14.9289L14.383 13.8359L15.7379 15.1912L15.039 15.8909C14.9512 15.9783 14.9512 16.0656 15.039 16.153L15.7379 16.8527L14.383 18.2082L13.2902 17.1152L14.2517 16.153ZM15.4758 16.022L16.0436 15.4537L16.6123 16.022L16.0436 16.5898L15.4758 16.022ZM16.0436 17.1152L17.3994 18.4695L16.0436 19.825L14.6889 18.4695L16.0436 17.1152ZM17.7927 15.8909C17.7053 15.9783 17.7053 16.0656 17.7927 16.153L18.7543 17.1152L17.6614 18.2082L16.3063 16.8527L17.0058 16.153C17.0932 16.0656 17.0932 15.9783 17.0058 15.8909L16.3063 15.1912L17.6614 13.8359L18.7983 14.9289L17.7927 15.8909ZM14.6887 13.53L16.0434 12.1748L17.3991 13.53L16.0434 14.8853L14.6887 13.53ZM18.2295 16.022L19.0604 15.1914L19.8916 16.022L19.0604 16.8527L18.2295 16.022ZM13.8582 16.022L13.0277 16.8527L12.1969 16.022L13.0277 15.1914L13.8582 16.022ZM17.1365 21.4865L16.0436 22.5795L14.9512 21.4865L16.0436 20.3934L17.1365 21.4865ZM20.1534 18.4697L19.0604 19.5627L17.9676 18.4697L19.0604 17.3767L20.1534 18.4697ZM20.2843 16.153C20.3723 16.0656 20.3723 15.9783 20.2843 15.8909L19.3227 14.9289L20.4155 13.8359L22.6016 16.0218L20.4155 18.208L19.3227 17.115L20.2843 16.153ZM14.9075 10.5138L16.0006 9.42096L17.0932 10.5138L16.0006 11.6068L14.9075 10.5138ZM20.6784 18.4697L22.9951 16.153C23.0825 16.0656 23.0825 15.9783 22.9951 15.8909L20.6784 13.574L24.5688 9.68284C27.3662 13.4426 27.3662 18.645 24.5688 22.4042L20.6784 18.4697ZM9.00563 15.8909C8.91827 15.9783 8.91827 16.0656 9.00563 16.153L11.3227 18.4697L7.43213 22.3609C4.63395 18.6009 4.63395 13.3989 7.43213 9.63916L11.3227 13.53L9.00563 15.8909ZM12.7656 19.8685L8.83071 23.8029C8.43738 23.4537 8.08794 23.0602 7.7381 22.6666L11.6728 18.732L12.7656 19.8685ZM14.6453 21.7924L15.7379 22.8857L12.5466 26.0772C12.0222 25.9018 11.4972 25.6832 11.0165 25.4209L14.6453 21.7924ZM20.4153 13.2677L19.3225 12.1746L23.2572 8.24017C23.6511 8.59002 24.0008 8.98355 24.35 9.37667L20.4153 13.2677ZM16.3063 9.15827L19.4972 5.96697C20.0222 6.14189 20.5472 6.36029 21.0279 6.62299L17.3996 10.2513L16.3063 9.15827ZM12.9403 5.79204C14.9512 5.18032 17.0932 5.18032 19.0604 5.79204L16.0006 8.8521L12.9403 5.79204Z" fill="#21A6AA"/>
</svg>
