<svg width="48" height="48" viewBox="0 0 48 48" fill="none" xmlns="http://www.w3.org/2000/svg">
<rect width="48" height="48" rx="14.4" fill="white"/>
<path d="M17.4434 19.9016L11.5408 14.0002C12.0652 13.4102 12.5903 12.8199 13.1803 12.2952L19.0823 18.1969L17.4434 19.9016ZM13.6392 11.9017C14.3606 11.2459 15.1474 10.7212 16.0001 10.1967L21.5739 15.7708L19.5413 17.8035L13.6392 11.9017ZM21.9677 15.3771L16.5246 9.93491C17.2456 9.54118 18.0331 9.21327 18.8196 8.95088L23.6066 13.7378L21.9677 15.3771ZM26.4922 15.7708L32.0654 10.1967C32.9187 10.7212 33.7049 11.2459 34.4266 11.9017L28.5246 17.8035L26.4922 15.7708ZM30.6227 28.1636L36.5248 34.0656C36.1978 34.4597 35.6066 35.0499 35.2793 35.4431C35.0821 35.6402 35.0172 35.771 34.9514 35.771L29.05 29.8696L30.6227 28.1636ZM28.5904 30.1975L34.4924 36.0989C33.7708 36.7553 32.9842 37.2792 32.1315 37.8033L26.558 32.2298L28.5904 30.1975ZM26.0988 32.6888L31.5412 38.1312C30.8202 38.5246 29.4428 39.0494 29.2453 39.1156L24.4589 34.3283L26.0988 32.6888ZM24.0652 34.7211L28.6565 39.3115C25.6395 40.23 22.4266 40.23 19.4757 39.3115L24.0652 34.7211ZM21.5739 32.2298L16.0001 37.8033C15.1477 37.2792 14.3606 36.7553 13.6392 36.0989L19.5413 30.1975L21.5739 32.2298ZM26.885 20.2951L28.5246 18.6558L30.1638 20.2951L28.5246 21.9346L26.885 20.2951ZM21.1805 27.7046L19.5413 29.3442L17.9017 27.7046L19.5413 26.0651L21.1805 27.7046ZM17.6396 23.8365C17.5086 23.9675 17.5086 24.0986 17.6396 24.2296L19.082 25.6729L17.4431 27.3124L14.164 23.9675L17.4431 20.6888L19.082 22.3283L17.6396 23.8365ZM17.8362 20.2951L19.5413 18.5903L21.1805 20.2295L19.5413 21.8691L17.8362 20.2951ZM19.9347 18.2624L21.967 16.2294L23.6063 17.869L21.5739 19.9019L19.9347 18.2624ZM26.4922 19.9016L24.4596 17.8687L26.0991 16.2291L28.1314 18.2621L26.4922 19.9016ZM28.1314 29.8028L26.0991 31.8367L24.4596 30.1972L26.4922 28.1633L28.1314 29.8028ZM21.5739 28.1636L23.6063 30.1975L21.967 31.9022L19.9347 29.8696L21.5739 28.1636ZM21.3774 24.2296C21.5087 24.0986 21.5087 23.9675 21.3774 23.8365L19.935 22.3935L21.5742 20.754L23.6066 22.787L22.5583 23.8365C22.4266 23.9675 22.4266 24.0986 22.5583 24.2296L23.6066 25.2792L21.5742 27.3124L19.935 25.6729L21.3774 24.2296ZM23.2135 24.0331L24.0652 23.1807L24.9182 24.0331L24.0652 24.8848L23.2135 24.0331ZM24.0652 25.6729L26.0988 27.7043L24.0652 29.7376L22.0332 27.7043L24.0652 25.6729ZM26.6888 23.8365C26.5577 23.9675 26.5577 24.0986 26.6888 24.2296L28.1311 25.6729L26.4919 27.3124L24.4593 25.2792L25.5085 24.2296C25.6395 24.0986 25.6395 23.9675 25.5085 23.8365L24.4593 22.787L26.4919 20.754L28.1973 22.3935L26.6888 23.8365ZM22.0329 20.2951L24.0649 18.2624L26.0985 20.2951L24.0649 22.328L22.0329 20.2951ZM27.344 24.0331L28.5904 22.7873L29.8371 24.0331L28.5904 25.2792L27.344 24.0331ZM20.7871 24.0331L19.5413 25.2792L18.2952 24.0331L19.5413 22.7873L20.7871 24.0331ZM25.7044 32.2298L24.0652 33.8694L22.4266 32.2298L24.0652 30.5903L25.7044 32.2298ZM30.2299 27.7046L28.5904 29.3442L26.9512 27.7046L28.5904 26.0651L30.2299 27.7046ZM30.4262 24.2296C30.5581 24.0986 30.5581 23.9675 30.4262 23.8365L28.9838 22.3935L30.623 20.754L33.9021 24.0328L30.623 27.3121L28.9838 25.6726L30.4262 24.2296ZM22.3611 15.7708L24.0006 14.1316L25.6395 15.7708L24.0006 17.4103L22.3611 15.7708ZM31.0174 27.7046L34.4924 24.2296C34.6234 24.0986 34.6234 23.9675 34.4924 23.8365L31.0174 20.3612L36.853 14.5244C41.049 20.164 41.049 27.9676 36.853 33.6064L31.0174 27.7046ZM13.5082 23.8365C13.3772 23.9675 13.3772 24.0986 13.5082 24.2296L16.9838 27.7046L11.148 33.5414C6.95068 27.9015 6.95068 20.0985 11.148 14.4589L16.9838 20.2951L13.5082 23.8365ZM19.1481 29.8028L13.2458 35.7045C12.6558 35.1807 12.1317 34.5904 11.6069 34.0001L17.5089 28.0981L19.1481 29.8028ZM21.9677 32.6888L23.6066 34.3286L18.8196 39.1159C18.0331 38.8529 17.2456 38.525 16.5246 38.1315L21.9677 32.6888ZM30.6227 19.9016L28.9835 18.2621L34.8855 12.3604C35.4764 12.8852 36.0009 13.4754 36.5248 14.0651L30.6227 19.9016ZM24.4593 13.7375L29.2456 8.95058C30.0331 9.21296 30.8205 9.54056 31.5416 9.93461L26.0991 15.3771L24.4593 13.7375ZM19.4102 8.68819C22.4266 7.7706 25.6395 7.7706 28.5904 8.68819L24.0006 13.2783L19.4102 8.68819Z" fill="#21A6AA"/>
</svg>
