<svg width="32" height="32" viewBox="0 0 32 32" fill="none" xmlns="http://www.w3.org/2000/svg">
<g clip-path="url(#clip0)">
<rect width="32" height="32" rx="9.6" fill="url(#paint0_linear)"/>
<g clip-path="url(#clip1)">
<path d="M14.7117 18.8434C14.7272 18.8456 14.7305 18.8463 14.7456 18.8483C14.9978 18.8844 15.2456 18.9322 15.4352 19.0213C15.611 19.103 15.7141 19.2063 15.8081 19.3904C15.9512 19.6696 15.9605 20.0608 15.8312 20.3569C15.7347 20.5772 15.5227 20.7619 15.3291 20.8598C15.1282 20.9623 14.9302 21.0111 14.703 21.0383C14.3058 21.0843 13.8768 20.9978 13.5194 20.816C13.308 20.7074 13.0498 20.5204 12.9195 20.2794C12.8237 20.1029 12.8268 19.8732 12.9433 19.7055C13.1291 19.4381 13.5269 19.3792 13.8266 19.3904C14.055 19.3997 14.4664 19.474 14.6833 19.5551C14.7434 19.578 14.9651 19.6688 15.0038 19.7105C15.0311 19.7395 15.0487 19.7816 15.0365 19.8205C14.9869 19.9799 14.6186 20.064 14.5122 20.0808C14.2274 20.1267 14.0797 20.0134 13.7559 19.879C13.6756 19.8459 13.5685 19.8091 13.4867 19.8012C13.3397 19.7865 13.1622 19.8297 13.1341 19.9985C13.1202 20.0854 13.2171 20.1668 13.2911 20.201C13.4647 20.2794 13.6059 20.3076 13.7768 20.31C14.2817 20.3188 14.8491 20.2314 15.2621 19.9236C15.3187 19.8812 15.3742 19.8191 15.3748 19.7408C15.3766 19.5827 15.113 19.486 15.113 19.486C14.8348 19.364 14.3208 19.3047 14.056 19.2817C13.7781 19.2564 13.3409 19.2186 13.236 19.2023C13.1279 19.1861 13.0105 19.1632 12.9169 19.1191C12.8228 19.0744 12.7309 18.9744 12.7036 18.8638C12.6552 18.6644 12.7169 18.4198 12.8222 18.2605C13.0981 17.8433 13.7445 17.6848 14.2274 17.6219C14.6948 17.5607 15.4504 17.5613 15.9094 17.8179C15.9803 17.8578 16.0165 17.895 16.0017 17.9747C15.9718 18.1243 15.8649 18.2207 15.7353 18.263C15.5993 18.3085 15.3181 18.3262 15.1946 18.3344C14.6412 18.367 13.9724 18.3499 13.4452 18.5011C13.4039 18.5135 13.3326 18.5337 13.3094 18.5609C13.2269 18.6551 13.4626 18.6821 13.513 18.6928C13.5281 18.6966 13.531 18.6971 13.5466 18.6989L14.7117 18.8434ZM11.4192 16.2479C11.4192 16.2479 11.5092 16.106 11.5846 15.9982C11.722 15.8021 11.9705 15.53 12.1577 15.3615C12.215 15.3101 12.2825 15.2518 12.2825 15.2518C12.2825 15.2518 12.1769 15.2633 12.117 15.2762C11.975 15.3052 11.7668 15.4508 11.6627 15.5449C11.4911 15.6994 11.3022 15.9507 11.3877 16.174C11.4001 16.2055 11.4192 16.2479 11.4192 16.2479ZM12.3736 16.5166C12.6449 16.4969 12.8989 16.4148 13.1355 16.2768C13.3675 16.1403 13.7087 15.8741 13.6733 15.5611C13.6625 15.4598 13.5995 15.3833 13.5199 15.3476C13.4164 15.3005 13.3625 15.3081 13.2303 15.3494C13.1343 15.3789 13.091 15.3969 13.0004 15.4514C12.7343 15.614 12.357 15.962 12.1522 16.2397C12.1049 16.3052 12.057 16.3784 12.0196 16.4286C11.9959 16.4596 11.9776 16.488 11.9799 16.4955C11.9881 16.527 12.2677 16.5241 12.3736 16.5166ZM11.683 17.05C11.6551 17.0812 11.6255 17.1562 11.5948 17.2105C11.5784 17.2396 11.548 17.277 11.5279 17.292C11.4573 17.3466 11.3975 17.3492 11.3294 17.2861C11.2338 17.1972 11.1785 17.0597 11.1746 16.9259C11.1726 16.8676 11.1821 16.803 11.1716 16.7538C11.1542 16.6707 11.0751 16.5852 11.0325 16.5057C10.9825 16.4122 10.942 16.249 10.937 16.1437C10.9198 15.8153 11.0844 15.5127 11.2982 15.2741C11.5136 15.0328 11.7953 14.8323 12.1017 14.6958C12.3914 14.5675 12.8158 14.48 13.1338 14.5958C13.2374 14.6332 13.3816 14.7258 13.4541 14.8229C13.4695 14.8431 13.4821 14.8649 13.4979 14.8755C13.512 14.885 13.549 14.8887 13.5784 14.8944C13.6799 14.9129 13.8259 14.9937 13.8856 15.0475C14.0055 15.1562 14.0711 15.2602 14.1015 15.411C14.1624 15.7146 13.9962 16.0476 13.8069 16.2503C13.4827 16.5991 13.1626 16.8444 12.7479 17.0151C12.5658 17.09 12.2821 17.1599 12.0755 17.1403C12.0113 17.1347 11.9454 17.1169 11.8829 17.1126C11.851 17.1097 11.7344 17.0781 11.722 17.0692C11.7065 17.0567 11.6865 17.0458 11.683 17.05ZM12.0534 17.723C12.066 17.7253 12.0855 17.7312 12.1022 17.738C12.2476 17.7962 12.3074 17.9377 12.3432 18.0931C12.4262 18.454 12.4616 19.2524 12.4754 19.565C12.4856 19.7995 12.4912 20.0303 12.5005 20.2622C12.5084 20.4585 12.5233 20.7196 12.4844 20.9036C12.4703 20.9697 12.4282 21.0467 12.3679 21.0861C12.2989 21.1325 12.1418 21.1361 12.0554 21.1173C11.8426 21.0711 11.7734 20.9271 11.7431 20.7057C11.6708 20.1775 11.7056 19.1407 11.7482 18.7032C11.7624 18.5587 11.8141 18.0958 11.8859 17.9016C11.9104 17.8362 11.9625 17.7043 12.0534 17.723ZM5.57801 18.602C5.57801 18.602 5.26122 18.6255 5.04319 18.651C4.76579 18.6824 4.24457 18.7771 3.94371 18.89C3.85347 18.924 3.67015 19.0047 3.65422 19.1023C3.63748 19.2035 3.69717 19.2826 3.76356 19.3644C3.80195 19.4119 4.01923 19.6317 4.08016 19.6852C4.33554 19.9094 4.8534 20.2552 5.23482 20.4232C5.36586 20.4802 5.58263 20.5618 5.58263 20.5618C5.58263 20.5618 5.56653 19.9127 5.56942 19.2732C5.5711 18.9359 5.57801 18.602 5.57801 18.602ZM11.3867 18.8603C11.4049 19.0347 11.3623 19.3644 11.3549 19.4079C11.3414 19.5081 11.2695 19.7394 11.2576 19.7676C11.1995 19.9081 11.1423 20.0232 11.0817 20.1381C10.9778 20.3347 10.7308 20.6464 10.5842 20.7798C10.0389 21.2755 9.19474 21.5577 8.47055 21.6507C7.97915 21.7131 7.41451 21.704 6.89382 21.6026C6.71462 21.5684 6.44795 21.5037 6.44795 21.5037C6.44795 21.5037 6.44881 21.6159 6.44027 21.6947C6.43613 21.7307 6.41037 21.8254 6.39592 21.8561C6.35807 21.9383 6.29591 21.9808 6.20552 21.999C6.09643 22.0203 5.98074 22.0274 5.87994 21.9821C5.71443 21.9089 5.65501 21.746 5.62617 21.5582C5.60285 21.408 5.57843 21.1469 5.57843 21.1469C5.57843 21.1469 5.45462 21.0852 5.35138 21.031C5.03428 20.8667 4.73311 20.6676 4.46963 20.4629C4.39664 20.4056 4.08304 20.1293 4.01382 20.0608C3.81973 19.867 3.64512 19.6742 3.51229 19.4268C3.40902 19.2335 3.37929 19.062 3.45783 18.8572C3.56613 18.5718 3.95525 18.3569 4.22156 18.2344C4.41702 18.1436 5.02482 17.9349 5.27729 17.8962C5.39655 17.8783 5.58151 17.8434 5.59288 17.8357C5.59753 17.8319 5.60075 17.8288 5.60411 17.8247C5.60993 17.8161 5.61976 17.5335 5.61786 17.4302C5.61539 17.3286 5.68937 16.6611 5.71314 16.52C5.72555 16.4436 5.78051 16.1498 5.83662 16.0727C5.87333 16.0206 5.93823 16.0248 5.99115 16.059C6.28073 16.2484 6.36871 16.9051 6.39024 17.2393C6.40312 17.4429 6.40953 17.7492 6.40953 17.7492C6.40953 17.7492 6.74172 17.7388 6.94607 17.7449C7.14464 17.7498 7.36352 17.7827 7.56963 17.8173C7.8335 17.8618 8.34783 17.9798 8.64281 18.137C8.88571 18.2666 9.11307 18.4848 9.18674 18.7157C9.25517 18.9274 9.24492 19.0739 9.14068 19.2649C9.02347 19.4807 8.80176 19.641 8.57698 19.6544C8.51009 19.6585 8.25831 19.6233 8.18084 19.5602C8.15046 19.5351 8.15203 19.4897 8.17395 19.4589C8.18227 19.4481 8.29995 19.3823 8.36942 19.3439C8.40425 19.324 8.43306 19.3025 8.46025 19.2765C8.51796 19.223 8.5699 19.1642 8.5641 19.0952C8.55612 19.0057 8.46605 18.9505 8.3802 18.915C7.97739 18.7467 7.17315 18.607 6.78451 18.5828C6.63238 18.5734 6.416 18.5654 6.416 18.5654L6.46175 20.8224C6.46175 20.8224 6.64064 20.8582 6.78162 20.8823C6.86251 20.8952 7.20526 20.9276 7.29635 20.93C7.98985 20.9492 8.76388 20.8839 9.40032 20.5681C9.67973 20.4298 9.93607 20.2576 10.1301 20.0245C10.3859 19.7161 10.5199 19.294 10.4844 18.8532C10.4456 18.3717 10.1234 17.8002 9.86607 17.4521C9.18626 16.5327 8.02099 15.7764 6.99579 15.3329C5.94915 14.8805 4.91472 14.6203 3.80394 14.5767C3.51758 14.5655 2.89321 14.5807 2.57759 14.6726C2.53251 14.6859 2.48707 14.7019 2.44521 14.7118C2.41214 14.7203 2.36003 14.7433 2.34572 14.7555C2.3378 14.7622 2.32996 14.7716 2.32996 14.7716C2.32996 14.7716 2.34942 14.7829 2.36801 14.7911C2.40144 14.8065 2.54217 14.8157 2.615 14.8297C2.68016 14.8426 2.748 14.8786 2.77485 14.9288C2.80036 14.9765 2.80355 15.0142 2.77306 15.054C2.70155 15.1454 2.43238 15.13 2.31386 15.1103C2.19069 15.0896 2.03733 15.05 2.00916 14.9372C1.97649 14.8044 2.03649 14.6741 2.10131 14.5538C2.23154 14.3129 2.41808 14.1876 2.69124 14.1092C3.07924 13.9969 3.56916 13.9184 3.93554 13.9037C4.76478 13.8707 5.54962 14.0232 6.35308 14.2798C6.81293 14.426 7.41495 14.6714 7.8557 14.8946C8.17196 15.055 8.67025 15.3499 8.95016 15.5426C9.03845 15.6039 9.55508 16.0031 9.63532 16.0733C9.80274 16.2172 10.0217 16.4241 10.1803 16.5896C10.487 16.9093 10.8686 17.3994 11.0539 17.7884C11.0985 17.8815 11.1331 17.9731 11.1906 18.0811C11.2104 18.1181 11.2951 18.3393 11.3092 18.4032C11.3231 18.4664 11.3436 18.5593 11.3465 18.563C11.3505 18.597 11.3898 18.787 11.3867 18.8603ZM21.8118 18.3613C21.4234 18.4554 20.4022 18.5077 20.4022 18.5077L20.2735 18.9319C20.2735 18.9319 20.7838 18.8861 21.1551 18.9269C21.1551 18.9269 21.2753 18.9122 21.2895 19.0705C21.2943 19.2182 21.2776 19.3766 21.2776 19.3766C21.2776 19.3766 21.2699 19.4725 21.1407 19.4968C21.0007 19.5214 20.0407 19.5604 20.0407 19.5604L19.8853 20.1134C19.8853 20.1134 19.8275 20.2412 19.957 20.2047C20.0773 20.1709 21.0831 19.9724 21.2142 20.0009C21.3546 20.0376 21.5099 20.2344 21.465 20.4138C21.4115 20.6362 20.4075 21.3096 19.7962 21.2626C19.7962 21.2626 19.4749 21.2844 19.2033 20.8284C18.9504 20.3938 19.2992 19.5711 19.2992 19.5711C19.2992 19.5711 19.1393 19.187 19.2552 19.0568C19.2552 19.0568 19.3241 18.991 19.5251 18.9761L19.7711 18.4408C19.7711 18.4408 19.4908 18.4611 19.3241 18.2442C19.1688 18.0385 19.1558 17.9439 19.2749 17.8871C19.4022 17.821 20.5694 17.5969 21.3726 17.6254C21.3726 17.6254 21.6517 17.5965 21.8938 18.1057C21.8939 18.1058 22.0111 18.3117 21.8118 18.3613ZM18.7908 20.4198C18.6879 20.6745 18.416 20.9462 18.0782 20.7773C17.7447 20.608 17.2136 19.4647 17.2136 19.4647C17.2136 19.4647 17.012 19.0384 16.9732 19.0494C16.9732 19.0494 16.9296 18.9662 16.9029 19.432C16.8751 19.8959 16.9083 20.8005 16.7323 20.9428C16.5656 21.0856 16.3638 21.0288 16.2591 20.862C16.164 20.6977 16.1244 20.3072 16.1763 19.6215C16.2373 18.9344 16.3891 18.2034 16.583 17.9758C16.7766 17.7497 16.9321 17.9138 16.9927 17.9733C16.9927 17.9733 17.2517 18.2202 17.6788 18.9452L17.7541 19.0793C17.7541 19.0793 18.1423 19.7642 18.1828 19.7626C18.1828 19.7626 18.2146 19.7941 18.2428 19.7715C18.2836 19.7593 18.2671 19.5396 18.2671 19.5396C18.2671 19.5396 18.1866 18.7932 17.8325 17.5298C17.8325 17.5298 17.779 17.3722 17.8152 17.2246C17.8511 17.0754 17.9933 17.1455 17.9933 17.1455C17.9933 17.1455 18.5421 17.4357 18.8085 18.3754C19.0731 19.3154 18.8953 20.1633 18.7908 20.4198ZM24.6973 19.857C24.4475 20.3154 23.7422 21.2753 22.8049 21.0487C22.4954 21.838 22.2354 22.6366 22.0867 23.8314C22.0867 23.8314 22.054 24.0636 21.8706 23.983C21.6887 23.916 21.3892 23.5981 21.3286 23.1582C21.2634 22.5804 21.508 21.6037 22.0079 20.4837C21.8621 20.2344 21.7627 19.8783 21.8478 19.3712C21.8478 19.3712 21.9734 18.4295 22.8726 17.5807C22.8726 17.5807 22.9804 17.4828 23.0429 17.513C23.1118 17.5433 23.0799 17.8497 23.0253 17.9988C22.9685 18.1469 22.5682 18.8758 22.5682 18.8758C22.5682 18.8758 22.3184 19.3683 22.3887 19.7567C22.8603 18.9941 23.9325 17.4563 24.597 17.9412C24.8202 18.1092 24.9231 18.4745 24.9231 18.8682C24.9232 19.214 24.8439 19.5816 24.6973 19.857ZM24.5033 18.6493C24.5033 18.6493 24.4664 18.3461 24.1845 18.6801C23.9421 18.962 23.5048 19.4901 23.1529 20.2074C23.5222 20.1638 23.8784 19.953 23.9861 19.8457C24.1612 19.6823 24.5691 19.239 24.5033 18.6493ZM29.8605 18.5802H28.1428C28.1085 17.9662 28.038 17.3681 27.9272 16.7521C27.9159 16.6884 27.8631 16.6421 27.8017 16.6421H27.4057C27.3712 16.6421 27.3386 16.6584 27.3163 16.6868C27.2939 16.7157 27.2851 16.7525 27.2917 16.7885C27.4042 17.3845 27.4755 17.9712 27.5107 18.5808H25.8581C25.7811 18.5808 25.7185 18.6464 25.7185 18.7271V19.1027C25.7185 19.1835 25.7811 19.2496 25.8581 19.2496H27.5343C27.5354 19.3423 27.5362 19.4253 27.5362 19.5032C27.5362 20.0445 27.514 20.4905 27.4622 20.9938C27.4581 21.0327 27.4702 21.0714 27.4952 21.0999C27.5195 21.1287 27.5546 21.1451 27.5909 21.1451H27.9582C28.0299 21.1451 28.0892 21.0884 28.0964 21.0133C28.1466 20.5066 28.1681 20.0551 28.1681 19.5031C28.1681 19.4255 28.1673 19.3422 28.1662 19.2495H29.8605C29.9373 19.2495 30 19.1835 30 19.1027V18.727C30 18.646 29.9373 18.5802 29.8605 18.5802Z" fill="white"/>
<path d="M6.89199 13.5467C6.86766 13.5847 6.86178 13.6314 6.87575 13.6752C6.89034 13.719 6.92207 13.7523 6.96306 13.7674L7.27097 13.8764C7.28959 13.8825 7.3081 13.8857 7.32625 13.8857C7.38331 13.8857 7.43687 13.856 7.4686 13.8061C8.47721 12.2478 9.84227 10.9503 11.4164 10.0539C13.0416 9.12834 14.8828 8.63878 16.7417 8.63878C18.987 8.63878 21.1533 9.33533 23.0067 10.653C24.8152 11.9383 26.2196 13.7314 27.0684 15.8387C27.0937 15.9018 27.1523 15.9425 27.2172 15.9425H27.585C27.6273 15.9425 27.6672 15.92 27.6911 15.8828C27.7152 15.8456 27.7197 15.7984 27.7037 15.7566C26.8286 13.4909 25.3487 11.5594 23.4234 10.1717C21.4525 8.75106 19.142 8 16.7417 8C12.7735 8 9.09126 10.0736 6.89199 13.5467Z" fill="url(#paint1_linear)"/>
</g>
</g>
<defs>
<linearGradient id="paint0_linear" x1="16" y1="0" x2="16" y2="32" gradientUnits="userSpaceOnUse">
<stop stop-color="#07092D"/>
<stop offset="0.682292" stop-color="#113D89"/>
<stop offset="1" stop-color="#165CBF"/>
</linearGradient>
<linearGradient id="paint1_linear" x1="8.83314" y1="9.08082" x2="27.3962" y2="16.2811" gradientUnits="userSpaceOnUse">
<stop stop-color="#101C50"/>
<stop offset="0.236" stop-color="#0D267A"/>
<stop offset="0.4973" stop-color="#085AA4"/>
<stop offset="0.6549" stop-color="#058BBF"/>
<stop offset="1" stop-color="#B1FFFF"/>
</linearGradient>
<clipPath id="clip0">
<rect width="32" height="32" fill="white"/>
</clipPath>
<clipPath id="clip1">
<rect width="28" height="16" fill="white" transform="translate(2 8)"/>
</clipPath>
</defs>
</svg>
