<svg width="40" height="40" viewBox="0 0 40 40" fill="none" xmlns="http://www.w3.org/2000/svg">
<g clip-path="url(#clip0)">
<rect width="40" height="40" rx="12" fill="url(#paint0_linear)"/>
<g clip-path="url(#clip1)">
<path d="M18.3896 23.5542C18.4089 23.557 18.4131 23.5578 18.432 23.5604C18.7472 23.6055 19.057 23.6652 19.2941 23.7767C19.5138 23.8787 19.6426 24.0078 19.7602 24.238C19.939 24.587 19.9507 25.076 19.7891 25.4461C19.6684 25.7215 19.4034 25.9524 19.1614 26.0748C18.9102 26.2029 18.6627 26.2638 18.3788 26.2979C17.8823 26.3554 17.3461 26.2472 16.8993 26.02C16.635 25.8842 16.3122 25.6505 16.1494 25.3493C16.0296 25.1286 16.0335 24.8416 16.1791 24.6319C16.4113 24.2976 16.9086 24.2241 17.2832 24.238C17.5688 24.2496 18.083 24.3425 18.3541 24.4439C18.4292 24.4725 18.7064 24.586 18.7548 24.6381C18.7888 24.6743 18.8109 24.727 18.7956 24.7756C18.7337 24.9749 18.2732 25.08 18.1403 25.1011C17.7843 25.1584 17.5996 25.0167 17.1949 24.8487C17.0945 24.8073 16.9606 24.7614 16.8583 24.7515C16.6746 24.7331 16.4527 24.7872 16.4177 24.9981C16.4002 25.1068 16.5214 25.2085 16.6139 25.2512C16.8309 25.3493 17.0074 25.3845 17.221 25.3876C17.8522 25.3985 18.5614 25.2892 19.0777 24.9045C19.1483 24.8515 19.2177 24.7739 19.2185 24.676C19.2207 24.4784 18.8912 24.3575 18.8912 24.3575C18.5435 24.2051 17.901 24.1308 17.57 24.1022C17.2227 24.0706 16.6762 24.0233 16.545 24.0029C16.4099 23.9827 16.2631 23.954 16.1461 23.8988C16.0286 23.843 15.9136 23.718 15.8795 23.5798C15.8189 23.3305 15.8962 23.0247 16.0278 22.8256C16.3727 22.3041 17.1807 22.106 17.7843 22.0274C18.3685 21.9509 19.313 21.9517 19.8868 22.2724C19.9754 22.3223 20.0206 22.3688 20.0021 22.4684C19.9647 22.6554 19.8311 22.7759 19.6691 22.8287C19.4992 22.8856 19.1477 22.9077 18.9933 22.918C18.3015 22.9588 17.4655 22.9374 16.8065 23.1264C16.7549 23.1419 16.6657 23.1671 16.6368 23.2012C16.5336 23.3189 16.8282 23.3526 16.8913 23.3661C16.9101 23.3708 16.9137 23.3714 16.9333 23.3737L18.3896 23.5542ZM14.274 20.3099C14.274 20.3099 14.3865 20.1325 14.4808 19.9978C14.6525 19.7526 14.9632 19.4125 15.1971 19.2019C15.2687 19.1376 15.3531 19.0648 15.3531 19.0648C15.3531 19.0648 15.2211 19.0791 15.1463 19.0952C14.9688 19.1316 14.7085 19.3135 14.5784 19.4311C14.3638 19.6243 14.1278 19.9384 14.2346 20.2175C14.2501 20.2569 14.274 20.3099 14.274 20.3099ZM15.4671 20.6457C15.8061 20.6211 16.1237 20.5185 16.4194 20.346C16.7093 20.1753 17.1359 19.8426 17.0916 19.4514C17.0782 19.3248 16.9994 19.2292 16.8999 19.1846C16.7705 19.1256 16.7031 19.1351 16.5379 19.1868C16.4179 19.2237 16.3638 19.2461 16.2505 19.3143C15.9179 19.5176 15.4463 19.9525 15.1902 20.2996C15.1312 20.3815 15.0713 20.473 15.0245 20.5358C14.9949 20.5745 14.972 20.61 14.9749 20.6194C14.9851 20.6588 15.3347 20.6552 15.4671 20.6457ZM14.6038 21.3126C14.5689 21.3515 14.5319 21.4453 14.4935 21.5132C14.473 21.5495 14.435 21.5963 14.4099 21.6151C14.3216 21.6833 14.2469 21.6865 14.1617 21.6076C14.0422 21.4965 13.9732 21.3246 13.9683 21.1575C13.9657 21.0845 13.9776 21.0038 13.9645 20.9423C13.9427 20.8384 13.8439 20.7315 13.7907 20.6322C13.7281 20.5152 13.6775 20.3113 13.6712 20.1796C13.6498 19.7691 13.8555 19.3909 14.1228 19.0927C14.392 18.791 14.7442 18.5404 15.1272 18.3697C15.4892 18.2093 16.0197 18.1 16.4173 18.2448C16.5467 18.2915 16.7271 18.4073 16.8177 18.5287C16.8369 18.5538 16.8526 18.5811 16.8723 18.5944C16.89 18.6063 16.9363 18.6109 16.973 18.618C17.0998 18.6412 17.2824 18.7421 17.357 18.8094C17.5068 18.9453 17.5889 19.0752 17.6269 19.2638C17.703 19.6433 17.4953 20.0595 17.2586 20.3129C16.8534 20.7489 16.4533 21.0555 15.9349 21.2689C15.7073 21.3625 15.3527 21.4499 15.0944 21.4254C15.0142 21.4184 14.9318 21.3962 14.8536 21.3907C14.8138 21.3871 14.668 21.3476 14.6525 21.3365C14.6331 21.3208 14.6082 21.3073 14.6038 21.3126ZM15.0668 22.1538C15.0825 22.1566 15.1069 22.164 15.1278 22.1725C15.3095 22.2452 15.3843 22.4221 15.429 22.6164C15.5328 23.0675 15.5771 24.0655 15.5943 24.4562C15.607 24.7494 15.614 25.0379 15.6256 25.3277C15.6355 25.5732 15.6542 25.8995 15.6055 26.1295C15.5878 26.2122 15.5352 26.3084 15.4599 26.3576C15.3736 26.4157 15.1773 26.4201 15.0693 26.3967C14.8032 26.3388 14.7168 26.1589 14.6788 25.8822C14.5886 25.2218 14.632 23.9259 14.6853 23.3791C14.703 23.1984 14.7677 22.6197 14.8574 22.3771C14.888 22.2952 14.9532 22.1304 15.0668 22.1538ZM6.97253 23.2525C6.97253 23.2525 6.57654 23.2819 6.30399 23.3138C5.95725 23.353 5.30572 23.4713 4.92965 23.6126C4.81684 23.655 4.5877 23.7559 4.56778 23.8779C4.54685 24.0043 4.62147 24.1032 4.70446 24.2055C4.75244 24.2649 5.02404 24.5397 5.1002 24.6065C5.41944 24.8868 6.06676 25.3191 6.54353 25.529C6.70733 25.6002 6.9783 25.7023 6.9783 25.7023C6.9783 25.7023 6.95818 24.8909 6.96178 24.0916C6.96388 23.6699 6.97253 23.2525 6.97253 23.2525ZM14.2334 23.5754C14.2561 23.7934 14.2028 24.2055 14.1936 24.2599C14.1767 24.3852 14.0869 24.6742 14.072 24.7095C13.9994 24.8851 13.9279 25.0291 13.8522 25.1726C13.7223 25.4184 13.4135 25.808 13.2302 25.9748C12.5486 26.5944 11.4934 26.9472 10.5882 27.0634C9.97395 27.1414 9.26814 27.13 8.61728 27.0033C8.39328 26.9605 8.05994 26.8797 8.05994 26.8797C8.05994 26.8797 8.06102 27.0198 8.05035 27.1184C8.04517 27.1634 8.01297 27.2818 7.99491 27.3201C7.94759 27.4229 7.86989 27.476 7.75691 27.4988C7.62055 27.5254 7.47593 27.5343 7.34993 27.4776C7.14305 27.3861 7.06878 27.1825 7.03273 26.9478C7.00357 26.76 6.97305 26.4336 6.97305 26.4336C6.97305 26.4336 6.81828 26.3565 6.68924 26.2888C6.29286 26.0834 5.9164 25.8345 5.58705 25.5786C5.49581 25.507 5.10381 25.1617 5.01729 25.076C4.77467 24.8337 4.55641 24.5927 4.39037 24.2835C4.26129 24.0419 4.22412 23.8275 4.32229 23.5715C4.45767 23.2147 4.94407 22.9461 5.27695 22.793C5.52129 22.6796 6.28103 22.4187 6.59663 22.3703C6.74569 22.3479 6.9769 22.3043 6.99111 22.2946C6.99692 22.2899 7.00095 22.286 7.00515 22.2809C7.01243 22.2701 7.02471 21.9169 7.02233 21.7877C7.01925 21.6607 7.11172 20.8264 7.14144 20.65C7.15694 20.5545 7.22565 20.1873 7.29579 20.0909C7.34167 20.0257 7.4228 20.031 7.48895 20.0737C7.85092 20.3105 7.96089 21.1314 7.98781 21.5491C8.00391 21.8036 8.01192 22.1865 8.01192 22.1865C8.01192 22.1865 8.42716 22.1735 8.68259 22.1812C8.93081 22.1872 9.2044 22.2284 9.46204 22.2716C9.79188 22.3272 10.4348 22.4747 10.8035 22.6713C11.1071 22.8332 11.3913 23.106 11.4834 23.3946C11.569 23.6592 11.5562 23.8424 11.4259 24.0812C11.2793 24.3509 11.0022 24.5513 10.7212 24.568C10.6376 24.5731 10.3229 24.5291 10.2261 24.4503C10.1881 24.4188 10.19 24.3621 10.2174 24.3237C10.2278 24.3101 10.3749 24.2279 10.4618 24.1799C10.5053 24.155 10.5413 24.1282 10.5753 24.0956C10.6475 24.0288 10.7124 23.9552 10.7051 23.869C10.6952 23.7571 10.5826 23.6881 10.4753 23.6437C9.97174 23.4333 8.96644 23.2587 8.48064 23.2285C8.29049 23.2168 8.02001 23.2067 8.02001 23.2067L8.0772 26.028C8.0772 26.028 8.30081 26.0728 8.47704 26.1028C8.57815 26.119 9.00658 26.1595 9.12044 26.1625C9.98732 26.1865 10.9549 26.1049 11.7504 25.7101C12.0997 25.5372 12.4201 25.322 12.6627 25.0307C12.9824 24.6452 13.1498 24.1176 13.1055 23.5665C13.057 22.9647 12.6542 22.2502 12.3326 21.8152C11.4828 20.6659 10.0262 19.7205 8.74475 19.1662C7.43645 18.6007 6.14341 18.2754 4.75493 18.2209C4.39698 18.2069 3.61652 18.2259 3.222 18.3407C3.16565 18.3574 3.10884 18.3774 3.05652 18.3897C3.01518 18.4004 2.95005 18.4292 2.93216 18.4444C2.92226 18.4528 2.91246 18.4645 2.91246 18.4645C2.91246 18.4645 2.93678 18.4786 2.96002 18.4889C3.00181 18.5081 3.17772 18.5196 3.26876 18.5371C3.3502 18.5533 3.43501 18.5982 3.46857 18.661C3.50046 18.7207 3.50445 18.7677 3.46633 18.8175C3.37694 18.9318 3.04049 18.9125 2.89233 18.8878C2.73837 18.862 2.54667 18.8125 2.51146 18.6715C2.47062 18.5055 2.54562 18.3427 2.62665 18.1922C2.78943 17.8912 3.0226 17.7346 3.36406 17.6365C3.84906 17.4962 4.46145 17.398 4.91943 17.3796C5.95599 17.3384 6.93704 17.5291 7.94136 17.8497C8.51616 18.0325 9.2687 18.3393 9.81963 18.6183C10.215 18.8187 10.8378 19.1874 11.1877 19.4283C11.2981 19.5049 11.9439 20.0039 12.0442 20.0916C12.2534 20.2716 12.5271 20.5302 12.7253 20.737C13.1088 21.1367 13.5857 21.7492 13.8174 22.2355C13.8732 22.3519 13.9164 22.4664 13.9883 22.6014C14.0131 22.6476 14.1189 22.9241 14.1365 23.004C14.1539 23.083 14.1795 23.1992 14.1831 23.2038C14.1882 23.2462 14.2373 23.4838 14.2334 23.5754ZM27.2647 22.9516C26.7793 23.0693 25.5028 23.1347 25.5028 23.1347L25.3418 23.665C25.3418 23.665 25.9798 23.6077 26.4438 23.6587C26.4438 23.6587 26.5942 23.6403 26.6119 23.8382C26.6178 24.0227 26.5969 24.2208 26.5969 24.2208C26.5969 24.2208 26.5873 24.3406 26.4259 24.3711C26.2509 24.4017 25.0509 24.4505 25.0509 24.4505L24.8566 25.1417C24.8566 25.1417 24.7844 25.3015 24.9462 25.2559C25.0966 25.2136 26.3539 24.9655 26.5177 25.0012C26.6932 25.047 26.8874 25.2931 26.8313 25.5173C26.7644 25.7953 25.5094 26.637 24.7452 26.5782C24.7452 26.5782 24.3436 26.6055 24.0042 26.0355C23.6881 25.4923 24.124 24.4639 24.124 24.4639C24.124 24.4639 23.9242 23.9838 24.069 23.821C24.069 23.821 24.1551 23.7388 24.4063 23.7202L24.7139 23.051C24.7139 23.051 24.3636 23.0763 24.1551 22.8053C23.961 22.5481 23.9447 22.4299 24.0936 22.3589C24.2528 22.2762 25.7118 21.9962 26.7157 22.0317C26.7157 22.0317 27.0647 21.9957 27.3673 22.6322C27.3673 22.6322 27.5139 22.8896 27.2647 22.9516ZM23.4885 25.5248C23.3599 25.8431 23.02 26.1828 22.5977 25.9716C22.1809 25.76 21.517 24.3309 21.517 24.3309C21.517 24.3309 21.265 23.7981 21.2165 23.8118C21.2165 23.8118 21.162 23.7077 21.1287 24.29C21.0939 24.8699 21.1353 26.0006 20.9154 26.1786C20.707 26.357 20.4548 26.286 20.3239 26.0775C20.205 25.8721 20.1555 25.384 20.2204 24.5268C20.2967 23.668 20.4864 22.7542 20.7287 22.4697C20.9708 22.1871 21.1651 22.3923 21.2408 22.4667C21.2408 22.4667 21.5646 22.7753 22.0985 23.6815L22.1927 23.8491C22.1927 23.8491 22.6779 24.7053 22.7285 24.7033C22.7285 24.7033 22.7682 24.7427 22.8035 24.7144C22.8545 24.6991 22.8339 24.4246 22.8339 24.4246C22.8339 24.4246 22.7333 23.4915 22.2907 21.9122C22.2907 21.9122 22.2237 21.7153 22.269 21.5308C22.3139 21.3443 22.4917 21.4318 22.4917 21.4318C22.4917 21.4318 23.1777 21.7946 23.5107 22.9692C23.8414 24.1442 23.6191 25.2041 23.4885 25.5248ZM30.8716 24.8213C30.5593 25.3943 29.6778 26.5941 28.5062 26.3109C28.1193 27.2976 27.7943 28.2957 27.6084 29.7893C27.6084 29.7893 27.5676 30.0796 27.3382 29.9787C27.1109 29.8951 26.7365 29.4976 26.6608 28.9478C26.5793 28.2256 26.885 27.0046 27.5099 25.6047C27.3276 25.2931 27.2034 24.8479 27.3098 24.214C27.3098 24.214 27.4667 23.0369 28.5908 21.9759C28.5908 21.9759 28.7255 21.8535 28.8037 21.8912C28.8897 21.9292 28.8499 22.3122 28.7816 22.4985C28.7106 22.6836 28.2102 23.5948 28.2102 23.5948C28.2102 23.5948 27.898 24.2104 27.9859 24.6959C28.5754 23.7426 29.9156 21.8204 30.7462 22.4265C31.0253 22.6365 31.1539 23.0932 31.1539 23.5853C31.1541 24.0175 31.0549 24.477 30.8716 24.8213ZM30.6292 23.3116C30.6292 23.3116 30.583 22.9326 30.2306 23.3501C29.9276 23.7025 29.3811 24.3626 28.9411 25.2592C29.4027 25.2047 29.848 24.9413 29.9826 24.8071C30.2015 24.6029 30.7114 24.0487 30.6292 23.3116ZM37.3256 23.2253H35.1785C35.1356 22.4578 35.0476 21.7101 34.9091 20.9402C34.8949 20.8605 34.8289 20.8027 34.7522 20.8027H34.2571C34.2141 20.8027 34.1733 20.823 34.1454 20.8586C34.1174 20.8947 34.1064 20.9406 34.1146 20.9856C34.2553 21.7307 34.3444 22.464 34.3883 23.226H32.3226C32.2263 23.226 32.1482 23.308 32.1482 23.4088V23.8784C32.1482 23.9794 32.2263 24.062 32.3226 24.062H34.4179C34.4192 24.1779 34.4203 24.2816 34.4203 24.379C34.4203 25.0557 34.3926 25.6131 34.3277 26.2422C34.3226 26.2908 34.3377 26.3392 34.369 26.3749C34.3994 26.4109 34.4432 26.4314 34.4886 26.4314H34.9477C35.0374 26.4314 35.1116 26.3605 35.1206 26.2666C35.1833 25.6333 35.2102 25.0689 35.2102 24.3789C35.2102 24.282 35.2092 24.1778 35.2078 24.0619H37.3257C37.4217 24.0619 37.5 23.9794 37.5 23.8783V23.4088C37.5 23.3075 37.4216 23.2253 37.3256 23.2253Z" fill="white"/>
<path d="M8.61498 16.9333C8.58457 16.9809 8.57722 17.0392 8.59468 17.094C8.61292 17.1487 8.65258 17.1903 8.70382 17.2092L9.08871 17.3454C9.11199 17.3531 9.13512 17.3571 9.1578 17.3571C9.22913 17.3571 9.29609 17.32 9.33574 17.2576C10.5965 15.3097 12.3028 13.6878 14.2705 12.5674C16.3019 11.4104 18.6035 10.7985 20.9271 10.7985C23.7337 10.7985 26.4416 11.6692 28.7584 13.3162C31.0189 14.9228 32.7745 17.1643 33.8355 19.7984C33.8671 19.8773 33.9404 19.9281 34.0215 19.9281H34.4812C34.5341 19.9281 34.5839 19.9001 34.6139 19.8535C34.644 19.807 34.6496 19.748 34.6297 19.6958C33.5357 16.8636 31.6858 14.4492 29.2792 12.7146C26.8157 10.9388 23.9275 10 20.9271 10C15.9669 10 11.3641 12.592 8.61498 16.9333Z" fill="url(#paint1_linear)"/>
</g>
</g>
<defs>
<linearGradient id="paint0_linear" x1="20" y1="0" x2="20" y2="40" gradientUnits="userSpaceOnUse">
<stop stop-color="#07092D"/>
<stop offset="0.682292" stop-color="#113D89"/>
<stop offset="1" stop-color="#165CBF"/>
</linearGradient>
<linearGradient id="paint1_linear" x1="11.0414" y1="11.351" x2="34.2453" y2="20.3513" gradientUnits="userSpaceOnUse">
<stop stop-color="#101C50"/>
<stop offset="0.236" stop-color="#0D267A"/>
<stop offset="0.4973" stop-color="#085AA4"/>
<stop offset="0.6549" stop-color="#058BBF"/>
<stop offset="1" stop-color="#B1FFFF"/>
</linearGradient>
<clipPath id="clip0">
<rect width="40" height="40" fill="white"/>
</clipPath>
<clipPath id="clip1">
<rect width="35" height="20" fill="white" transform="translate(2.5 10)"/>
</clipPath>
</defs>
</svg>
