<svg width="32" height="32" viewBox="0 0 32 32" fill="none" xmlns="http://www.w3.org/2000/svg">
<rect width="32" height="32" rx="9.6" fill="white"/>
<path d="M22.963 10C22.0763 10 21.2678 10.3239 20.6419 10.8636C20.016 10.3239 19.2075 10 18.3208 10C17.4341 10 16.6256 10.3239 15.9997 10.8636C15.3738 10.3239 14.5653 10 13.6786 10C12.7919 10 11.9834 10.3239 11.3575 10.8636C10.7315 10.3239 9.92307 10 9.03635 10C7.00212 10 5.33301 11.7002 5.33301 13.8323C5.33301 15.9373 6.97604 17.6646 9.03635 17.6646C9.92307 17.6646 10.7315 17.3407 11.3575 16.801C11.9834 17.3407 12.7919 17.6646 13.6786 17.6646C14.5653 17.6646 15.3738 17.3407 15.9997 16.801C16.6256 17.3407 17.4341 17.6646 18.3208 17.6646C19.2075 17.6646 20.016 17.3407 20.6419 16.801C21.2678 17.3407 22.0763 17.6646 22.963 17.6646C24.9972 17.6646 26.6663 15.9643 26.6663 13.8323C26.6663 11.7272 24.9972 10 22.963 10ZM20.6419 15.5595C20.3029 15.0737 20.1203 14.48 20.1203 13.8323C20.1203 13.1846 20.3289 12.5908 20.6419 12.1051C20.9809 12.5908 21.1635 13.1846 21.1635 13.8323C21.1635 14.48 20.9809 15.0737 20.6419 15.5595ZM15.9736 15.5595C15.6346 15.0737 15.452 14.48 15.452 13.8323C15.452 13.1846 15.6606 12.5908 15.9736 12.1051C16.3126 12.5908 16.4952 13.1846 16.4952 13.8323C16.5213 14.48 16.3126 15.0737 15.9736 15.5595ZM11.3314 15.5595C10.9923 15.0737 10.8098 14.48 10.8098 13.8323C10.8098 13.1846 11.0184 12.5908 11.3314 12.1051C11.6704 12.5908 11.853 13.1846 11.853 13.8323C11.853 14.48 11.6443 15.0737 11.3314 15.5595ZM6.1154 13.8323C6.1154 12.186 7.39332 10.8636 8.98419 10.8636C9.63619 10.8636 10.236 11.0795 10.7315 11.4843C10.236 12.132 9.94915 12.9417 9.94915 13.8323C9.94915 14.7229 10.236 15.5325 10.7315 16.1802C10.2621 16.5581 9.63619 16.801 8.98419 16.801C7.4194 16.801 6.1154 15.4786 6.1154 13.8323ZM11.9051 16.1802C12.4007 15.5325 12.6875 14.7229 12.6875 13.8323C12.6875 12.9417 12.4007 12.132 11.9051 11.4843C12.3746 11.1065 13.0005 10.8636 13.6525 10.8636C14.3045 10.8636 14.9043 11.0795 15.3998 11.4843C14.9043 12.132 14.6174 12.9417 14.6174 13.8323C14.6174 14.7229 14.9043 15.5325 15.3998 16.1802C14.9304 16.5581 14.3045 16.801 13.6525 16.801C13.0005 16.801 12.4007 16.5581 11.9051 16.1802ZM16.5734 16.1802C17.0689 15.5325 17.3558 14.7229 17.3558 13.8323C17.3558 12.9417 17.0689 12.132 16.5734 11.4843C17.0429 11.1065 17.6688 10.8636 18.3208 10.8636C18.9728 10.8636 19.5726 11.0795 20.0681 11.4843C19.5726 12.132 19.2857 12.9417 19.2857 13.8323C19.2857 14.7229 19.5726 15.5325 20.0681 16.1802C19.5987 16.5581 18.9728 16.801 18.3208 16.801C17.6427 16.801 17.0429 16.5581 16.5734 16.1802ZM22.963 16.801C22.311 16.801 21.7112 16.5851 21.2156 16.1802C21.7112 15.5325 21.998 14.7229 21.998 13.8323C21.998 12.9417 21.7112 12.132 21.2156 11.4843C21.7112 11.1065 22.311 10.8636 22.963 10.8636C24.5539 10.8636 25.8318 12.186 25.8318 13.8323C25.8318 15.4786 24.5539 16.801 22.963 16.801Z" fill="black"/>
<path fill-rule="evenodd" clip-rule="evenodd" d="M7.66967 22.5962L7.42532 22.1273H6.13404L5.89274 22.5962H5.33301L6.52196 20.3313H7.04733L8.23551 22.5962H7.66967ZM6.95951 21.1728C6.92947 21.1132 6.89969 21.0544 6.87017 20.9964C6.84064 20.9384 6.81111 20.8793 6.78159 20.8192L6.69224 20.9979C6.66272 21.057 6.63294 21.1163 6.6029 21.1759L6.32189 21.7364H7.24129L6.95951 21.1728ZM10.0007 22.5962L9.96635 22.4213C9.9302 22.4544 9.8882 22.4843 9.84035 22.511C9.7925 22.5378 9.74057 22.5609 9.68457 22.5805C9.62857 22.6001 9.56926 22.6157 9.50665 22.6271C9.44403 22.6386 9.3804 22.6451 9.31574 22.6466C9.24651 22.6466 9.17893 22.6423 9.113 22.6336C9.04708 22.6249 8.98484 22.6102 8.9263 22.5893C8.86776 22.5684 8.81379 22.5406 8.76441 22.5057C8.71503 22.4708 8.67265 22.4272 8.63727 22.3747C8.60189 22.3223 8.57427 22.2599 8.55442 22.1877C8.53456 22.1154 8.52464 22.0316 8.52464 21.9364V20.9918H9.01564V21.8738C9.01564 21.941 9.02353 21.9995 9.03932 22.0494C9.0551 22.0993 9.07991 22.1407 9.11377 22.1735C9.14762 22.2064 9.19102 22.2308 9.24396 22.2468C9.29691 22.2629 9.36054 22.2709 9.43487 22.2709C9.48476 22.2709 9.5321 22.268 9.5769 22.2621C9.6217 22.2562 9.66459 22.2477 9.70557 22.2365C9.74655 22.2253 9.78613 22.2113 9.82431 22.1945C9.86249 22.1777 9.90042 22.1584 9.93809 22.1365V20.9918H10.4299V22.5962H10.0007ZM12.5486 22.5962L12.5142 22.4144C12.4766 22.4491 12.4328 22.4806 12.3829 22.5091C12.333 22.5376 12.2789 22.5621 12.2206 22.5824C12.1623 22.6028 12.1009 22.6186 12.0362 22.6298C11.9716 22.641 11.9056 22.6466 11.8384 22.6466C11.6954 22.6466 11.5674 22.6269 11.4543 22.5874C11.3413 22.5479 11.2456 22.4914 11.1672 22.4179C11.0888 22.3443 11.0289 22.2547 10.9874 22.1491C10.9459 22.0435 10.9252 21.9245 10.9252 21.7921C10.9252 21.6602 10.9463 21.5418 10.9885 21.4366C11.0308 21.3315 11.0924 21.2423 11.1733 21.169C11.2543 21.0957 11.3537 21.0394 11.4715 21.0002C11.5894 20.961 11.7242 20.9414 11.8759 20.9414C11.9354 20.9414 11.9938 20.945 12.0511 20.9521C12.1084 20.9592 12.1631 20.9696 12.2153 20.983C12.2675 20.9965 12.3165 21.013 12.3623 21.0323C12.4081 21.0516 12.4493 21.0735 12.486 21.098V20.3313H12.977V22.5962H12.5486ZM12.486 21.4454C12.4453 21.424 12.4045 21.4056 12.3638 21.3901C12.3231 21.3745 12.2806 21.3615 12.2363 21.3511C12.192 21.3407 12.1453 21.3329 12.0962 21.3278C12.047 21.3227 11.9935 21.3202 11.9354 21.3202C11.8524 21.3202 11.7793 21.3307 11.7159 21.3519C11.6525 21.373 11.5993 21.4037 11.5563 21.4439C11.5133 21.4841 11.4808 21.5335 11.4589 21.592C11.437 21.6506 11.4261 21.7173 11.4261 21.7921C11.4261 21.8674 11.437 21.9343 11.4589 21.9925C11.4808 22.0508 11.5133 22.1 11.5563 22.1399C11.5993 22.1799 11.6525 22.2102 11.7159 22.2308C11.7793 22.2514 11.8524 22.2617 11.9354 22.2617C11.9935 22.2617 12.047 22.2593 12.0962 22.2545C12.1453 22.2496 12.192 22.2421 12.2363 22.2319C12.2806 22.2218 12.3231 22.2088 12.3638 22.193C12.4045 22.1772 12.4453 22.1584 12.486 22.1365V21.4454ZM13.6105 22.5962V20.9918H14.1015V22.5962H13.6105ZM13.6105 20.7574V20.3313H14.1015V20.7574H13.6105ZM15.7351 22.28C15.758 22.2882 15.7847 22.2966 15.8153 22.3052C15.8458 22.3139 15.8788 22.3222 15.9141 22.3301C15.9495 22.338 15.9869 22.3453 16.0264 22.3522C16.0659 22.3591 16.1061 22.3651 16.1471 22.3702C16.188 22.3752 16.2289 22.3793 16.2696 22.3824C16.3103 22.3854 16.35 22.387 16.3887 22.387C16.4839 22.387 16.5668 22.382 16.6373 22.3721C16.7078 22.3621 16.7663 22.3474 16.8129 22.3278C16.8595 22.3082 16.8942 22.2842 16.9172 22.256C16.9401 22.2277 16.9515 22.1953 16.9515 22.1586C16.9515 22.1194 16.9411 22.0874 16.9202 22.0624C16.8993 22.0375 16.8688 22.0162 16.8286 21.9987C16.7884 21.9811 16.7387 21.9658 16.6797 21.9528C16.6206 21.9399 16.5527 21.926 16.4758 21.9112C16.3531 21.8883 16.2466 21.8641 16.1562 21.8387C16.0659 21.8132 15.9911 21.7822 15.9321 21.7455C15.873 21.7089 15.829 21.6644 15.8 21.6123C15.771 21.5601 15.7565 21.4961 15.7565 21.4202C15.7565 21.3489 15.7719 21.2847 15.8027 21.2274C15.8335 21.1701 15.8813 21.1213 15.9462 21.0808C16.0111 21.0403 16.0941 21.0091 16.1952 20.9872C16.2962 20.9654 16.417 20.9544 16.5575 20.9544C16.6003 20.9544 16.6417 20.9557 16.682 20.9582C16.7222 20.9608 16.7609 20.9646 16.798 20.9697C16.8352 20.9748 16.871 20.9809 16.9053 20.988C16.9397 20.9951 16.9721 21.003 17.0027 21.0117C17.0332 21.0203 17.0621 21.0299 17.0894 21.0403C17.1166 21.0508 17.1417 21.0616 17.1646 21.0728V21.3141C17.1401 21.3039 17.1137 21.294 17.0852 21.2843C17.0566 21.2746 17.0266 21.2656 16.995 21.2572C16.9635 21.2488 16.9304 21.2411 16.8958 21.2343C16.8612 21.2274 16.8255 21.2215 16.7889 21.2167C16.7522 21.2119 16.7145 21.2081 16.6759 21.2053C16.6372 21.2025 16.5977 21.2011 16.5575 21.2011C16.4704 21.2011 16.3962 21.2055 16.3349 21.2144C16.2736 21.2233 16.2234 21.2368 16.1845 21.2549C16.1455 21.273 16.1171 21.2955 16.0993 21.3225C16.0815 21.3495 16.0726 21.381 16.0726 21.4172C16.0726 21.4564 16.083 21.4883 16.1039 21.513C16.1248 21.5377 16.1553 21.5584 16.1955 21.5752C16.2358 21.592 16.2854 21.6068 16.3444 21.6195C16.4035 21.6322 16.4715 21.646 16.5483 21.6608C16.6705 21.6837 16.7767 21.708 16.8668 21.7337C16.9569 21.7594 17.0316 21.7908 17.0909 21.828C17.1502 21.8651 17.1945 21.9099 17.2238 21.9624C17.253 22.0148 17.2677 22.079 17.2677 22.1548C17.2677 22.2261 17.2488 22.2911 17.2112 22.3499C17.1735 22.4087 17.1177 22.4591 17.0439 22.5011C16.9701 22.5431 16.8783 22.5757 16.7686 22.5989C16.6589 22.622 16.5323 22.6336 16.3887 22.6336C16.3251 22.6336 16.2617 22.6305 16.1986 22.6244C16.1355 22.6183 16.0753 22.6101 16.018 22.5996C15.9607 22.5892 15.9078 22.577 15.8592 22.563C15.8106 22.549 15.7692 22.5341 15.7351 22.5183V22.28ZM19.3933 22.487C19.348 22.5079 19.2996 22.5273 19.2482 22.5454C19.1968 22.5635 19.1412 22.579 19.0813 22.592C19.0215 22.605 18.9571 22.6151 18.8881 22.6225C18.8192 22.6299 18.7445 22.6336 18.664 22.6336C18.5586 22.6336 18.4623 22.6239 18.375 22.6046C18.2877 22.5852 18.2092 22.5575 18.1394 22.5214C18.0697 22.4852 18.0088 22.4414 17.9569 22.39C17.905 22.3386 17.8617 22.2809 17.8271 22.217C17.7925 22.1532 17.7665 22.0837 17.7492 22.0086C17.7319 21.9335 17.7233 21.8542 17.7233 21.7707C17.7233 21.6944 17.7322 21.621 17.75 21.5508C17.7678 21.4805 17.794 21.4153 17.8286 21.3549C17.8632 21.2946 17.906 21.2397 17.9569 21.1904C18.0078 21.141 18.0664 21.0989 18.1325 21.064C18.1987 21.0291 18.2724 21.0021 18.3536 20.983C18.4348 20.964 18.5228 20.9544 18.6174 20.9544C18.7106 20.9544 18.7971 20.9632 18.8771 20.9808C18.957 20.9983 19.0298 21.0235 19.0955 21.0564C19.1611 21.0892 19.2193 21.1289 19.27 21.1755C19.3206 21.2221 19.3631 21.2742 19.3975 21.332C19.4318 21.3898 19.4579 21.4528 19.4757 21.521C19.4936 21.5892 19.5025 21.661 19.5025 21.7364C19.5025 21.7465 19.5023 21.7572 19.5021 21.7684C19.5018 21.7796 19.5013 21.7907 19.5006 21.8016C19.4998 21.8126 19.499 21.8229 19.4983 21.8326C19.4975 21.8422 19.4969 21.8506 19.4964 21.8578H18.0325C18.0381 21.9377 18.0557 22.01 18.0852 22.0746C18.1147 22.1393 18.157 22.1945 18.212 22.2403C18.2669 22.2862 18.3348 22.3214 18.4155 22.3461C18.4962 22.3708 18.5905 22.3831 18.6984 22.3831C18.7758 22.3831 18.8467 22.3792 18.9111 22.3713C18.9755 22.3634 19.0355 22.3528 19.0913 22.3396C19.147 22.3264 19.1996 22.3111 19.249 22.2938C19.2983 22.2765 19.3464 22.2584 19.3933 22.2396V22.487ZM19.1993 21.6203C19.1922 21.5572 19.1727 21.4993 19.1409 21.4466C19.1091 21.3939 19.0676 21.3487 19.0164 21.311C18.9653 21.2733 18.9057 21.2441 18.8377 21.2232C18.7698 21.2023 18.6964 21.1919 18.6174 21.1919C18.5385 21.1919 18.465 21.2023 18.3968 21.2232C18.3285 21.2441 18.2687 21.2733 18.2173 21.311C18.1659 21.3487 18.1243 21.3939 18.0925 21.4466C18.0606 21.4993 18.0417 21.5572 18.0356 21.6203H19.1993ZM20.8645 22.584C20.8426 22.5901 20.8185 22.5961 20.7923 22.6019C20.7661 22.6078 20.7376 22.6131 20.7068 22.6179C20.676 22.6228 20.6428 22.6266 20.6071 22.6294C20.5715 22.6322 20.5333 22.6336 20.4926 22.6336C20.4127 22.6336 20.3452 22.6247 20.2902 22.6069C20.2353 22.5891 20.1908 22.5628 20.157 22.5282C20.1231 22.4936 20.0987 22.4505 20.0837 22.3988C20.0687 22.3471 20.0612 22.2877 20.0612 22.2205V20.3313H20.3704V22.1831C20.3704 22.2151 20.3731 22.2433 20.3784 22.2674C20.3838 22.2916 20.3937 22.3119 20.4082 22.3282C20.4227 22.3444 20.4427 22.3567 20.4682 22.3648C20.4936 22.373 20.5267 22.377 20.5674 22.377C20.6306 22.377 20.6868 22.3742 20.7362 22.3686C20.7856 22.363 20.8283 22.3554 20.8645 22.3457V22.584ZM22.829 22.487C22.7837 22.5079 22.7353 22.5273 22.6839 22.5454C22.6325 22.5635 22.5769 22.579 22.517 22.592C22.4572 22.605 22.3928 22.6151 22.3238 22.6225C22.2549 22.6299 22.1802 22.6336 22.0997 22.6336C21.9943 22.6336 21.898 22.6239 21.8107 22.6046C21.7234 22.5852 21.6449 22.5575 21.5751 22.5214C21.5054 22.4852 21.4445 22.4414 21.3926 22.39C21.3407 22.3386 21.2974 22.2809 21.2628 22.217C21.2282 22.1532 21.2022 22.0837 21.1849 22.0086C21.1676 21.9335 21.1589 21.8542 21.1589 21.7707C21.1589 21.6944 21.1679 21.621 21.1857 21.5508C21.2035 21.4805 21.2297 21.4153 21.2643 21.3549C21.2989 21.2946 21.3417 21.2397 21.3926 21.1904C21.4435 21.141 21.5021 21.0989 21.5682 21.064C21.6344 21.0291 21.7081 21.0021 21.7893 20.983C21.8705 20.964 21.9585 20.9544 22.0531 20.9544C22.1463 20.9544 22.2328 20.9632 22.3128 20.9808C22.3927 20.9983 22.4655 21.0235 22.5312 21.0564C22.5968 21.0892 22.655 21.1289 22.7057 21.1755C22.7563 21.2221 22.7988 21.2742 22.8332 21.332C22.8675 21.3898 22.8936 21.4528 22.9114 21.521C22.9293 21.5892 22.9382 21.661 22.9382 21.7364C22.9382 21.7465 22.938 21.7572 22.9378 21.7684C22.9375 21.7796 22.937 21.7907 22.9363 21.8016C22.9355 21.8126 22.9347 21.8229 22.934 21.8326C22.9332 21.8422 22.9326 21.8506 22.9321 21.8578H21.4682C21.4738 21.9377 21.4914 22.01 21.5209 22.0746C21.5504 22.1393 21.5927 22.1945 21.6477 22.2403C21.7026 22.2862 21.7705 22.3214 21.8512 22.3461C21.9319 22.3708 22.0262 22.3831 22.1341 22.3831C22.2115 22.3831 22.2824 22.3792 22.3468 22.3713C22.4112 22.3634 22.4712 22.3528 22.527 22.3396C22.5827 22.3264 22.6353 22.3111 22.6847 22.2938C22.734 22.2765 22.7821 22.2584 22.829 22.2396V22.487ZM22.635 21.6203C22.6279 21.5572 22.6084 21.4993 22.5766 21.4466C22.5448 21.3939 22.5033 21.3487 22.4521 21.311C22.401 21.2733 22.3414 21.2441 22.2734 21.2232C22.2055 21.2023 22.1321 21.1919 22.0531 21.1919C21.9742 21.1919 21.9007 21.2023 21.8325 21.2232C21.7642 21.2441 21.7044 21.2733 21.653 21.311C21.6016 21.3487 21.56 21.3939 21.5282 21.4466C21.4963 21.4993 21.4774 21.5572 21.4713 21.6203H22.635ZM24.9195 22.5114C24.8813 22.5277 24.8408 22.5432 24.7981 22.558C24.7553 22.5728 24.708 22.5857 24.656 22.5969C24.6041 22.6081 24.5462 22.6171 24.4823 22.6237C24.4184 22.6303 24.3463 22.6336 24.2658 22.6336C24.1243 22.6336 23.9978 22.6135 23.8863 22.5733C23.7748 22.5331 23.6805 22.4763 23.6034 22.403C23.5263 22.3297 23.4673 22.2412 23.4266 22.1376C23.3859 22.034 23.3655 21.9189 23.3655 21.7921C23.3655 21.7127 23.3742 21.6367 23.3915 21.5642C23.4088 21.4916 23.4349 21.4243 23.4697 21.3622C23.5046 21.3001 23.5484 21.2439 23.6011 21.1938C23.6538 21.1437 23.7155 21.1009 23.7863 21.0655C23.857 21.0301 23.9371 21.0028 24.0264 20.9834C24.1158 20.9641 24.2144 20.9544 24.3223 20.9544C24.3763 20.9544 24.4301 20.9568 24.4838 20.9617C24.5375 20.9665 24.5892 20.9734 24.6388 20.9823C24.6885 20.9912 24.7351 21.0018 24.7786 21.014C24.8221 21.0262 24.8607 21.0397 24.8943 21.0544V21.3072C24.8591 21.2935 24.8199 21.2803 24.7767 21.2679C24.7334 21.2554 24.6872 21.2445 24.6381 21.235C24.589 21.2256 24.5373 21.2181 24.4831 21.2125C24.4289 21.2069 24.3732 21.2041 24.3162 21.2041C24.2042 21.2041 24.1084 21.2184 24.0287 21.2469C23.949 21.2754 23.8836 21.3155 23.8325 21.3671C23.7813 21.4188 23.7438 21.4807 23.7198 21.5527C23.6959 21.6247 23.6839 21.7045 23.6839 21.7921C23.6839 21.8883 23.6985 21.9732 23.7275 22.0468C23.7565 22.1203 23.7977 22.182 23.8512 22.2319C23.9046 22.2818 23.969 22.3195 24.0444 22.345C24.1197 22.3704 24.204 22.3831 24.2971 22.3831C24.3684 22.3831 24.4345 22.3792 24.4953 22.3713C24.5561 22.3634 24.6122 22.3532 24.6637 22.3408C24.7151 22.3283 24.7619 22.3143 24.8042 22.2988C24.8464 22.2832 24.8849 22.2676 24.9195 22.2518V22.5114ZM26.6411 22.5557C26.6121 22.5664 26.5806 22.5766 26.5465 22.5863C26.5123 22.5959 26.4756 22.6042 26.4361 22.6111C26.3967 22.6179 26.3547 22.6234 26.3101 22.6275C26.2656 22.6316 26.2186 22.6336 26.1692 22.6336C26.072 22.6336 25.9871 22.6243 25.9146 22.6057C25.842 22.5871 25.7814 22.5576 25.7328 22.5172C25.6842 22.4767 25.6478 22.4246 25.6236 22.361C25.5994 22.2974 25.5874 22.2205 25.5874 22.1304V21.2354H25.2399V20.9918H25.5996L25.637 20.5909H25.8936V20.9918H26.6663V21.2354H25.8936V22.0891C25.8936 22.1446 25.9008 22.1912 25.9153 22.2289C25.9298 22.2666 25.9521 22.2968 25.9821 22.3198C26.0122 22.3427 26.0505 22.359 26.0971 22.3686C26.1436 22.3783 26.199 22.3831 26.2632 22.3831C26.2988 22.3831 26.3338 22.3815 26.3681 22.3782C26.4025 22.3749 26.4356 22.3702 26.4674 22.364C26.4992 22.3579 26.5297 22.3507 26.5587 22.3423C26.5877 22.3339 26.6152 22.3246 26.6411 22.3144V22.5557Z" fill="black"/>
</svg>
