<svg width="48" height="48" viewBox="0 0 48 48" fill="none" xmlns="http://www.w3.org/2000/svg">
<rect width="48" height="48" rx="14.4" fill="white"/>
<path d="M34.445 15C33.1149 15 31.9022 15.4858 30.9633 16.2954C30.0244 15.4858 28.8117 15 27.4817 15C26.1516 15 24.9389 15.4858 24 16.2954C23.0611 15.4858 21.8484 15 20.5183 15C19.1883 15 17.9755 15.4858 17.0367 16.2954C16.0978 15.4858 14.8851 15 13.555 15C10.5037 15 8 17.5504 8 20.7484C8 23.906 10.4645 26.4969 13.555 26.4969C14.8851 26.4969 16.0978 26.0111 17.0367 25.2014C17.9755 26.0111 19.1883 26.4969 20.5183 26.4969C21.8484 26.4969 23.0611 26.0111 24 25.2014C24.9389 26.0111 26.1516 26.4969 27.4817 26.4969C28.8117 26.4969 30.0244 26.0111 30.9633 25.2014C31.9022 26.0111 33.1149 26.4969 34.445 26.4969C37.4963 26.4969 40 23.9465 40 20.7484C40 17.5908 37.4963 15 34.445 15ZM30.9633 23.3393C30.4548 22.6106 30.1809 21.72 30.1809 20.7484C30.1809 19.7769 30.4939 18.8863 30.9633 18.1576C31.4719 18.8863 31.7457 19.7769 31.7457 20.7484C31.7457 21.72 31.4719 22.6106 30.9633 23.3393ZM23.9609 23.3393C23.4523 22.6106 23.1785 21.72 23.1785 20.7484C23.1785 19.7769 23.4914 18.8863 23.9609 18.1576C24.4694 18.8863 24.7433 19.7769 24.7433 20.7484C24.7824 21.72 24.4694 22.6106 23.9609 23.3393ZM16.9976 23.3393C16.489 22.6106 16.2152 21.72 16.2152 20.7484C16.2152 19.7769 16.5281 18.8863 16.9976 18.1576C17.5061 18.8863 17.78 19.7769 17.78 20.7484C17.78 21.72 17.467 22.6106 16.9976 23.3393ZM9.17359 20.7484C9.17359 18.279 11.0905 16.2954 13.4768 16.2954C14.4548 16.2954 15.3545 16.6193 16.0978 17.2265C15.3545 18.1981 14.9242 19.4125 14.9242 20.7484C14.9242 22.0843 15.3545 23.2988 16.0978 24.2704C15.3936 24.8371 14.4548 25.2014 13.4768 25.2014C11.1296 25.2014 9.17359 23.2178 9.17359 20.7484ZM17.8582 24.2704C18.6015 23.2988 19.0318 22.0843 19.0318 20.7484C19.0318 19.4125 18.6015 18.1981 17.8582 17.2265C18.5623 16.6598 19.5012 16.2954 20.4792 16.2954C21.4572 16.2954 22.357 16.6193 23.1002 17.2265C22.357 18.1981 21.9267 19.4125 21.9267 20.7484C21.9267 22.0843 22.357 23.2988 23.1002 24.2704C22.3961 24.8371 21.4572 25.2014 20.4792 25.2014C19.5012 25.2014 18.6015 24.8371 17.8582 24.2704ZM24.8606 24.2704C25.6039 23.2988 26.0342 22.0843 26.0342 20.7484C26.0342 19.4125 25.6039 18.1981 24.8606 17.2265C25.5648 16.6598 26.5037 16.2954 27.4817 16.2954C28.4597 16.2954 29.3594 16.6193 30.1027 17.2265C29.3594 18.1981 28.9291 19.4125 28.9291 20.7484C28.9291 22.0843 29.3594 23.2988 30.1027 24.2704C29.3985 24.8371 28.4597 25.2014 27.4817 25.2014C26.4645 25.2014 25.5648 24.8371 24.8606 24.2704ZM34.445 25.2014C33.467 25.2014 32.5672 24.8776 31.824 24.2704C32.5672 23.2988 32.9976 22.0843 32.9976 20.7484C32.9976 19.4125 32.5672 18.1981 31.824 17.2265C32.5672 16.6598 33.467 16.2954 34.445 16.2954C36.8313 16.2954 38.7482 18.279 38.7482 20.7484C38.7482 23.2178 36.8313 25.2014 34.445 25.2014Z" fill="black"/>
<path fill-rule="evenodd" clip-rule="evenodd" d="M11.505 33.8942L11.1385 33.1909H9.20155L8.8396 33.8942H8L9.78343 30.4968H10.5715L12.3538 33.8942H11.505ZM10.4398 31.7591C10.3947 31.6697 10.35 31.5815 10.3057 31.4945C10.2614 31.4074 10.2172 31.3189 10.1729 31.2288L10.0389 31.4968C9.99457 31.5854 9.94989 31.6743 9.90484 31.7637L9.48332 32.6044H10.8624L10.4398 31.7591ZM15.0016 33.8942L14.95 33.6319C14.8958 33.6815 14.8328 33.7264 14.761 33.7664C14.6892 33.8065 14.6113 33.8413 14.5273 33.8707C14.4433 33.9001 14.3544 33.9234 14.2605 33.9405C14.1665 33.9577 14.0711 33.9675 13.9741 33.9698C13.8703 33.9698 13.7689 33.9633 13.67 33.9503C13.5711 33.9373 13.4778 33.9152 13.3899 33.8838C13.3021 33.8525 13.2212 33.8107 13.1471 33.7584C13.073 33.7061 13.0095 33.6406 12.9564 33.562C12.9033 33.4833 12.8619 33.3898 12.8321 33.2814C12.8023 33.1729 12.7874 33.0473 12.7874 32.9045V31.4876H13.524V32.8106C13.524 32.9114 13.5358 32.9992 13.5595 33.074C13.5831 33.1489 13.6204 33.2109 13.6711 33.2602C13.7219 33.3094 13.787 33.3461 13.8664 33.3701C13.9459 33.3942 14.0413 33.4062 14.1528 33.4062C14.2276 33.4062 14.2986 33.4018 14.3658 33.393C14.433 33.3843 14.4974 33.3715 14.5588 33.3547C14.6203 33.3379 14.6797 33.3169 14.737 33.2917C14.7942 33.2665 14.8511 33.2374 14.9076 33.2046V31.4876H15.6453V33.8942H15.0016ZM18.8234 33.8942L18.7719 33.6215C18.7153 33.6735 18.6497 33.7208 18.5748 33.7636C18.5 33.8063 18.4189 33.843 18.3314 33.8735C18.244 33.9041 18.1518 33.9278 18.0548 33.9446C17.9578 33.9614 17.859 33.9698 17.7582 33.9698C17.5436 33.9698 17.3515 33.9402 17.182 33.881C17.0125 33.8218 16.8689 33.737 16.7513 33.6267C16.6337 33.5164 16.5438 33.382 16.4816 33.2235C16.4193 33.0651 16.3882 32.8866 16.3882 32.688C16.3882 32.4902 16.4199 32.3125 16.4833 32.1548C16.5467 31.9971 16.6391 31.8633 16.7605 31.7534C16.8819 31.6434 17.031 31.559 17.2078 31.5002C17.3846 31.4414 17.5867 31.412 17.8143 31.412C17.9036 31.412 17.9912 31.4174 18.0772 31.4281C18.1631 31.4387 18.2452 31.4542 18.3234 31.4744C18.4017 31.4947 18.4752 31.5193 18.5439 31.5483C18.6126 31.5773 18.6745 31.6102 18.7295 31.6468V30.4968H19.466V33.8942H18.8234ZM18.7295 32.168C18.6684 32.1359 18.6073 32.1082 18.5462 32.085C18.4851 32.0617 18.4214 32.0422 18.3549 32.0265C18.2885 32.0109 18.2184 31.9992 18.1447 31.9916C18.071 31.984 17.9907 31.9802 17.9036 31.9802C17.7792 31.9802 17.6694 31.996 17.5743 32.0277C17.4792 32.0594 17.3994 32.1054 17.3349 32.1657C17.2704 32.226 17.2217 32.3001 17.1889 32.3879C17.156 32.4757 17.1396 32.5758 17.1396 32.688C17.1396 32.801 17.156 32.9013 17.1889 32.9887C17.2217 33.0761 17.2704 33.1498 17.3349 33.2098C17.3994 33.2697 17.4792 33.3151 17.5743 33.3461C17.6694 33.377 17.7792 33.3925 17.9036 33.3925C17.9907 33.3925 18.071 33.3888 18.1447 33.3816C18.2184 33.3743 18.2885 33.3631 18.3549 33.3478C18.4214 33.3325 18.4851 33.313 18.5462 33.2894C18.6073 33.2657 18.6684 33.2374 18.7295 33.2046V32.168ZM20.4163 33.8942V31.4876H21.1528V33.8942H20.4163ZM20.4163 31.136V30.4968H21.1528V31.136H20.4163ZM23.6031 33.4199C23.6375 33.4322 23.6776 33.4448 23.7234 33.4577C23.7692 33.4707 23.8186 33.4831 23.8717 33.495C23.9248 33.5068 23.9809 33.5179 24.0401 33.5282C24.0993 33.5385 24.1596 33.5475 24.2211 33.5551C24.2825 33.5627 24.3438 33.5689 24.4049 33.5734C24.466 33.578 24.5256 33.5803 24.5836 33.5803C24.7264 33.5803 24.8507 33.5729 24.9564 33.558C25.0622 33.5431 25.15 33.5209 25.2199 33.4915C25.2897 33.4621 25.3419 33.4262 25.3762 33.3839C25.4106 33.3415 25.4278 33.2928 25.4278 33.2378C25.4278 33.179 25.4121 33.1309 25.3808 33.0935C25.3495 33.0561 25.3037 33.0242 25.2434 32.9979C25.183 32.9715 25.1086 32.9486 25.02 32.9291C24.9314 32.9097 24.8295 32.8889 24.7142 32.8667C24.5301 32.8323 24.3704 32.7961 24.2348 32.7579C24.0993 32.7197 23.9872 32.6731 23.8986 32.6182C23.81 32.5632 23.744 32.4965 23.7005 32.4183C23.6569 32.34 23.6352 32.244 23.6352 32.1302C23.6352 32.0233 23.6583 31.9269 23.7045 31.841C23.7507 31.7551 23.8225 31.6818 23.9198 31.6211C24.0172 31.5604 24.1416 31.5136 24.2932 31.4807C24.4448 31.4479 24.626 31.4315 24.8367 31.4315C24.9009 31.4315 24.9631 31.4334 25.0234 31.4372C25.0838 31.441 25.1418 31.4468 25.1975 31.4544C25.2533 31.462 25.3069 31.4712 25.3585 31.4819C25.41 31.4926 25.4587 31.5044 25.5045 31.5174C25.5503 31.5304 25.5937 31.5447 25.6345 31.5604C25.6754 31.576 25.713 31.5922 25.7473 31.609V31.971C25.7107 31.9557 25.671 31.9408 25.6282 31.9263C25.5855 31.9118 25.5404 31.8983 25.4931 31.8857C25.4457 31.8731 25.3961 31.8616 25.3442 31.8513C25.2922 31.841 25.2388 31.8322 25.1838 31.8249C25.1288 31.8177 25.0723 31.812 25.0143 31.8078C24.9562 31.8036 24.8971 31.8015 24.8367 31.8015C24.7062 31.8015 24.5949 31.8081 24.5028 31.8215C24.4108 31.8349 24.3356 31.8551 24.2772 31.8822C24.2188 31.9093 24.1762 31.9431 24.1495 31.9836C24.1227 32.0241 24.1094 32.0714 24.1094 32.1256C24.1094 32.1844 24.125 32.2323 24.1563 32.2694C24.1877 32.3064 24.2335 32.3375 24.2938 32.3627C24.3541 32.3879 24.4286 32.4101 24.5172 32.4292C24.6057 32.4482 24.7077 32.4689 24.823 32.491C25.0063 32.5254 25.1655 32.5618 25.3006 32.6004C25.4358 32.639 25.5478 32.6861 25.6368 32.7419C25.7258 32.7976 25.7922 32.8648 25.8361 32.9435C25.88 33.0221 25.902 33.1183 25.902 33.2321C25.902 33.339 25.8737 33.4366 25.8172 33.5248C25.7607 33.613 25.6771 33.6886 25.5664 33.7515C25.4556 33.8145 25.318 33.8634 25.1534 33.8982C24.9889 33.9329 24.7989 33.9503 24.5836 33.9503C24.4881 33.9503 24.3931 33.9457 24.2984 33.9365C24.2037 33.9274 24.1134 33.915 24.0275 33.8993C23.9416 33.8837 23.8622 33.8653 23.7892 33.8443C23.7163 33.8233 23.6543 33.801 23.6031 33.7773V33.4199ZM29.0904 33.7304C29.0224 33.7617 28.9499 33.7909 28.8728 33.818C28.7957 33.8451 28.7122 33.8684 28.6225 33.8879C28.5328 33.9073 28.4362 33.9226 28.3327 33.9337C28.2292 33.9447 28.1172 33.9503 27.9965 33.9503C27.8385 33.9503 27.6939 33.9358 27.563 33.9068C27.432 33.8777 27.3142 33.8361 27.2096 33.7819C27.105 33.7277 27.0138 33.662 26.9359 33.5849C26.858 33.5078 26.7931 33.4213 26.7411 33.3255C26.6892 33.2296 26.6503 33.1254 26.6243 33.0128C26.5983 32.9001 26.5854 32.7812 26.5854 32.656C26.5854 32.5414 26.5987 32.4314 26.6255 32.3261C26.6522 32.2207 26.6915 32.1228 26.7434 32.0323C26.7954 31.9418 26.8595 31.8595 26.9359 31.7854C27.0122 31.7114 27.1 31.6482 27.1993 31.5959C27.2986 31.5436 27.4091 31.5031 27.5309 31.4744C27.6527 31.4458 27.7846 31.4315 27.9267 31.4315C28.0664 31.4315 28.1962 31.4447 28.3161 31.471C28.436 31.4974 28.5452 31.5352 28.6437 31.5844C28.7422 31.6337 28.8294 31.6932 28.9054 31.7631C28.9814 31.833 29.0452 31.9112 29.0967 31.9979C29.1483 32.0846 29.1874 32.1791 29.2141 32.2814C29.2408 32.3837 29.2542 32.4914 29.2542 32.6044C29.2542 32.6197 29.254 32.6357 29.2536 32.6525C29.2533 32.6693 29.2525 32.6859 29.2513 32.7023C29.2502 32.7188 29.2491 32.7342 29.2479 32.7487C29.2468 32.7632 29.2458 32.7758 29.245 32.7865H27.0493C27.0577 32.9064 27.084 33.0149 27.1283 33.1118C27.1726 33.2088 27.236 33.2917 27.3184 33.3604C27.4009 33.4291 27.5027 33.482 27.6237 33.519C27.7447 33.5561 27.8862 33.5746 28.0481 33.5746C28.1641 33.5746 28.2705 33.5687 28.3671 33.5568C28.4637 33.545 28.5538 33.5291 28.6374 33.5093C28.721 33.4894 28.7999 33.4665 28.8739 33.4406C28.948 33.4146 29.0202 33.3875 29.0904 33.3592V33.7304ZM28.7995 32.4303C28.7888 32.3356 28.7596 32.2488 28.7118 32.1697C28.6641 32.0907 28.6019 32.0229 28.5251 31.9664C28.4484 31.9099 28.3591 31.866 28.2571 31.8347C28.1552 31.8034 28.045 31.7877 27.9267 31.7877C27.8083 31.7877 27.698 31.8034 27.5956 31.8347C27.4933 31.866 27.4036 31.9099 27.3265 31.9664C27.2493 32.0229 27.1869 32.0907 27.1392 32.1697C27.0915 32.2488 27.063 32.3356 27.0538 32.4303H28.7995ZM31.2972 33.8758C31.2644 33.885 31.2283 33.894 31.189 33.9027C31.1496 33.9115 31.1069 33.9195 31.0607 33.9268C31.0145 33.9341 30.9647 33.9398 30.9112 33.944C30.8577 33.9482 30.8005 33.9503 30.7394 33.9503C30.6195 33.9503 30.5183 33.9369 30.4359 33.9102C30.3534 33.8835 30.2868 33.8441 30.236 33.7922C30.1852 33.7403 30.1485 33.6756 30.126 33.5981C30.1035 33.5206 30.0922 33.4314 30.0922 33.3306V30.4968H30.5561V33.2745C30.5561 33.3226 30.5601 33.3648 30.5681 33.401C30.5762 33.4373 30.5911 33.4677 30.6128 33.4921C30.6346 33.5165 30.6646 33.5349 30.7027 33.5471C30.7409 33.5593 30.7906 33.5654 30.8516 33.5654C30.9463 33.5654 31.0307 33.5612 31.1048 33.5528C31.1789 33.5444 31.243 33.533 31.2972 33.5185V33.8758ZM34.244 33.7304C34.176 33.7617 34.1035 33.7909 34.0263 33.818C33.9492 33.8451 33.8658 33.8684 33.7761 33.8879C33.6863 33.9073 33.5897 33.9226 33.4863 33.9337C33.3828 33.9447 33.2707 33.9503 33.1501 33.9503C32.992 33.9503 32.8475 33.9358 32.7165 33.9068C32.5856 33.8777 32.4678 33.8361 32.3632 33.7819C32.2586 33.7277 32.1673 33.662 32.0894 33.5849C32.0115 33.5078 31.9466 33.4213 31.8947 33.3255C31.8428 33.2296 31.8038 33.1254 31.7779 33.0128C31.7519 32.9001 31.7389 32.7812 31.7389 32.656C31.7389 32.5414 31.7523 32.4314 31.779 32.3261C31.8057 32.2207 31.8451 32.1228 31.897 32.0323C31.9489 31.9418 32.0131 31.8595 32.0894 31.7854C32.1658 31.7114 32.2536 31.6482 32.3529 31.5959C32.4521 31.5436 32.5627 31.5031 32.6845 31.4744C32.8063 31.4458 32.9382 31.4315 33.0802 31.4315C33.2199 31.4315 33.3498 31.4447 33.4697 31.471C33.5895 31.4974 33.6987 31.5352 33.7972 31.5844C33.8957 31.6337 33.983 31.6932 34.059 31.7631C34.135 31.833 34.1987 31.9112 34.2503 31.9979C34.3018 32.0846 34.3409 32.1791 34.3677 32.2814C34.3944 32.3837 34.4078 32.4914 34.4078 32.6044C34.4078 32.6197 34.4076 32.6357 34.4072 32.6525C34.4068 32.6693 34.406 32.6859 34.4049 32.7023C34.4037 32.7188 34.4026 32.7342 34.4015 32.7487C34.4003 32.7632 34.3994 32.7758 34.3986 32.7865H32.2028C32.2112 32.9064 32.2376 33.0149 32.2818 33.1118C32.3261 33.2088 32.3895 33.2917 32.472 33.3604C32.5545 33.4291 32.6562 33.482 32.7772 33.519C32.8983 33.5561 33.0397 33.5746 33.2016 33.5746C33.3177 33.5746 33.424 33.5687 33.5206 33.5568C33.6172 33.545 33.7073 33.5291 33.7909 33.5093C33.8746 33.4894 33.9534 33.4665 34.0275 33.4406C34.1015 33.4146 34.1737 33.3875 34.244 33.3592V33.7304ZM33.953 32.4303C33.9423 32.3356 33.9131 32.2488 33.8654 32.1697C33.8177 32.0907 33.7554 32.0229 33.6787 31.9664C33.6019 31.9099 33.5126 31.866 33.4107 31.8347C33.3087 31.8034 33.1986 31.7877 33.0802 31.7877C32.9618 31.7877 32.8515 31.8034 32.7492 31.8347C32.6469 31.866 32.5571 31.9099 32.48 31.9664C32.4029 32.0229 32.3405 32.0907 32.2927 32.1697C32.245 32.2488 32.2166 32.3356 32.2074 32.4303H33.953ZM37.3797 33.767C37.3224 33.7914 37.2617 33.8147 37.1976 33.8369C37.1334 33.859 37.0624 33.8785 36.9845 33.8953C36.9066 33.9121 36.8198 33.9255 36.7239 33.9354C36.6281 33.9453 36.5199 33.9503 36.3992 33.9503C36.1869 33.9503 35.9972 33.9201 35.8299 33.8598C35.6627 33.7995 35.5212 33.7143 35.4056 33.6044C35.2899 33.4944 35.2015 33.3617 35.1404 33.2063C35.0793 33.0509 35.0488 32.8782 35.0488 32.688C35.0488 32.5689 35.0617 32.4549 35.0877 32.3461C35.1137 32.2373 35.1528 32.1363 35.2051 32.0431C35.2574 31.95 35.3231 31.8658 35.4021 31.7906C35.4812 31.7154 35.5737 31.6512 35.6799 31.5982C35.786 31.5451 35.9061 31.504 36.0401 31.475C36.1741 31.446 36.3221 31.4315 36.484 31.4315C36.5649 31.4315 36.6457 31.4351 36.7262 31.4424C36.8068 31.4496 36.8843 31.4599 36.9588 31.4733C37.0332 31.4867 37.1031 31.5025 37.1684 31.5208C37.2337 31.5392 37.2915 31.5594 37.3419 31.5815V31.9607C37.2892 31.9401 37.2304 31.9204 37.1655 31.9017C37.1006 31.883 37.0313 31.8666 36.9576 31.8524C36.8839 31.8383 36.8064 31.827 36.7251 31.8186C36.6438 31.8102 36.5603 31.806 36.4748 31.806C36.3068 31.806 36.1631 31.8274 36.0436 31.8702C35.9241 31.913 35.8259 31.9731 35.7492 32.0506C35.6724 32.1281 35.6161 32.2209 35.5802 32.3289C35.5443 32.437 35.5264 32.5567 35.5264 32.688C35.5264 32.8323 35.5482 32.9597 35.5917 33.07C35.6352 33.1804 35.6971 33.273 35.7773 33.3478C35.8574 33.4226 35.954 33.4791 36.067 33.5173C36.1801 33.5555 36.3064 33.5746 36.4462 33.5746C36.5531 33.5746 36.6522 33.5687 36.7434 33.5568C36.8347 33.545 36.9189 33.5297 36.996 33.511C37.0731 33.4923 37.1434 33.4713 37.2067 33.448C37.2701 33.4247 37.3278 33.4012 37.3797 33.3776V33.767ZM39.9622 33.8334C39.9187 33.8495 39.8713 33.8648 39.8202 33.8793C39.769 33.8938 39.7138 33.9062 39.6547 33.9165C39.5955 33.9268 39.5325 33.935 39.4657 33.9411C39.3988 33.9472 39.3284 33.9503 39.2543 33.9503C39.1085 33.9503 38.9811 33.9363 38.8723 33.9085C38.7635 33.8806 38.6726 33.8363 38.5997 33.7756C38.5268 33.7149 38.4722 33.6368 38.4359 33.5414C38.3997 33.4459 38.3815 33.3306 38.3815 33.1954V31.853H37.8603V31.4876H38.3998L38.456 30.8863H38.8408V31.4876H40V31.853H38.8408V33.1336C38.8408 33.2168 38.8517 33.2867 38.8735 33.3432C38.8952 33.3997 38.9286 33.4451 38.9737 33.4795C39.0188 33.5139 39.0762 33.5383 39.1461 33.5528C39.216 33.5673 39.299 33.5746 39.3952 33.5746C39.4487 33.5746 39.5012 33.5721 39.5527 33.5671C39.6043 33.5622 39.6539 33.5551 39.7016 33.5459C39.7493 33.5368 39.795 33.5259 39.8385 33.5133C39.882 33.5007 39.9233 33.4868 39.9622 33.4715V33.8334Z" fill="black"/>
</svg>
