<svg width="317" height="226" viewBox="0 0 317 226" fill="none" xmlns="http://www.w3.org/2000/svg">
<g filter="url(#filter0_f)">
<rect x="40" y="40" width="237" height="145.704" rx="9.22179" fill="black" fill-opacity="0.4"/>
</g>
<g clip-path="url(#clip0)">
<rect x="30" y="16" width="257" height="158" rx="10" fill="black"/>
<g opacity="0.75">
<path fill-rule="evenodd" clip-rule="evenodd" d="M257.854 -21.5776V24.8877V71.5642L253.855 60.7082L248.715 164.621C253.768 178.392 256.492 185.742 256.536 185.742L262.95 186.122C273.539 186.629 286.676 187.685 296.606 188.868C298.058 189.101 299.528 189.214 301 189.206C301 189.206 301 141.558 301 83.6029V-22H257.942L257.854 -21.5776Z" fill="#B1060F" stroke="black" stroke-width="0.105611" stroke-miterlimit="10"/>
<path fill-rule="evenodd" clip-rule="evenodd" d="M180 -21.7061V83.8969C180 141.936 180 189.5 180 189.5C180 189.5 183.866 189.204 188.26 188.697L202.056 187.388C206.802 187.008 220.993 186.121 222.663 186.121C223.146 186.121 223.146 183.713 223.234 141.387V96.696L226.661 106.031C227.188 107.51 227.364 107.932 227.847 109.368L233.032 5.45502L231.23 0.639528C227.276 -10.8078 223.717 -20.5233 223.41 -20.9457V-21.7061H180Z" fill="#B1060F" stroke="black" stroke-width="0.105611" stroke-miterlimit="10"/>
<path fill-rule="evenodd" clip-rule="evenodd" d="M180 -21.7061V37.4316L223.41 148.188V141.387V96.6959L226.837 106.031C245.949 158.03 256.187 185.909 256.274 185.994L262.689 186.374C273.278 186.881 286.415 187.937 296.345 189.12C297.797 189.353 299.267 189.466 300.739 189.458C300.739 189.458 300.739 166.098 300.739 133.192L257.812 13.7765V25.0972V71.7737L253.814 60.9177C249.948 50.3574 247.311 43.2609 231.626 0.639526C227.276 -10.8078 223.717 -20.5233 223.41 -20.9457V-21.7061H180Z" fill="url(#paint0_radial)"/>
<path fill-rule="evenodd" clip-rule="evenodd" d="M180 -21.7061L223.41 96.7804L226.837 106.116C245.949 158.115 256.187 185.994 256.274 186.078L262.689 186.458C273.278 186.965 286.415 188.021 296.345 189.204C297.796 189.439 299.267 189.552 300.739 189.542L257.68 71.7314L253.682 60.8754C249.816 50.3151 247.18 43.2186 231.494 0.597286C227.276 -10.8078 223.717 -20.5233 223.41 -20.9457V-21.7061H180Z" fill="#E50914"/>
<path fill-rule="evenodd" clip-rule="evenodd" d="M257.854 -21.5776V24.8877V71.5642L253.855 60.7082L248.715 164.621C253.768 178.392 256.492 185.742 256.536 185.742L262.95 186.122C273.539 186.629 286.676 187.685 296.606 188.868C298.058 189.101 299.528 189.214 301 189.206C301 189.206 301 141.558 301 83.6029V-22H257.942L257.854 -21.5776Z" fill="#B1060F" stroke="black" stroke-width="0.105611" stroke-miterlimit="10"/>
<path fill-rule="evenodd" clip-rule="evenodd" d="M180 -21.7061V83.8969C180 141.936 180 189.5 180 189.5C180 189.5 183.866 189.204 188.26 188.697L202.056 187.388C206.802 187.008 220.993 186.121 222.663 186.121C223.146 186.121 223.146 183.713 223.234 141.387V96.696L226.661 106.031C227.188 107.51 227.364 107.932 227.847 109.368L233.032 5.45502L231.23 0.639528C227.276 -10.8078 223.717 -20.5233 223.41 -20.9457V-21.7061H180Z" fill="#B1060F" stroke="black" stroke-width="0.105611" stroke-miterlimit="10"/>
<path fill-rule="evenodd" clip-rule="evenodd" d="M180 -21.7061V37.4316L223.41 148.188V141.387V96.6959L226.837 106.031C245.949 158.03 256.187 185.909 256.274 185.994L262.689 186.374C273.278 186.881 286.415 187.937 296.345 189.12C297.797 189.353 299.267 189.466 300.739 189.458C300.739 189.458 300.739 166.098 300.739 133.192L257.812 13.7765V25.0972V71.7737L253.814 60.9177C249.948 50.3574 247.311 43.2609 231.626 0.639526C227.276 -10.8078 223.717 -20.5233 223.41 -20.9457V-21.7061H180Z" fill="url(#paint1_radial)"/>
<path fill-rule="evenodd" clip-rule="evenodd" d="M180 -21.7061L223.41 96.7804L226.837 106.116C245.949 158.115 256.187 185.994 256.274 186.078L262.689 186.458C273.278 186.965 286.415 188.021 296.345 189.204C297.796 189.439 299.267 189.552 300.739 189.542L257.68 71.7314L253.682 60.8754C249.816 50.3151 247.18 43.2186 231.494 0.597286C227.276 -10.8078 223.717 -20.5233 223.41 -20.9457V-21.7061H180Z" fill="#E50914"/>
</g>
</g>
<defs>
<filter id="filter0_f" x="0" y="0" width="317" height="225.704" filterUnits="userSpaceOnUse" color-interpolation-filters="sRGB">
<feFlood flood-opacity="0" result="BackgroundImageFix"/>
<feBlend mode="normal" in="SourceGraphic" in2="BackgroundImageFix" result="shape"/>
<feGaussianBlur stdDeviation="20" result="effect1_foregroundBlur"/>
</filter>
<radialGradient id="paint0_radial" cx="0" cy="0" r="1" gradientUnits="userSpaceOnUse" gradientTransform="translate(344.165 176.379) rotate(-17.769) scale(27.4807 969.913)">
<stop/>
<stop offset="1" stop-opacity="0"/>
</radialGradient>
<radialGradient id="paint1_radial" cx="0" cy="0" r="1" gradientUnits="userSpaceOnUse" gradientTransform="translate(344.165 176.379) rotate(-17.769) scale(27.4807 969.913)">
<stop/>
<stop offset="1" stop-opacity="0"/>
</radialGradient>
<clipPath id="clip0">
<rect x="30" y="16" width="257" height="158" rx="10" fill="white"/>
</clipPath>
</defs>
</svg>
