<svg width="317" height="226" viewBox="0 0 317 226" fill="none" xmlns="http://www.w3.org/2000/svg">
<g filter="url(#filter0_f)">
<rect x="40" y="40" width="237" height="145.704" rx="9.22179" fill="black" fill-opacity="0.4"/>
</g>
<g clip-path="url(#clip0)">
<rect x="30" y="16" width="257" height="158" rx="10" fill="black"/>
<g opacity="0.75">
<path fill-rule="evenodd" clip-rule="evenodd" d="M255.426 36.3262V72.2028V108.243L252.476 99.8605L248.685 180.094C252.412 190.726 254.421 196.401 254.453 196.401L259.185 196.695C266.995 197.086 276.685 197.902 284.01 198.815C285.081 198.995 286.165 199.082 287.251 199.076C287.251 199.076 287.251 162.286 287.251 117.538V36H255.49L255.426 36.3262Z" fill="#B1060F" stroke="black" stroke-width="0.2875" stroke-miterlimit="10"/>
<path fill-rule="evenodd" clip-rule="evenodd" d="M198 36.227V117.765C198 162.578 198 199.303 198 199.303C198 199.303 200.852 199.075 204.093 198.683L214.269 197.672C217.769 197.379 228.237 196.694 229.469 196.694C229.825 196.694 229.825 194.835 229.89 162.154V127.647L232.418 134.855C232.807 135.997 232.936 136.323 233.293 137.432L237.117 57.1985L235.788 53.4804C232.871 44.6417 230.246 37.1402 230.019 36.8141V36.227H198Z" fill="#B1060F" stroke="black" stroke-width="0.2875" stroke-miterlimit="10"/>
<path fill-rule="evenodd" clip-rule="evenodd" d="M198 36.227V81.8882L230.019 167.405V162.154V127.647L232.547 134.855C246.645 175.005 254.196 196.531 254.261 196.596L258.993 196.889C266.803 197.281 276.493 198.096 283.817 199.009C284.888 199.189 285.973 199.276 287.058 199.27C287.058 199.27 287.058 181.234 287.058 155.827L255.395 63.6237V72.3646V108.404L252.446 100.022C249.594 91.8685 247.65 86.3891 236.08 53.4804C232.871 44.6417 230.246 37.1402 230.019 36.8141V36.227H198Z" fill="url(#paint0_radial)"/>
<path fill-rule="evenodd" clip-rule="evenodd" d="M198 36.227L230.019 127.713L232.547 134.92C246.645 175.07 254.196 196.596 254.261 196.661L258.993 196.955C266.803 197.346 276.493 198.161 283.817 199.075C284.888 199.256 285.972 199.343 287.058 199.335L255.298 108.372L252.349 99.9896C249.497 91.8358 247.552 86.3565 235.983 53.4478C232.871 44.6417 230.246 37.1402 230.019 36.8141V36.227H198Z" fill="#E50914"/>
<path fill-rule="evenodd" clip-rule="evenodd" d="M255.426 36.3262V72.2028V108.243L252.476 99.8605L248.685 180.094C252.412 190.726 254.421 196.401 254.453 196.401L259.185 196.695C266.995 197.086 276.685 197.902 284.01 198.815C285.081 198.995 286.165 199.082 287.251 199.076C287.251 199.076 287.251 162.286 287.251 117.538V36H255.49L255.426 36.3262Z" fill="#B1060F" stroke="black" stroke-width="0.2875" stroke-miterlimit="10"/>
<path fill-rule="evenodd" clip-rule="evenodd" d="M198 36.227V117.765C198 162.578 198 199.303 198 199.303C198 199.303 200.852 199.075 204.093 198.683L214.269 197.672C217.769 197.379 228.237 196.694 229.469 196.694C229.825 196.694 229.825 194.835 229.89 162.154V127.647L232.418 134.855C232.807 135.997 232.936 136.323 233.293 137.432L237.117 57.1985L235.788 53.4804C232.871 44.6417 230.246 37.1402 230.019 36.8141V36.227H198Z" fill="#B1060F" stroke="black" stroke-width="0.2875" stroke-miterlimit="10"/>
<path fill-rule="evenodd" clip-rule="evenodd" d="M198 36.227V81.8882L230.019 167.405V162.154V127.647L232.547 134.855C246.645 175.005 254.196 196.531 254.261 196.596L258.993 196.889C266.803 197.281 276.493 198.096 283.817 199.009C284.888 199.189 285.973 199.276 287.058 199.27C287.058 199.27 287.058 181.234 287.058 155.827L255.395 63.6237V72.3646V108.404L252.446 100.022C249.594 91.8685 247.65 86.3891 236.08 53.4804C232.871 44.6417 230.246 37.1402 230.019 36.8141V36.227H198Z" fill="url(#paint1_radial)"/>
<path fill-rule="evenodd" clip-rule="evenodd" d="M198 36.227L230.019 127.713L232.547 134.92C246.645 175.07 254.196 196.596 254.261 196.661L258.993 196.955C266.803 197.346 276.493 198.161 283.817 199.075C284.888 199.256 285.972 199.343 287.058 199.335L255.298 108.372L252.349 99.9896C249.497 91.8358 247.552 86.3565 235.983 53.4478C232.871 44.6417 230.246 37.1402 230.019 36.8141V36.227H198Z" fill="#E50914"/>
</g>
</g>
<defs>
<filter id="filter0_f" x="0" y="0" width="317" height="225.704" filterUnits="userSpaceOnUse" color-interpolation-filters="sRGB">
<feFlood flood-opacity="0" result="BackgroundImageFix"/>
<feBlend mode="normal" in="SourceGraphic" in2="BackgroundImageFix" result="shape"/>
<feGaussianBlur stdDeviation="20" result="effect1_foregroundBlur"/>
</filter>
<radialGradient id="paint0_radial" cx="0" cy="0" r="1" gradientUnits="userSpaceOnUse" gradientTransform="translate(319.09 189.172) rotate(-18.5446) scale(20.3603 745.57)">
<stop/>
<stop offset="1" stop-opacity="0"/>
</radialGradient>
<radialGradient id="paint1_radial" cx="0" cy="0" r="1" gradientUnits="userSpaceOnUse" gradientTransform="translate(319.09 189.172) rotate(-18.5446) scale(20.3603 745.57)">
<stop/>
<stop offset="1" stop-opacity="0"/>
</radialGradient>
<clipPath id="clip0">
<rect x="30" y="16" width="257" height="158" rx="10" fill="white"/>
</clipPath>
</defs>
</svg>
