<svg width="317" height="226" viewBox="0 0 317 226" fill="none" xmlns="http://www.w3.org/2000/svg">
<g filter="url(#filter0_f)">
<rect x="40" y="40" width="237" height="145.704" rx="9.22179" fill="black" fill-opacity="0.4"/>
</g>
<g clip-path="url(#clip0)">
<rect x="30" y="16" width="257" height="158" rx="10" fill="black"/>
<g clip-path="url(#clip1)">
<rect x="136" y="-3" width="242" height="242" rx="72.6" fill="black"/>
<rect x="176.333" y="37.3331" width="161.333" height="161.333" rx="80.6667" fill="#1DD660"/>
<path d="M294.076 153.663C292.632 156.07 289.551 156.744 287.144 155.3C268.176 143.746 244.394 141.146 216.279 147.501C213.583 148.079 210.888 146.442 210.31 143.746C209.732 141.05 211.369 138.354 214.065 137.776C244.779 130.748 271.161 133.732 292.343 146.731C294.75 148.175 295.521 151.256 294.076 153.663ZM303.897 131.71C302.068 134.695 298.217 135.562 295.232 133.829C273.568 120.445 240.543 116.594 214.931 124.393C211.562 125.356 208.095 123.526 207.132 120.253C206.17 116.883 207.999 113.417 211.369 112.454C240.639 103.596 277.034 107.832 301.972 123.141C304.764 124.874 305.727 128.726 303.897 131.71ZM304.764 108.795C278.767 93.3896 235.921 91.9454 211.08 99.4555C207.132 100.707 202.896 98.4927 201.644 94.4488C200.393 90.5011 202.703 86.2647 206.651 85.013C235.151 76.3475 282.522 78.0806 312.37 95.7967C315.933 97.915 317.088 102.537 314.97 106.099C312.948 109.758 308.326 111.009 304.764 108.795Z" fill="black"/>
</g>
<path d="M258 36C212.714 36 176 72.7124 176 117.999C176 163.289 212.714 200 258 200C303.288 200 340 163.29 340 117.999C340 72.7153 303.29 36.0039 257.999 36.0039L258 36ZM295.605 154.265C294.132 156.681 290.985 157.438 288.577 155.966C269.321 144.197 245.084 141.539 216.541 148.059C213.791 148.69 211.049 146.966 210.422 144.216C209.793 141.466 211.509 138.724 214.267 138.097C245.503 130.956 272.296 134.03 293.91 147.237C296.318 148.715 297.082 151.859 295.604 154.267L295.605 154.265ZM305.641 131.941C303.787 134.95 299.852 135.894 296.847 134.046C274.811 120.5 241.208 116.577 215.137 124.491C211.756 125.512 208.185 123.606 207.159 120.231C206.14 116.85 208.047 113.286 211.422 112.258C241.202 103.222 278.223 107.599 303.535 123.153C306.541 125.004 307.491 128.94 305.64 131.942L305.641 131.941ZM306.503 108.691C280.071 92.9942 236.472 91.5509 211.239 99.209C207.187 100.438 202.902 98.1505 201.674 94.0986C200.446 90.0449 202.732 85.7629 206.787 84.5311C235.752 75.7381 283.903 77.4369 314.331 95.4999C317.975 97.6629 319.171 102.37 317.011 106.009C314.856 109.654 310.137 110.855 306.504 108.691H306.503Z" fill="#1DD660"/>
</g>
<defs>
<filter id="filter0_f" x="0" y="0" width="317" height="225.704" filterUnits="userSpaceOnUse" color-interpolation-filters="sRGB">
<feFlood flood-opacity="0" result="BackgroundImageFix"/>
<feBlend mode="normal" in="SourceGraphic" in2="BackgroundImageFix" result="shape"/>
<feGaussianBlur stdDeviation="20" result="effect1_foregroundBlur"/>
</filter>
<clipPath id="clip0">
<rect x="30" y="16" width="257" height="158" rx="10" fill="white"/>
</clipPath>
<clipPath id="clip1">
<rect width="242" height="242" fill="white" transform="translate(136 -3)"/>
</clipPath>
</defs>
</svg>
