<svg width="32" height="32" viewBox="0 0 32 32" fill="none" xmlns="http://www.w3.org/2000/svg">
<rect width="32" height="32" rx="9.6" fill="black"/>
<path d="M13.3335 14.6968H13.7948V15.9578C13.7948 16.4927 13.3608 16.9267 12.8258 16.9267C12.2908 16.9267 11.8569 16.4927 11.8569 15.9578V14.6968H12.3181V15.9578C12.3181 16.2389 12.5447 16.4655 12.8258 16.4655C13.107 16.4655 13.3335 16.2389 13.3335 15.9578V14.6968ZM15.588 16.8967H16.0493V14.6968H15.588V16.8967ZM5.79477 16.0151H6.72824V15.5784H5.79477V15.1335H6.761V14.6968H5.3335V16.8967H6.79102V16.46H5.79477V16.0151ZM9.7552 16.8585C9.85891 16.9813 10.1701 17.0523 10.4512 17.0086L10.0718 17.3962C9.62691 17.3962 9.1902 17.0441 9.08648 16.8912C8.59791 16.7657 8.23762 16.3235 8.23762 15.7967C8.23762 15.1717 8.74257 14.6667 9.36761 14.6667C9.99266 14.6667 10.4976 15.1717 10.4976 15.7967C10.4976 16.2826 10.1892 16.7002 9.7552 16.8585ZM10.0363 15.7967C10.0363 15.4283 9.73609 15.128 9.36761 15.128C8.99914 15.128 8.6989 15.4283 8.6989 15.7967C8.6989 16.1652 8.99914 16.4655 9.36761 16.4655C9.73609 16.4655 10.0363 16.1652 10.0363 15.7967ZM25.8207 15.7531L26.5986 14.694H26.0254L25.5341 15.3628L25.0428 14.694H24.4696L25.2502 15.7531L24.4123 16.8967H24.9855L25.5396 16.1434L26.0936 16.8967H26.6668L25.8207 15.7531ZM22.7201 15.3682C22.8156 15.4829 22.8756 15.633 22.8756 15.7967C22.8756 16.1652 22.5754 16.4655 22.2069 16.4655C22.1223 16.4655 22.0404 16.4491 21.964 16.4191L21.6883 16.8012C21.8439 16.8803 22.0186 16.9267 22.2069 16.9267C22.832 16.9267 23.3369 16.4218 23.3369 15.7967C23.3369 15.4801 23.2059 15.1935 22.9957 14.9888L22.7201 15.3682ZM19.27 16.067L18.2165 14.694H17.7716V16.894H18.2328V15.4747L19.3246 16.894H19.7313V14.6968H19.27V16.067ZM21.5355 15.7967C21.5355 15.4283 21.8357 15.128 22.2042 15.128C22.2915 15.128 22.3761 15.1444 22.4526 15.1772L22.7282 14.7978C22.5727 14.7159 22.3925 14.6695 22.2042 14.6695C21.5791 14.6695 21.0742 15.1744 21.0742 15.7995C21.0742 16.1188 21.2079 16.4081 21.4208 16.6128L21.6965 16.2334C21.5955 16.1134 21.5355 15.9605 21.5355 15.7967Z" fill="white"/>
</svg>
