<svg width="48" height="48" viewBox="0 0 48 48" fill="none" xmlns="http://www.w3.org/2000/svg">
<rect width="48" height="48" rx="14.4" fill="black"/>
<path d="M20 22.045H20.6919V23.9365C20.6919 24.739 20.0409 25.39 19.2385 25.39C18.436 25.39 17.7851 24.739 17.7851 23.9365V22.045H18.477V23.9365C18.477 24.3582 18.8168 24.6981 19.2385 24.6981C19.6602 24.6981 20 24.3582 20 23.9365V22.045ZM23.3818 25.3449H24.0737V22.045H23.3818V25.3449ZM8.69191 24.0225H10.0921V23.3675H8.69191V22.7001H10.1412V22.045H8V25.3449H10.1863V24.6899H8.69191V24.0225ZM14.6325 25.2876C14.7881 25.4719 15.2549 25.5783 15.6766 25.5128L15.1075 26.0942C14.4401 26.0942 13.7851 25.566 13.6295 25.3367C12.8966 25.1484 12.3562 24.4852 12.3562 23.695C12.3562 22.7574 13.1136 22 14.0512 22C14.9887 22 15.7462 22.7574 15.7462 23.695C15.7462 24.4237 15.2835 25.0502 14.6325 25.2876ZM15.0542 23.695C15.0542 23.1423 14.6039 22.6919 14.0512 22.6919C13.4985 22.6919 13.0481 23.1423 13.0481 23.695C13.0481 24.2477 13.4985 24.6981 14.0512 24.6981C14.6039 24.6981 15.0542 24.2477 15.0542 23.695ZM38.7308 23.6295L39.8976 22.0409H39.0379L38.3009 23.044L37.564 22.0409H36.7042L37.8751 23.6295L36.6182 25.3449H37.478L38.3091 24.2149L39.1402 25.3449H40L38.7308 23.6295ZM34.0798 23.0522C34.2231 23.2242 34.3132 23.4493 34.3132 23.695C34.3132 24.2477 33.8628 24.6981 33.3101 24.6981C33.1832 24.6981 33.0604 24.6735 32.9458 24.6285L32.5322 25.2016C32.7656 25.3204 33.0276 25.39 33.3101 25.39C34.2477 25.39 35.0051 24.6325 35.0051 23.695C35.0051 23.2201 34.8086 22.7902 34.4933 22.4831L34.0798 23.0522ZM28.9048 24.1003L27.3245 22.0409H26.6571V25.3408H27.349V23.2119L28.9867 25.3408H29.5967V22.045H28.9048V24.1003ZM32.303 23.695C32.303 23.1423 32.7533 22.6919 33.306 22.6919C33.4371 22.6919 33.564 22.7165 33.6786 22.7656L34.0921 22.1965C33.8587 22.0737 33.5885 22.0041 33.306 22.0041C32.3685 22.0041 31.6111 22.7615 31.6111 23.6991C31.6111 24.1781 31.8117 24.6121 32.131 24.9191L32.5445 24.3501C32.393 24.1699 32.303 23.9406 32.303 23.695Z" fill="white"/>
</svg>
