<svg width="32" height="32" viewBox="0 0 32 32" fill="none" xmlns="http://www.w3.org/2000/svg">
<g clip-path="url(#clip0)">
<rect width="32" height="32" rx="9.6" fill="black"/>
</g>
<g clip-path="url(#clip1)">
<path fill-rule="evenodd" clip-rule="evenodd" d="M17.6773 5.39696V10.0688V14.7619L17.2909 13.6704L16.7939 24.1183C17.2824 25.5029 17.5457 26.2419 17.5499 26.2419L18.17 26.2801C19.1936 26.3311 20.4635 26.4372 21.4233 26.5562C21.5637 26.5796 21.7057 26.591 21.848 26.5901C21.848 26.5901 21.848 21.7994 21.848 15.9723V5.35449H17.6858L17.6773 5.39696Z" fill="#B1060F" stroke="black" stroke-width="0.153333" stroke-miterlimit="10"/>
<path fill-rule="evenodd" clip-rule="evenodd" d="M10.1519 5.3844V16.0022C10.1519 21.8378 10.1519 26.62 10.1519 26.62C10.1519 26.62 10.5256 26.5903 10.9503 26.5394L12.2839 26.4077C12.7426 26.3695 14.1144 26.2803 14.2758 26.2803C14.3225 26.2803 14.3225 26.0382 14.331 21.7826V17.2891L14.6623 18.2277C14.7133 18.3764 14.7303 18.4188 14.777 18.5632L15.2781 8.1153L15.104 7.63113C14.7218 6.48016 14.3777 5.50332 14.348 5.46085V5.3844H10.1519Z" fill="#B1060F" stroke="black" stroke-width="0.153333" stroke-miterlimit="10"/>
<path fill-rule="evenodd" clip-rule="evenodd" d="M10.1519 5.3844V11.3304L14.348 22.4664V21.7826V17.2891L14.6793 18.2277C16.5268 23.4559 17.5164 26.259 17.5249 26.2675L18.145 26.3058C19.1685 26.3567 20.4384 26.4629 21.3983 26.5818C21.5386 26.6052 21.6807 26.6166 21.823 26.6158C21.823 26.6158 21.823 24.2671 21.823 20.9586L17.6735 8.95199V10.0902V14.7833L17.287 13.6918C16.9133 12.63 16.6585 11.9165 15.1422 7.63113C14.7218 6.48016 14.3777 5.50332 14.348 5.46085V5.3844H10.1519Z" fill="url(#paint0_radial)"/>
<path fill-rule="evenodd" clip-rule="evenodd" d="M10.1519 5.3844L14.348 17.2976L14.6793 18.2362C16.5268 23.4644 17.5164 26.2675 17.5249 26.276L18.145 26.3143C19.1685 26.3652 20.4384 26.4714 21.3983 26.5903C21.5386 26.614 21.6807 26.6253 21.823 26.6243L17.6608 14.779L17.2743 13.6875C16.9005 12.6258 16.6457 11.9122 15.1295 7.62688C14.7218 6.48016 14.3777 5.50332 14.348 5.46085V5.3844H10.1519Z" fill="#E50914"/>
<path fill-rule="evenodd" clip-rule="evenodd" d="M17.6773 5.39696V10.0688V14.7619L17.2909 13.6704L16.7939 24.1183C17.2824 25.5029 17.5457 26.2419 17.5499 26.2419L18.17 26.2801C19.1936 26.3311 20.4635 26.4372 21.4233 26.5562C21.5637 26.5796 21.7057 26.591 21.848 26.5901C21.848 26.5901 21.848 21.7994 21.848 15.9723V5.35449H17.6858L17.6773 5.39696Z" fill="#B1060F" stroke="black" stroke-width="0.153333" stroke-miterlimit="10"/>
<path fill-rule="evenodd" clip-rule="evenodd" d="M10.1519 5.3844V16.0022C10.1519 21.8378 10.1519 26.62 10.1519 26.62C10.1519 26.62 10.5256 26.5903 10.9503 26.5394L12.2839 26.4077C12.7426 26.3695 14.1144 26.2803 14.2758 26.2803C14.3225 26.2803 14.3225 26.0382 14.331 21.7826V17.2891L14.6623 18.2277C14.7133 18.3764 14.7303 18.4188 14.777 18.5632L15.2781 8.1153L15.104 7.63113C14.7218 6.48016 14.3777 5.50332 14.348 5.46085V5.3844H10.1519Z" fill="#B1060F" stroke="black" stroke-width="0.153333" stroke-miterlimit="10"/>
<path fill-rule="evenodd" clip-rule="evenodd" d="M10.1519 5.3844V11.3304L14.348 22.4664V21.7826V17.2891L14.6793 18.2277C16.5268 23.4559 17.5164 26.259 17.5249 26.2675L18.145 26.3058C19.1685 26.3567 20.4384 26.4629 21.3983 26.5818C21.5386 26.6052 21.6807 26.6166 21.823 26.6158C21.823 26.6158 21.823 24.2671 21.823 20.9586L17.6735 8.95199V10.0902V14.7833L17.287 13.6918C16.9133 12.63 16.6585 11.9165 15.1422 7.63113C14.7218 6.48016 14.3777 5.50332 14.348 5.46085V5.3844H10.1519Z" fill="url(#paint1_radial)"/>
<path fill-rule="evenodd" clip-rule="evenodd" d="M10.1519 5.3844L14.348 17.2976L14.6793 18.2362C16.5268 23.4644 17.5164 26.2675 17.5249 26.276L18.145 26.3143C19.1685 26.3652 20.4384 26.4714 21.3983 26.5903C21.5386 26.614 21.6807 26.6253 21.823 26.6243L17.6608 14.779L17.2743 13.6875C16.9005 12.6258 16.6457 11.9122 15.1295 7.62688C14.7218 6.48016 14.3777 5.50332 14.348 5.46085V5.3844H10.1519Z" fill="#E50914"/>
</g>
<defs>
<radialGradient id="paint0_radial" cx="0" cy="0" r="1" gradientUnits="userSpaceOnUse" gradientTransform="translate(26.0207 25.3009) rotate(-18.4349) scale(2.66651 97.1499)">
<stop/>
<stop offset="1" stop-opacity="0"/>
</radialGradient>
<radialGradient id="paint1_radial" cx="0" cy="0" r="1" gradientUnits="userSpaceOnUse" gradientTransform="translate(26.0207 25.3009) rotate(-18.4349) scale(2.66651 97.1499)">
<stop/>
<stop offset="1" stop-opacity="0"/>
</radialGradient>
<clipPath id="clip0">
<rect width="32" height="32" fill="white"/>
</clipPath>
<clipPath id="clip1">
<rect width="11.7985" height="21.3333" fill="white" transform="translate(10.1011 5.33337)"/>
</clipPath>
</defs>
</svg>
