<svg width="48" height="48" viewBox="0 0 48 48" fill="none" xmlns="http://www.w3.org/2000/svg">
<rect width="48" height="48" rx="14.4" fill="black"/>
<g clip-path="url(#clip0)">
<path fill-rule="evenodd" clip-rule="evenodd" d="M26.516 8.09545V15.1032V22.1428L25.9363 20.5056L25.1909 36.1775C25.9235 38.2543 26.3185 39.3628 26.3249 39.3628L27.255 39.4202C28.7904 39.4966 30.6952 39.6559 32.135 39.8342C32.3455 39.8694 32.5586 39.8864 32.772 39.8852C32.772 39.8852 32.772 32.6991 32.772 23.9585V8.03174H26.5288L26.516 8.09545Z" fill="#B1060F" stroke="black" stroke-width="0.23" stroke-miterlimit="10"/>
<path fill-rule="evenodd" clip-rule="evenodd" d="M15.2275 8.07666V24.0034C15.2275 32.7567 15.2275 39.9301 15.2275 39.9301C15.2275 39.9301 15.7882 39.8855 16.4252 39.8091L18.4256 39.6116C19.1137 39.5543 21.1714 39.4205 21.4135 39.4205C21.4836 39.4205 21.4836 39.0574 21.4963 32.6739V25.9337L21.9932 27.3416C22.0697 27.5646 22.0951 27.6283 22.1652 27.8449L22.917 12.173L22.6558 11.4468C22.0824 9.7203 21.5664 8.25504 21.5218 8.19133V8.07666H15.2275Z" fill="#B1060F" stroke="black" stroke-width="0.23" stroke-miterlimit="10"/>
<path fill-rule="evenodd" clip-rule="evenodd" d="M15.2275 8.07666V16.9956L21.5218 33.6996V32.6739V25.9337L22.0187 27.3416C24.79 35.184 26.2743 39.3886 26.2871 39.4014L27.2172 39.4587C28.7525 39.5352 30.6574 39.6944 32.0971 39.8728C32.3077 39.9079 32.5208 39.925 32.7342 39.9238C32.7342 39.9238 32.7342 36.4008 32.7342 31.438L26.51 13.428V15.1354V22.175L25.9303 20.5377C25.3697 18.9451 24.9874 17.8748 22.7131 11.4468C22.0824 9.7203 21.5664 8.25504 21.5218 8.19133V8.07666H15.2275Z" fill="url(#paint0_radial)"/>
<path fill-rule="evenodd" clip-rule="evenodd" d="M15.2275 8.07666L21.5218 25.9465L22.0187 27.3544C24.79 35.1967 26.2743 39.4014 26.2871 39.4141L27.2172 39.4714C28.7525 39.5479 30.6574 39.7072 32.0971 39.8855C32.3076 39.921 32.5208 39.9381 32.7342 39.9365L26.4909 22.1686L25.9112 20.5314C25.3506 18.9387 24.9683 17.8684 22.694 11.4404C22.0824 9.7203 21.5664 8.25504 21.5218 8.19133V8.07666H15.2275Z" fill="#E50914"/>
<path fill-rule="evenodd" clip-rule="evenodd" d="M26.516 8.09545V15.1032V22.1428L25.9363 20.5056L25.1909 36.1775C25.9235 38.2543 26.3185 39.3628 26.3249 39.3628L27.255 39.4202C28.7904 39.4966 30.6952 39.6559 32.135 39.8342C32.3455 39.8694 32.5586 39.8864 32.772 39.8852C32.772 39.8852 32.772 32.6991 32.772 23.9585V8.03174H26.5288L26.516 8.09545Z" fill="#B1060F" stroke="black" stroke-width="0.23" stroke-miterlimit="10"/>
<path fill-rule="evenodd" clip-rule="evenodd" d="M15.2275 8.07666V24.0034C15.2275 32.7567 15.2275 39.9301 15.2275 39.9301C15.2275 39.9301 15.7882 39.8855 16.4252 39.8091L18.4256 39.6116C19.1137 39.5543 21.1714 39.4205 21.4135 39.4205C21.4836 39.4205 21.4836 39.0574 21.4963 32.6739V25.9337L21.9932 27.3416C22.0697 27.5646 22.0951 27.6283 22.1652 27.8449L22.917 12.173L22.6558 11.4468C22.0824 9.7203 21.5664 8.25504 21.5218 8.19133V8.07666H15.2275Z" fill="#B1060F" stroke="black" stroke-width="0.23" stroke-miterlimit="10"/>
<path fill-rule="evenodd" clip-rule="evenodd" d="M15.2275 8.07666V16.9956L21.5218 33.6996V32.6739V25.9337L22.0187 27.3416C24.79 35.184 26.2743 39.3886 26.2871 39.4014L27.2172 39.4587C28.7525 39.5352 30.6574 39.6944 32.0971 39.8728C32.3077 39.9079 32.5208 39.925 32.7342 39.9238C32.7342 39.9238 32.7342 36.4008 32.7342 31.438L26.51 13.428V15.1354V22.175L25.9303 20.5377C25.3697 18.9451 24.9874 17.8748 22.7131 11.4468C22.0824 9.7203 21.5664 8.25504 21.5218 8.19133V8.07666H15.2275Z" fill="url(#paint1_radial)"/>
<path fill-rule="evenodd" clip-rule="evenodd" d="M15.2275 8.07666L21.5218 25.9465L22.0187 27.3544C24.79 35.1967 26.2743 39.4014 26.2871 39.4141L27.2172 39.4714C28.7525 39.5479 30.6574 39.7072 32.0971 39.8855C32.3076 39.921 32.5208 39.9381 32.7342 39.9365L26.4909 22.1686L25.9112 20.5314C25.3506 18.9387 24.9683 17.8684 22.694 11.4404C22.0824 9.7203 21.5664 8.25504 21.5218 8.19133V8.07666H15.2275Z" fill="#E50914"/>
</g>
<defs>
<radialGradient id="paint0_radial" cx="0" cy="0" r="1" gradientUnits="userSpaceOnUse" gradientTransform="translate(39.0308 37.9513) rotate(-18.4349) scale(3.99977 145.725)">
<stop/>
<stop offset="1" stop-opacity="0"/>
</radialGradient>
<radialGradient id="paint1_radial" cx="0" cy="0" r="1" gradientUnits="userSpaceOnUse" gradientTransform="translate(39.0308 37.9513) rotate(-18.4349) scale(3.99977 145.725)">
<stop/>
<stop offset="1" stop-opacity="0"/>
</radialGradient>
<clipPath id="clip0">
<rect width="17.6978" height="32" fill="white" transform="translate(15.1509 8)"/>
</clipPath>
</defs>
</svg>
