<svg width="32" height="32" viewBox="0 0 32 32" fill="none" xmlns="http://www.w3.org/2000/svg">
<rect width="32" height="32" rx="9.6" fill="white"/>
<path fill-rule="evenodd" clip-rule="evenodd" d="M9.6 0C4.29807 0 0 4.29807 0 9.6V22.4C0 27.7019 4.29807 32 9.6 32H22.4C27.7019 32 32 27.7019 32 22.4V9.6C32 4.29807 27.7019 0 22.4 0H9.6ZM6.66667 10.6667V25.3333H10.6667V10.6667H6.66667ZM6.33333 6.624C6.33333 7.92267 7.37867 8.976 8.66667 8.976C9.956 8.976 11 7.92267 11 6.624C11 5.32533 9.95467 4.272 8.66667 4.272C7.37867 4.272 6.33333 5.32533 6.33333 6.624ZM22.6667 25.3333H26.6667V16.3213C26.6667 9.31733 19.1947 9.572 17.3333 13.02V10.6667H13.3333V25.3333H17.3333V17.8613C17.3333 13.7107 22.6667 13.3707 22.6667 17.8613V25.3333Z" fill="#0077B4"/>
</svg>
