<svg width="48" height="48" viewBox="0 0 48 48" fill="none" xmlns="http://www.w3.org/2000/svg">
<rect width="48" height="48" rx="14.4" fill="white"/>
<path fill-rule="evenodd" clip-rule="evenodd" d="M14.4 0C6.4471 0 0 6.4471 0 14.4V33.6C0 41.5529 6.4471 48 14.4 48H33.6C41.5529 48 48 41.5529 48 33.6V14.4C48 6.4471 41.5529 0 33.6 0H14.4ZM10 16V38H16V16H10ZM9.5 9.936C9.5 11.884 11.068 13.464 13 13.464C14.934 13.464 16.5 11.884 16.5 9.936C16.5 7.988 14.932 6.408 13 6.408C11.068 6.408 9.5 7.988 9.5 9.936ZM34 38H40V24.482C40 13.976 28.792 14.358 26 19.53V16H20V38H26V26.792C26 20.566 34 20.056 34 26.792V38Z" fill="#0077B4"/>
</svg>
