<svg width="32" height="32" viewBox="0 0 32 32" fill="none" xmlns="http://www.w3.org/2000/svg">
<rect width="32" height="32" rx="9.6" fill="black"/>
<path d="M9.03366 14.1726L9.48541 13.3857C9.61656 13.1598 9.53641 12.8611 9.31054 12.7299C9.08466 12.5988 8.78593 12.6789 8.65478 12.9048L8.20303 13.6917C7.24125 13.3857 6.1556 13.7791 5.63099 14.6972C5.29582 15.2801 5.25211 15.9431 5.45612 16.5333L6.29404 15.0834C6.48348 14.7482 6.79679 14.515 7.16838 14.413C7.53998 14.311 7.92615 14.362 8.26132 14.5588C8.94623 14.9522 9.18667 15.8411 8.78593 16.526C8.39247 17.211 7.51084 17.4514 6.81865 17.0507L7.29954 16.2127C7.52541 16.3439 7.82415 16.2637 7.9553 16.0379C8.08645 15.8047 8.0063 15.5133 7.78043 15.3821C7.55455 15.251 7.25582 15.3311 7.12467 15.557L5.59456 18.2092C5.46341 18.4423 5.54355 18.7338 5.76943 18.8649C5.9953 18.9961 6.29404 18.9159 6.42519 18.6901L6.87694 17.9031C7.83872 18.2092 8.92437 17.8157 9.44898 16.8976C9.98087 15.9869 9.77686 14.8575 9.03366 14.1726Z" fill="white"/>
<path d="M11.0669 14.7407H11.8101C12.24 14.7407 12.597 14.952 12.597 15.4475C12.597 15.943 12.24 16.1615 11.8101 16.1615H11.5041V16.8537H11.0669V14.7407ZM11.7955 15.7754C12.0068 15.7754 12.1453 15.6806 12.1453 15.4475C12.1453 15.2143 11.9995 15.1196 11.7955 15.1196H11.4968V15.7754H11.7955Z" fill="white"/>
<path d="M13.231 14.7407H14.6299V15.1269H13.6681V15.6151H14.5133V15.9867H13.6681V16.4748H14.6736V16.8537H13.231V14.7407Z" fill="white"/>
<path d="M15.4019 14.7407H15.839V16.4748H16.7935V16.8537H15.4019V14.7407Z" fill="white"/>
<path d="M17.2822 15.7971C17.2822 15.1705 17.7704 14.7114 18.3752 14.7114C18.9872 14.7114 19.4681 15.1705 19.4681 15.7971C19.4681 16.4237 18.9872 16.8827 18.3752 16.8827C17.7704 16.8827 17.2822 16.4237 17.2822 15.7971ZM19.0236 15.7971C19.0236 15.4036 18.7613 15.0976 18.3752 15.0976C17.989 15.0976 17.7267 15.3963 17.7267 15.7971C17.7267 16.1905 17.989 16.4966 18.3752 16.4966C18.7613 16.4966 19.0236 16.1905 19.0236 15.7971Z" fill="white"/>
<path d="M20.5388 15.1196H19.9341V14.7334H21.5808V15.1196H20.976V16.8537H20.5388V15.1196Z" fill="white"/>
<path d="M22.0474 15.7971C22.0474 15.1705 22.5355 14.7114 23.1403 14.7114C23.7523 14.7114 24.2332 15.1705 24.2332 15.7971C24.2332 16.4237 23.7451 16.8827 23.1403 16.8827C22.5283 16.8827 22.0474 16.4237 22.0474 15.7971ZM23.7815 15.7971C23.7815 15.4036 23.5192 15.0976 23.133 15.0976C22.7468 15.0976 22.4845 15.3963 22.4845 15.7971C22.4845 16.1905 22.7468 16.4966 23.133 16.4966C23.5265 16.4966 23.7815 16.1905 23.7815 15.7971Z" fill="white"/>
<path d="M25.5592 15.8702C25.4572 15.7682 25.3042 15.5788 25.3042 15.5788C25.3042 15.5788 25.3334 15.8119 25.3334 15.9649V16.8539H24.9326V14.719H24.9763L26.0401 15.7245C26.1421 15.8192 26.2879 16.0159 26.2879 16.0159C26.2879 16.0159 26.2587 15.7755 26.2587 15.6298V14.7409H26.6667V16.8757H26.623L25.5592 15.8702Z" fill="white"/>
</svg>
