<svg width="48" height="48" viewBox="0 0 48 48" fill="none" xmlns="http://www.w3.org/2000/svg">
<rect width="48" height="48" rx="14.4" fill="black"/>
<path d="M13.551 21.2588L14.2286 20.0784C14.4253 19.7396 14.3051 19.2915 13.9663 19.0948C13.6275 18.898 13.1794 19.0183 12.9827 19.3571L12.305 20.5374C10.8624 20.0784 9.23389 20.6686 8.44697 22.0457C7.94422 22.92 7.87865 23.9146 8.18467 24.7999L9.44154 22.6249C9.72571 22.1222 10.1957 21.7724 10.7531 21.6194C11.3105 21.4664 11.8897 21.5429 12.3925 21.838C13.4198 22.4282 13.7805 23.7616 13.1794 24.7889C12.5892 25.8163 11.2667 26.177 10.2285 25.5759L10.9498 24.319C11.2886 24.5157 11.7367 24.3955 11.9334 24.0567C12.1302 23.7069 12.0099 23.2698 11.6711 23.073C11.3323 22.8763 10.8842 22.9965 10.6875 23.3353L8.39233 27.3136C8.1956 27.6634 8.31582 28.1005 8.65463 28.2973C8.99344 28.494 9.44154 28.3738 9.63827 28.035L10.3159 26.8546C11.7586 27.3136 13.387 26.7234 14.174 25.3463C14.9718 23.9802 14.6658 22.2861 13.551 21.2588Z" fill="white"/>
<path d="M16.6006 22.1111H17.7154C18.3602 22.1111 18.8957 22.428 18.8957 23.1712C18.8957 23.9144 18.3602 24.2423 17.7154 24.2423H17.2563V25.2806H16.6006V22.1111ZM17.6935 23.6631C18.0105 23.6631 18.2181 23.521 18.2181 23.1712C18.2181 22.8215 17.9995 22.6794 17.6935 22.6794H17.2454V23.6631H17.6935Z" fill="white"/>
<path d="M19.8467 22.1111H21.9451V22.6903H20.5024V23.4226H21.7702V23.98H20.5024V24.7123H22.0107V25.2806H19.8467V22.1111Z" fill="white"/>
<path d="M23.1035 22.1111H23.7593V24.7123H25.191V25.2806H23.1035V22.1111Z" fill="white"/>
<path d="M25.9233 23.6959C25.9233 22.7559 26.6556 22.0674 27.5627 22.0674C28.4808 22.0674 29.2021 22.7559 29.2021 23.6959C29.2021 24.6358 28.4808 25.3243 27.5627 25.3243C26.6556 25.3243 25.9233 24.6358 25.9233 23.6959ZM28.5355 23.6959C28.5355 23.1057 28.142 22.6466 27.5627 22.6466C26.9835 22.6466 26.59 23.0947 26.59 23.6959C26.59 24.286 26.9835 24.7451 27.5627 24.7451C28.142 24.7451 28.5355 24.286 28.5355 23.6959Z" fill="white"/>
<path d="M30.8085 22.6794H29.9014V22.1001H32.3714V22.6794H31.4643V25.2805H30.8085V22.6794Z" fill="white"/>
<path d="M33.0708 23.6959C33.0708 22.7559 33.8031 22.0674 34.7102 22.0674C35.6283 22.0674 36.3496 22.7559 36.3496 23.6959C36.3496 24.6358 35.6173 25.3243 34.7102 25.3243C33.7921 25.3243 33.0708 24.6358 33.0708 23.6959ZM35.672 23.6959C35.672 23.1057 35.2785 22.6466 34.6993 22.6466C34.12 22.6466 33.7266 23.0947 33.7266 23.6959C33.7266 24.286 34.12 24.7451 34.6993 24.7451C35.2895 24.7451 35.672 24.286 35.672 23.6959Z" fill="white"/>
<path d="M38.3389 23.8052C38.1858 23.6522 37.9563 23.368 37.9563 23.368C37.9563 23.368 38 23.7178 38 23.9473V25.2807H37.3989V22.0784H37.4645L39.0602 23.5866C39.2132 23.7287 39.4318 24.0238 39.4318 24.0238C39.4318 24.0238 39.3881 23.6631 39.3881 23.4445V22.1112H40.0001V25.3135H39.9345L38.3389 23.8052Z" fill="white"/>
</svg>
