<svg width="32" height="32" viewBox="0 0 32 32" fill="none" xmlns="http://www.w3.org/2000/svg">
<rect width="32" height="32" rx="9.6" fill="white"/>
<path fill-rule="evenodd" clip-rule="evenodd" d="M24.0546 14.3568C25.6248 14.3568 26.665 15.4487 26.665 17.0966C26.665 18.7444 25.6248 19.8464 24.0546 19.8464C22.4243 19.8464 21.3341 18.7444 21.3341 17.0966C21.3341 15.4487 22.4243 14.3568 24.0546 14.3568ZM15.6743 14.4674V19.7358L14.5006 19.4944V14.6987L15.6743 14.4674ZM20.374 14.3451V15.5815L19.6977 15.7068C19.1165 15.8184 18.7428 16.1207 18.7428 16.7897V19.7358L17.5691 19.4944V16.6102C17.5691 15.1787 18.4074 14.7529 19.6977 14.4557L20.374 14.3451ZM7.90118 14.3568C8.36178 14.3568 8.92662 14.6144 9.24508 15.076C9.56474 14.6557 10.0991 14.3798 10.7549 14.3709C11.5804 14.3596 12.6059 14.8797 12.6059 16.438V19.7358L11.4322 19.4944V16.438C11.4322 15.9152 11.0542 15.5432 10.4972 15.5432C9.94017 15.5432 9.56222 15.9152 9.56222 16.438V19.7358L8.38854 19.4944V16.438C8.38854 15.9152 8.01058 15.5432 7.45359 15.5432C6.88662 15.5432 6.50865 15.9152 6.50865 16.438V19.7358L5.33496 19.4944V14.6987L6.50865 14.4674V15.0104C6.83688 14.6082 7.33422 14.3568 7.90118 14.3568ZM24.0546 15.4689C23.1444 15.4689 22.5343 16.1159 22.5343 17.0966C22.5343 18.0772 23.1444 18.7343 24.0546 18.7343C24.9046 18.7343 25.4647 18.0772 25.4647 17.0966C25.4647 16.1159 24.9046 15.4689 24.0546 15.4689ZM15.1124 12.1536C15.5395 12.1536 15.8223 12.4505 15.8223 12.8987C15.8223 13.3469 15.5395 13.6466 15.1124 13.6466C14.669 13.6466 14.3725 13.3469 14.3725 12.8987C14.3725 12.4505 14.669 12.1536 15.1124 12.1536Z" fill="#050038"/>
</svg>
