<svg width="48" height="48" viewBox="0 0 48 48" fill="none" xmlns="http://www.w3.org/2000/svg">
<rect width="48" height="48" rx="14.4" fill="white"/>
<path fill-rule="evenodd" clip-rule="evenodd" d="M36.0839 21.5349C38.4395 21.5349 40 23.1729 40 25.6451C40 28.1173 38.4395 29.7705 36.0839 29.7705C33.638 29.7705 32.0025 28.1173 32.0025 25.6451C32.0025 23.1729 33.638 21.5349 36.0839 21.5349ZM23.5115 21.7008V29.6046L21.7506 29.2425V22.0477L23.5115 21.7008ZM30.5621 21.5173V23.3722L29.5474 23.5602C28.6756 23.7276 28.1149 24.1811 28.1149 25.1848V29.6046L26.3541 29.2425V24.9155C26.3541 22.7679 27.6117 22.1291 29.5474 21.6832L30.5621 21.5173ZM11.8499 21.5349C12.5409 21.5349 13.3883 21.9214 13.8661 22.6139C14.3457 21.9833 15.1473 21.5694 16.1312 21.556C17.3696 21.5391 18.9081 22.3193 18.9081 24.6572V29.6046L17.1472 29.2425V24.6572C17.1472 23.8728 16.5802 23.3148 15.7446 23.3148C14.9089 23.3148 14.3419 23.8728 14.3419 24.6572V29.6046L12.5811 29.2425V24.6572C12.5811 23.8728 12.0141 23.3148 11.1784 23.3148C10.3278 23.3148 9.76082 23.8728 9.76082 24.6572V29.6046L8 29.2425V22.0477L9.76082 21.7008V22.5154C10.2532 21.912 10.9994 21.5349 11.8499 21.5349ZM36.0839 23.2033C34.7183 23.2033 33.8031 24.1739 33.8031 25.6451C33.8031 27.1163 34.7183 28.1021 36.0839 28.1021C37.359 28.1021 38.1993 27.1163 38.1993 25.6451C38.1993 24.1739 37.359 23.2033 36.0839 23.2033ZM22.6684 18.2295C23.3091 18.2295 23.7335 18.675 23.7335 19.3474C23.7335 20.0197 23.3091 20.4694 22.6684 20.4694C22.0032 20.4694 21.5584 20.0197 21.5584 19.3474C21.5584 18.675 22.0032 18.2295 22.6684 18.2295Z" fill="#050038"/>
</svg>
