<svg width="32" height="32" viewBox="0 0 32 32" fill="none" xmlns="http://www.w3.org/2000/svg">
<rect width="32" height="32" fill="white"/>
<path d="M8.90452 13.6845C6.59622 13.6845 4 15.5059 4 18.6438C4 21.6013 6.54212 23.5489 8.85042 23.5489C10.5636 23.5489 11.5014 22.7194 12.2407 21.7816L11.0505 20.6094C10.3111 21.3849 9.78817 21.7816 8.90452 21.7816C7.42577 21.7816 5.8755 20.4471 5.8755 18.5897C5.8755 16.6601 7.4979 15.4518 8.85042 15.4518C9.698 15.4518 10.3833 15.8125 11.1587 16.606L12.2588 15.2895C11.3751 14.2436 10.2931 13.6845 8.90452 13.6845Z" fill="#013B70"/>
<path d="M21.8282 21.8538C21.1429 21.8538 20.8544 21.6013 20.8544 20.7177V15.5781H23.1987V13.8829H20.8544V10.8704L19.033 11.8442V13.8829H17.2993V15.5781H19.033V21.0423C19.033 22.7374 19.8445 23.5489 21.1609 23.5489C21.9003 23.5489 22.5315 23.3686 22.9823 23.1161L23.1987 21.4751C22.8561 21.6734 22.3151 21.8538 21.8282 21.8538Z" fill="#013B70"/>
<path d="M26.8693 13.8829H25.0118V23.3505H26.8693V13.8829Z" fill="#013B70"/>
<path d="M15.3752 13.8829H13.5178V23.3506H15.3752V13.8829Z" fill="#013B70"/>
<path d="M14.3961 12.2958H12.0859C12.7826 10.8046 15.3586 7.99999 20.0522 7.99999C24.7458 7.99999 27.3034 10.8046 28.0001 12.2958H25.8366C22.9823 8.69163 17.0674 8.78262 14.3961 12.2958Z" fill="#D9251D"/>
</svg>
