<svg width="32" height="32" viewBox="0 0 32 32" fill="none" xmlns="http://www.w3.org/2000/svg">
<rect width="32" height="32" fill="white"/>
<rect y="11.4286" width="11.4286" height="9.14286" fill="#13AC0C"/>
<path fill-rule="evenodd" clip-rule="evenodd" d="M2.79355 14.0165V18.8201H4.11431V14.0165H4.39844V14.0157H5.94455V14.0165H6.62859C7.08648 14.0165 7.39385 14.0342 7.55069 14.0696C7.76066 14.1152 7.93395 14.2024 8.07056 14.3315C8.20716 14.4605 8.31341 14.6401 8.38931 14.8703C8.4652 15.1005 8.50315 15.6124 8.50315 16.0425C8.50315 16.4725 8.4652 16.8128 8.38931 17.0632C8.31341 17.3111 8.21475 17.4895 8.09332 17.5983C7.97443 17.7071 7.8239 17.7842 7.64176 17.8297C7.50262 17.8652 7.27621 17.8829 6.96252 17.8829H5.92324V14.3226H4.64824V18.8201H7.11431C7.52919 18.8201 8.25523 18.7809 8.50315 18.7025C8.83454 18.5963 9.09764 18.4483 9.29243 18.2585C9.55047 18.0081 9.74905 17.6805 9.88819 17.2757C10.002 16.9443 10.0589 16.5497 10.0589 16.0918C10.0589 15.5707 9.99824 15.133 9.87681 14.7789C9.75538 14.4222 9.57829 14.1211 9.34556 13.8757C9.11282 13.6303 8.83328 13.4596 8.50694 13.3635C8.26408 13.2926 7.51654 13.2572 7.05359 13.2572H5.56364H4.64824H0.914307V14.0165H2.79355Z" fill="white"/>
<path d="M15.0857 13.7142H17.7024C18.1386 13.7142 18.4728 13.8216 18.7053 14.0364C18.9398 14.2511 19.0571 14.517 19.0571 14.8341C19.0571 15.1 18.9738 15.328 18.8071 15.5183C18.6961 15.6451 18.5335 15.7453 18.3196 15.8189C18.6446 15.8967 18.8833 16.0306 19.0355 16.2208C19.1898 16.409 19.2669 16.6463 19.2669 16.9326C19.2669 17.1658 19.2124 17.3755 19.1034 17.5616C18.9943 17.7477 18.8452 17.895 18.6559 18.0034C18.5387 18.0709 18.3618 18.12 18.1252 18.1507C17.8104 18.1916 17.6016 18.212 17.4988 18.212H15.0857V13.7142ZM16.4959 15.4784H17.1038C17.3219 15.4784 17.4731 15.4416 17.5574 15.3679C17.6438 15.2922 17.687 15.1838 17.687 15.0427C17.687 14.9118 17.6438 14.8095 17.5574 14.7359C17.4731 14.6623 17.3249 14.6255 17.113 14.6255H16.4959V15.4784ZM16.4959 17.2456H17.2087C17.4494 17.2456 17.6191 17.2037 17.7179 17.1198C17.8166 17.0339 17.866 16.9193 17.866 16.7762C17.866 16.6432 17.8166 16.5369 17.7179 16.4571C17.6212 16.3753 17.4504 16.3344 17.2056 16.3344H16.4959V17.2456Z" fill="black"/>
<path d="M21.0015 16.0092L19.8011 15.8834C19.8464 15.6747 19.9112 15.5111 19.9955 15.3925C20.0819 15.2718 20.2054 15.1675 20.3658 15.0795C20.481 15.0161 20.6394 14.967 20.841 14.9323C21.0427 14.8975 21.2607 14.8801 21.4952 14.8801C21.8717 14.8801 22.1741 14.9016 22.4025 14.9445C22.6308 14.9854 22.8211 15.0724 22.9733 15.2053C23.0803 15.2974 23.1646 15.4283 23.2264 15.598C23.2881 15.7658 23.3189 15.9263 23.3189 16.0797V17.5186C23.3189 17.672 23.3282 17.7927 23.3467 17.8807C23.3673 17.9666 23.4105 18.077 23.4763 18.212H22.2975C22.2502 18.1282 22.2194 18.0648 22.205 18.0218C22.1906 17.9768 22.1762 17.9073 22.1618 17.8132C21.9972 17.9707 21.8336 18.0832 21.6711 18.1507C21.4489 18.2407 21.1908 18.2857 20.8966 18.2857C20.5057 18.2857 20.2085 18.1957 20.0048 18.0157C19.8032 17.8357 19.7024 17.6138 19.7024 17.3499C19.7024 17.1024 19.7754 16.8989 19.9215 16.7394C20.0675 16.5798 20.337 16.4612 20.73 16.3835C21.2011 16.2894 21.5065 16.2239 21.6464 16.1871C21.7863 16.1482 21.9344 16.0981 22.0908 16.0368C22.0908 15.8834 22.0589 15.776 21.9951 15.7146C21.9314 15.6533 21.8192 15.6226 21.6588 15.6226C21.4531 15.6226 21.2988 15.6553 21.1959 15.7208C21.1157 15.7719 21.0509 15.868 21.0015 16.0092ZM22.0908 16.6657C21.918 16.7271 21.738 16.7813 21.5508 16.8283C21.2957 16.8958 21.1342 16.9623 21.0663 17.0278C20.9964 17.0952 20.9614 17.172 20.9614 17.2579C20.9614 17.356 20.9953 17.4368 21.0632 17.5002C21.1332 17.5616 21.235 17.5923 21.3687 17.5923C21.5086 17.5923 21.6382 17.5585 21.7575 17.491C21.8789 17.4235 21.9643 17.3417 22.0136 17.2456C22.0651 17.1474 22.0908 17.0206 22.0908 16.8651V16.6657Z" fill="black"/>
<path d="M24.0105 14.9537H25.18V15.4845C25.3549 15.2677 25.5318 15.1133 25.7108 15.0212C25.8898 14.9271 26.1078 14.8801 26.365 14.8801C26.7126 14.8801 26.9842 14.9834 27.1796 15.19C27.3771 15.3945 27.4758 15.7115 27.4758 16.1411V18.212H26.2138V16.4203C26.2138 16.2157 26.1757 16.0715 26.0996 15.9877C26.0235 15.9018 25.9165 15.8588 25.7787 15.8588C25.6264 15.8588 25.503 15.9161 25.4084 16.0306C25.3137 16.1452 25.2664 16.3507 25.2664 16.6473V18.212H24.0105V14.9537Z" fill="black"/>
<path d="M28.1644 13.7142H29.448V16.0337L30.3861 14.9537H31.9321L30.7564 16.0951L32 18.212H30.5836L29.9202 16.905L29.448 17.3652V18.212H28.1644V13.7142Z" fill="black"/>
</svg>
