<svg width="32" height="32" viewBox="0 0 32 32" fill="none" xmlns="http://www.w3.org/2000/svg">
<rect width="32" height="32" fill="white"/>
<path d="M2.33024 14.7888H3.78562L4.60325 12.2296L4.67684 11.8126L4.74225 12.2296L5.56805 14.7888H7.03161L8.52786 10.2919C8.64233 9.94845 8.85492 9.94845 9.36185 9.94845V9.13082H6.8599V9.94845H7.20331C7.42407 9.94845 7.59577 9.98933 7.59577 10.1692C7.59577 10.2755 7.46495 10.6434 6.75361 12.8429L6.67185 13.268L6.58191 12.712C6.04227 10.9787 5.80516 10.2919 5.80516 10.1774C5.80516 9.95663 6.0341 9.94845 6.41838 9.94845V9.13082H3.35228V9.94845C4.12085 9.94845 4.06361 10.0629 4.22714 10.6271L3.5158 12.7856L3.43404 13.2598L3.35228 12.8347C2.58371 10.4881 2.50194 10.3 2.50194 10.1692C2.50194 9.9648 2.74723 9.95663 2.99252 9.94845V9.13082H0V9.94845H0.22076C0.449696 9.94845 0.694984 9.97298 0.784923 10.2346L2.33024 14.7888Z" fill="#D4012F"/>
<path d="M9.11126 13.9548V14.7888H15.1126V12.3441H14.2705V12.9655C14.2705 13.3988 14.0579 13.9548 13.5428 13.9548H11.7113V12.295H12.2755C12.4881 12.295 12.6516 12.385 12.6516 12.7447V13.1454H13.461V10.5944H12.6516V11.0032C12.6516 11.2076 12.4881 11.4447 12.2591 11.4447H11.7113V9.98115H13.4774C13.9026 9.98115 14.107 10.3736 14.1397 10.7497C14.156 10.8478 14.1887 11.273 14.2051 11.3957H15.0227V9.15535H9.11126V9.9648H9.70813C9.83077 9.9648 9.94524 10.0629 9.94524 10.1856V13.775C9.94524 13.8731 9.84712 13.9548 9.74901 13.9548H9.11126Z" fill="#D4012F"/>
<path d="M18.8276 9.98115V9.14717H15.3936V9.98115H16.0313C16.1294 9.98115 16.2276 10.0629 16.2276 10.161V13.7504C16.2276 13.8731 16.1131 13.9712 15.9904 13.9712H15.3936V14.7806H21.166V12.3359H20.3321C20.3157 12.7447 20.422 13.9548 19.6044 13.9548H17.9936V10.161C17.9936 10.0629 18.0999 9.98115 18.198 9.98115H18.8276Z" fill="#D4012F"/>
<path d="M24.543 9.98115V9.14717H21.109V9.98115H21.7467C21.8449 9.98115 21.943 10.0629 21.943 10.161V13.7504C21.943 13.8731 21.8285 13.9712 21.7059 13.9712H21.109V14.7806H26.8815V12.3359H26.0475C26.0311 12.7447 26.1374 13.9548 25.3198 13.9548H23.7091V10.161C23.7091 10.0629 23.8153 9.98115 23.9135 9.98115H24.543Z" fill="#D4012F"/>
<path d="M31.6893 9.08176H30.9044L30.7163 9.41699H30.7C30.1767 9.14717 29.6616 9 29.0729 9C27.92 9 26.7999 9.58869 26.7999 10.8478C26.7999 11.6573 27.2905 12.246 28.0672 12.4422L30.1276 12.9573C30.3811 13.0227 30.6182 13.1454 30.6182 13.4234C30.6182 13.9548 29.9559 14.0775 29.5553 14.0775C28.6968 14.0775 27.8383 13.6278 27.6993 12.6793H26.8653V14.8706H27.6502C27.6666 14.8706 27.6829 14.8215 27.8464 14.4454C28.3943 14.8133 29.0565 14.936 29.7025 14.936C30.8635 14.936 32 14.3064 32 13.0391C32 12.0498 31.4031 11.5919 30.5037 11.3711L28.566 10.8969C28.3616 10.8478 28.2307 10.7007 28.2307 10.4717C28.2307 9.98115 28.8031 9.85851 29.2119 9.85851C29.8496 9.85851 30.471 10.1447 30.7409 10.7661C30.7736 10.8315 30.8635 11.1994 30.8798 11.1994H31.6893V9.08176Z" fill="#D4012F"/>
<path d="M3.46157 22.1311C3.36346 22.1311 3.25716 22.0494 3.25716 21.9512V20.4713H3.82133C4.03391 20.4713 4.19744 20.5613 4.19744 20.921V21.3217H5.00689V18.7707H4.19744V19.1795C4.19744 19.3839 4.03391 19.621 3.80497 19.621H3.25716V18.1574H5.02324C5.44841 18.1574 5.65282 18.5499 5.68552 18.926C5.70187 19.0241 5.73458 19.4493 5.75093 19.5719H6.56856V17.3316H0.657105V18.1411H1.25397C1.37662 18.1411 1.49109 18.2392 1.49109 18.3618V21.9512C1.49109 22.0494 1.39297 22.1311 1.29486 22.1311H0.657105V22.9651H4.09114V22.1311H3.46157Z" fill="#D4012F"/>
<path d="M5.64298 22.1311V22.9651H8.16127V22.1311H7.54805C7.46629 22.1311 7.34365 22.0493 7.34365 21.9676C7.34365 21.8204 7.62164 21.199 7.64617 21.1336H9.58395C9.70659 21.3952 9.87829 21.7959 9.87829 21.9676C9.87829 22.0739 9.82924 22.1311 9.72294 22.1311H9.12607V22.9651H12.3966V22.1556C11.8651 22.1556 11.7343 22.0821 11.6035 21.7632L9.78835 17.3316H8.22668L6.4279 21.8449C6.38702 21.9512 6.28073 22.1311 6.13356 22.1311H5.64298ZM8.54556 18.8442L8.64367 18.4354L8.72544 18.8442L9.28143 20.316H7.97322L8.54556 18.8442Z" fill="#D4012F"/>
<path d="M14.7355 20.5204H15.406C15.8966 20.5204 15.9374 20.8311 15.962 21.0437L16.0928 22.0984C16.1827 22.8097 16.7305 23.0877 17.4173 23.0877C18.513 23.0877 18.8482 22.6626 18.8482 21.6078V21.1663H18.0796V21.9104C18.0796 22.0821 18.006 22.1311 17.8997 22.1311C17.6872 22.1311 17.7199 21.4934 17.679 21.15C17.5972 20.3977 17.123 20.2424 16.4607 20.1034C17.3438 20.038 18.1532 19.76 18.1532 18.738C18.1532 17.5851 17.1475 17.3316 16.1664 17.3316H12.1518V18.1574H12.7896C12.8877 18.1574 12.9858 18.2392 12.9858 18.3373V21.9512C12.9858 22.0494 12.8877 22.1311 12.7896 22.1311H12.1518V22.9651H15.5695V22.1311H14.9399C14.8418 22.1311 14.7355 22.0494 14.7355 21.9512V20.5204ZM14.7355 18.1574H15.6349C16.0601 18.1574 16.3135 18.4027 16.3135 18.877C16.3135 19.5883 15.8475 19.6701 15.2997 19.6701H14.7355V18.1574Z" fill="#D4012F"/>
<path d="M18.7687 20.1688C18.7687 21.8858 19.9952 23.1368 21.704 23.1368C22.3418 23.1368 23.1921 22.9569 23.5682 22.4582L23.8053 22.9651H24.6802V21.0355C24.6802 20.8638 24.95 20.8147 25.0318 20.8147H25.4487V19.9971H22.0638V20.8147H22.5462C22.7588 20.8147 22.9141 20.8638 22.9141 21.0437V21.5342C22.9141 21.8858 22.6198 22.2047 22.0474 22.2047C20.87 22.2047 20.6983 21.15 20.6983 20.1852C20.6983 19.1304 20.87 18.0593 22.1455 18.0593C23.0449 18.0593 23.4701 18.5744 23.6418 19.4656H24.4676V17.2499H23.6908L23.5191 17.6015C23.0122 17.3071 22.4562 17.1436 21.8757 17.1436C20.126 17.1436 18.7687 18.3864 18.7687 20.1688Z" fill="#D4012F"/>
<path d="M25.3704 20.1688C25.3704 22.0085 26.7768 23.145 28.5837 23.145C30.4316 23.145 31.7643 22.0248 31.7643 20.1688C31.7643 18.3128 30.3743 17.1599 28.5919 17.1599C26.7604 17.1599 25.3704 18.2637 25.3704 20.1688ZM27.3 20.1688C27.3 19.2612 27.39 18.0266 28.5592 18.0266C29.7856 18.0266 29.8102 19.2612 29.8102 20.1933C29.8102 21.1336 29.7202 22.2865 28.551 22.2865C27.4145 22.2865 27.3 21.0437 27.3 20.1688Z" fill="#D4012F"/>
</svg>
