<svg width="32" height="32" viewBox="0 0 32 32" fill="none" xmlns="http://www.w3.org/2000/svg">
<path d="M12 16.009L11.2864 15.3085C10.9042 15.6978 10.9046 16.3215 11.2872 16.7104L12 16.009ZM19.15 24.7014C19.5373 25.095 20.1705 25.1002 20.5642 24.7128C20.9578 24.3254 20.9629 23.6923 20.5756 23.2986L19.15 24.7014ZM20.5764 8.70056C20.9633 8.30646 20.9575 7.67332 20.5633 7.28641C20.1692 6.8995 19.5361 6.90533 19.1492 7.29944L20.5764 8.70056ZM11.2872 16.7104L19.15 24.7014L20.5756 23.2986L12.7128 15.3077L11.2872 16.7104ZM12.7136 16.7096L20.5764 8.70056L19.1492 7.29944L11.2864 15.3085L12.7136 16.7096Z" fill="black"/>
</svg>
