<svg width="24" height="24" viewBox="0 0 24 24" fill="none" xmlns="http://www.w3.org/2000/svg">
<path d="M6.40527 13.7915C6.28076 13.9077 6.20605 14.082 6.20605 14.2729C6.20605 14.6631 6.50488 14.9619 6.89502 14.9619C7.08594 14.9619 7.26025 14.8872 7.37646 14.7627L12 10.1226L16.6152 14.7627C16.7314 14.8872 16.9224 14.9619 17.105 14.9619C17.4951 14.9619 17.7856 14.6631 17.7856 14.2729C17.7856 14.082 17.7109 13.9077 17.5864 13.7915L12.4897 8.66162C12.3652 8.52051 12.1826 8.4541 12 8.4541C11.8091 8.4541 11.6348 8.52051 11.5103 8.66162L6.40527 13.7915Z" fill="#ACB5BE"/>
</svg>
