<svg width="36" height="36" viewBox="0 0 36 36" fill="none" xmlns="http://www.w3.org/2000/svg">
<path d="M9.8321 25.0375C9.52497 25.3447 9.51667 25.8676 9.8321 26.1831C10.1558 26.4902 10.6705 26.4902 10.9859 26.1831L17.9918 19.1689L25.0059 26.1831C25.3131 26.4902 25.8443 26.4985 26.1514 26.1831C26.4669 25.8593 26.4669 25.3447 26.1514 25.0375L19.1456 18.0234L26.1514 11.0092C26.4669 10.7021 26.4752 10.1791 26.1514 9.86372C25.836 9.55659 25.3131 9.55659 25.0059 9.86372L17.9918 16.8779L10.9859 9.86372C10.6705 9.55659 10.1475 9.54829 9.8321 9.86372C9.52497 10.1874 9.52497 10.7021 9.8321 11.0092L16.8463 18.0234L9.8321 25.0375Z" fill="#666666"/>
</svg>
