<svg width="24" height="24" viewBox="0 0 24 24" fill="none" xmlns="http://www.w3.org/2000/svg">
<ellipse cx="12" cy="7.46265" rx="2.375" ry="2.5" fill="black"/>
<ellipse cx="6.75647" cy="8.99976" rx="1.875" ry="2" fill="black"/>
<ellipse cx="17.4438" cy="8.99976" rx="1.875" ry="2" fill="black"/>
<path d="M17 15.9998C17 17.4998 14.7614 17.4998 12 17.4998C9.23858 17.4998 7 17.4998 7 15.9998C7 13.2383 8.23858 11.4998 12 11.4998C15.7614 11.4998 17 13.2383 17 15.9998Z" fill="black"/>
<path d="M5.56218 12C6.30999 11.9963 6.87608 12.5304 6.73468 12.7333C6.70122 12.7814 6.66873 12.8301 6.63721 12.8796C6.03393 13.8266 5.78345 15.0374 5.78345 16.4551C5.78345 16.4844 5.7832 16.5264 5.74023 16.5466C5.69727 16.5669 5.40812 16.5669 5.40812 16.5669C3.3797 16.5319 3.2782 15.7918 3.2782 14.5608C3.2782 13.2993 4.30071 12 5.56218 12Z" fill="black"/>
<path d="M18.6381 12C17.8903 11.9963 17.3242 12.5304 17.4656 12.7333C17.499 12.7814 17.5315 12.8301 17.563 12.8796C18.1663 13.8266 18.4168 15.0374 18.4168 16.4551C18.4168 16.4844 18.4171 16.5264 18.46 16.5466C18.503 16.5669 18.7921 16.5669 18.7921 16.5669C20.8206 16.5319 20.9221 15.7918 20.9221 14.5608C20.9221 13.2993 19.8995 12 18.6381 12Z" fill="black"/>
</svg>
