<svg width="108" height="158" viewBox="0 0 108 158" fill="none" xmlns="http://www.w3.org/2000/svg">
<path fill-rule="evenodd" clip-rule="evenodd" d="M78.8174 -37.558V11.0583V59.8957L74.821 48.5371L69.6828 157.261C74.7332 171.669 77.456 179.359 77.4999 179.359L83.9117 179.757C94.4956 180.287 107.627 181.392 117.552 182.63C119.003 182.874 120.472 182.992 121.943 182.983C121.943 182.983 121.943 133.13 121.943 72.4917V-38H78.9053L78.8174 -37.558Z" fill="#B1060F" stroke="black" stroke-width="0.2875" stroke-miterlimit="10"/>
<path fill-rule="evenodd" clip-rule="evenodd" d="M1 -37.6925V72.7992C1 133.525 1 183.291 1 183.291C1 183.291 4.86465 182.982 9.2563 182.451L23.0461 181.081C27.7891 180.683 41.9741 179.755 43.6429 179.755C44.126 179.755 44.126 177.236 44.2138 132.951V86.1908L47.6393 95.9583C48.1663 97.5052 48.342 97.9471 48.8251 99.4498L54.0072 -9.27403L52.2066 -14.3125C48.2541 -26.2898 44.6969 -36.455 44.3895 -36.897V-37.6925H1Z" fill="#B1060F" stroke="black" stroke-width="0.2875" stroke-miterlimit="10"/>
<path fill-rule="evenodd" clip-rule="evenodd" d="M1 -37.6925V24.1829L44.3895 140.067V132.951V86.1908L47.815 95.9583C66.9186 150.364 77.1512 179.534 77.239 179.623L83.6508 180.02C94.2347 180.551 107.366 181.656 117.291 182.893C118.742 183.137 120.211 183.255 121.683 183.247C121.683 183.247 121.683 158.806 121.683 124.377L78.7761 -0.56728V11.2774V60.1148L74.7797 48.7562C70.915 37.707 68.2801 30.282 52.6019 -14.3125C48.2541 -26.2898 44.6969 -36.455 44.3895 -36.897V-37.6925H1Z" fill="url(#paint0_radial)"/>
<path fill-rule="evenodd" clip-rule="evenodd" d="M1 -37.6925L44.3895 86.2792L47.815 96.0467C66.9186 150.453 77.1512 179.623 77.239 179.711L83.6508 180.109C94.2347 180.639 107.366 181.744 117.291 182.982C118.742 183.228 120.211 183.346 121.683 183.335L78.6443 60.0706L74.6479 48.712C70.7833 37.6628 68.1483 30.2378 52.4701 -14.3567C48.2541 -26.2898 44.6969 -36.455 44.3895 -36.897V-37.6925H1Z" fill="#E50914"/>
<path fill-rule="evenodd" clip-rule="evenodd" d="M78.8174 -37.558V11.0583V59.8957L74.821 48.5371L69.6828 157.261C74.7332 171.669 77.456 179.359 77.4999 179.359L83.9117 179.757C94.4956 180.287 107.627 181.392 117.552 182.63C119.003 182.874 120.472 182.992 121.943 182.983C121.943 182.983 121.943 133.13 121.943 72.4917V-38H78.9053L78.8174 -37.558Z" fill="#B1060F" stroke="black" stroke-width="0.2875" stroke-miterlimit="10"/>
<path fill-rule="evenodd" clip-rule="evenodd" d="M1 -37.6925V72.7992C1 133.525 1 183.291 1 183.291C1 183.291 4.86465 182.982 9.2563 182.451L23.0461 181.081C27.7891 180.683 41.9741 179.755 43.6429 179.755C44.126 179.755 44.126 177.236 44.2138 132.951V86.1908L47.6393 95.9583C48.1663 97.5052 48.342 97.9471 48.8251 99.4498L54.0072 -9.27403L52.2066 -14.3125C48.2541 -26.2898 44.6969 -36.455 44.3895 -36.897V-37.6925H1Z" fill="#B1060F" stroke="black" stroke-width="0.2875" stroke-miterlimit="10"/>
<path fill-rule="evenodd" clip-rule="evenodd" d="M1 -37.6925V24.1829L44.3895 140.067V132.951V86.1908L47.815 95.9583C66.9186 150.364 77.1512 179.534 77.239 179.623L83.6508 180.02C94.2347 180.551 107.366 181.656 117.291 182.893C118.742 183.137 120.211 183.255 121.683 183.247C121.683 183.247 121.683 158.806 121.683 124.377L78.7761 -0.56728V11.2774V60.1148L74.7797 48.7562C70.915 37.707 68.2801 30.282 52.6019 -14.3125C48.2541 -26.2898 44.6969 -36.455 44.3895 -36.897V-37.6925H1Z" fill="url(#paint1_radial)"/>
<path fill-rule="evenodd" clip-rule="evenodd" d="M1 -37.6925L44.3895 86.2792L47.815 96.0467C66.9186 150.453 77.1512 179.623 77.239 179.711L83.6508 180.109C94.2347 180.639 107.366 181.744 117.291 182.982C118.742 183.228 120.211 183.346 121.683 183.335L78.6443 60.0706L74.6479 48.712C70.7833 37.6628 68.1483 30.2378 52.4701 -14.3567C48.2541 -26.2898 44.6969 -36.455 44.3895 -36.897V-37.6925H1Z" fill="#E50914"/>
<defs>
<radialGradient id="paint0_radial" cx="0" cy="0" r="1" gradientUnits="userSpaceOnUse" gradientTransform="translate(165.088 169.563) rotate(-18.5446) scale(27.5901 1010.32)">
<stop/>
<stop offset="1" stop-opacity="0"/>
</radialGradient>
<radialGradient id="paint1_radial" cx="0" cy="0" r="1" gradientUnits="userSpaceOnUse" gradientTransform="translate(165.088 169.563) rotate(-18.5446) scale(27.5901 1010.32)">
<stop/>
<stop offset="1" stop-opacity="0"/>
</radialGradient>
</defs>
</svg>
