<svg width="32" height="32" viewBox="0 0 32 32" fill="none" xmlns="http://www.w3.org/2000/svg">
<path d="M21.75 7.5C21.75 7.08579 21.4142 6.75 21 6.75C20.5858 6.75 20.25 7.08579 20.25 7.5L21.75 7.5ZM20.4697 24.0303C20.7626 24.3232 21.2374 24.3232 21.5303 24.0303L26.3033 19.2574C26.5962 18.9645 26.5962 18.4896 26.3033 18.1967C26.0104 17.9038 25.5355 17.9038 25.2426 18.1967L21 22.4393L16.7574 18.1967C16.4645 17.9038 15.9896 17.9038 15.6967 18.1967C15.4038 18.4896 15.4038 18.9645 15.6967 19.2574L20.4697 24.0303ZM20.25 7.5L20.25 23.5L21.75 23.5L21.75 7.5L20.25 7.5Z" fill="black"/>
<path d="M10.25 23.5C10.25 23.9142 10.5858 24.25 11 24.25C11.4142 24.25 11.75 23.9142 11.75 23.5L10.25 23.5ZM11.5303 6.96967C11.2374 6.67678 10.7626 6.67678 10.4697 6.96967L5.6967 11.7426C5.40381 12.0355 5.40381 12.5104 5.6967 12.8033C5.98959 13.0962 6.46447 13.0962 6.75736 12.8033L11 8.56066L15.2426 12.8033C15.5355 13.0962 16.0104 13.0962 16.3033 12.8033C16.5962 12.5104 16.5962 12.0355 16.3033 11.7426L11.5303 6.96967ZM11.75 23.5L11.75 7.5L10.25 7.5L10.25 23.5L11.75 23.5Z" fill="black"/>
</svg>
