<svg width="32" height="32" viewBox="0 0 32 32" fill="none" xmlns="http://www.w3.org/2000/svg">
<path d="M7.50007 23.3859H24.6419C25.1053 23.0764 25.1332 21.856 24.6419 21.0006C23.9276 19.7567 22.4555 18.4627 22.4555 15.0314C22.4555 10.3985 19.3103 8.38586 16.071 8.38586C12.8317 8.38586 9.68655 10.3985 9.68655 15.0314C9.68655 18.4627 7.97748 19.7567 7.2631 21.0006C6.77179 21.856 7.03676 23.0764 7.50007 23.3859Z" fill="black"/>
<path d="M19.1372 24.1628C19.1372 25.8519 17.768 27.2211 16.0789 27.2211C14.3899 27.2211 13.0206 25.8519 13.0206 24.1628H19.1372Z" fill="black"/>
<path fill-rule="evenodd" clip-rule="evenodd" d="M14.5 8.95062V7C14.5 6.17157 15.1716 5.5 16 5.5C16.8284 5.5 17.5 6.17157 17.5 7V8.95062H14.5Z" fill="black"/>
</svg>
