<svg width="22" height="22" viewBox="0 0 22 22" fill="none" xmlns="http://www.w3.org/2000/svg">
<circle cx="11" cy="11" r="11" fill="black" fill-opacity="0.7"/>
<path d="M11.2929 5.29266C11.6834 4.90213 12.3166 4.90212 12.7071 5.29264C13.0976 5.68315 13.0976 6.31632 12.7071 6.70685L11.2929 5.29266ZM7.00001 10.9999L6.29291 11.707C5.90239 11.3165 5.90238 10.6834 6.29289 10.2928L7.00001 10.9999ZM12.7071 15.2928C13.0976 15.6833 13.0976 16.3165 12.7071 16.707C12.3166 17.0976 11.6834 17.0976 11.2929 16.707L12.7071 15.2928ZM12.7071 6.70685L7.70713 11.707L6.29289 10.2928L11.2929 5.29266L12.7071 6.70685ZM7.70712 10.2928L12.7071 15.2928L11.2929 16.707L6.29291 11.707L7.70712 10.2928Z" fill="white"/>
</svg>
