<svg width="36" height="36" viewBox="0 0 36 36" fill="none" xmlns="http://www.w3.org/2000/svg">
<path d="M8.93555 18.0103C8.93555 18.2219 9.02271 18.4211 9.19702 18.583L15.7214 25.1074C15.8958 25.2693 16.0701 25.344 16.2693 25.344C16.6926 25.344 17.0288 25.0327 17.0288 24.6094C17.0288 24.3977 16.9541 24.1985 16.8171 24.0615L14.2522 21.4717L11.1768 18.6453L13.4927 18.7698H26.3049C26.7407 18.7698 27.052 18.4585 27.052 18.0103C27.052 17.562 26.7407 17.2507 26.3049 17.2507H13.4927L11.1768 17.3752L14.2522 14.5488L16.8171 11.959C16.9541 11.822 17.0288 11.6228 17.0288 11.4111C17.0288 10.9878 16.6926 10.6765 16.2693 10.6765C16.0701 10.6765 15.8833 10.7512 15.6841 10.9504L9.19702 17.4375C9.02271 17.5994 8.93555 17.7986 8.93555 18.0103Z" fill="#333333"/>
</svg>
