<svg width="14" height="15" viewBox="0 0 14 15" fill="none" xmlns="http://www.w3.org/2000/svg">
<path d="M6.69287 10.6714L7.66406 9.68359C6.88379 9.57568 6.37744 9.32666 6.00391 8.94482C4.8916 7.83252 4.8916 6.27197 5.9873 5.17627L8.1123 3.05127C9.21631 1.94727 10.7769 1.93896 11.8892 3.05127C13.0015 4.17188 12.9932 5.73242 11.8975 6.82812L10.7769 7.94873C10.9844 8.43018 11.0342 8.97803 10.9761 9.44287L12.7939 7.625C14.396 6.02295 14.4043 3.76514 12.7856 2.15479C11.1753 0.536133 8.90918 0.544434 7.31543 2.14648L5.09082 4.37939C3.49707 5.97314 3.48047 8.23096 5.09912 9.84961C5.46436 10.2148 5.9375 10.4888 6.69287 10.6714ZM7.30713 5.23438L6.32764 6.23047C7.10791 6.33838 7.61426 6.5874 7.99609 6.96924C9.1084 8.08154 9.1084 9.64209 8.0127 10.7378L5.8877 12.8628C4.78369 13.9668 3.22314 13.9668 2.11084 12.8628C0.990234 11.7422 0.998535 10.1816 2.10254 9.08594L3.22314 7.96533C3.01562 7.48389 2.96582 6.93604 3.02393 6.47119L1.20605 8.28906C-0.395996 9.88281 -0.404297 12.1489 1.21436 13.7593C2.82471 15.3779 5.08252 15.3696 6.68457 13.7676L8.90918 11.5347C10.5029 9.94092 10.5112 7.68311 8.90088 6.06445C8.53564 5.69922 8.0625 5.42529 7.30713 5.23438Z" fill="#7610EB"/>
</svg>
