<svg width="24" height="24" viewBox="0 0 24 24" fill="none" xmlns="http://www.w3.org/2000/svg">
<rect width="24" height="24" fill="white"/>
<rect x="2" y="2" width="20" height="20" rx="3.6" fill="#C4C4C4" fill-opacity="0.6"/>
<path d="M12 17.5352C12.3652 17.5352 12.6641 17.2446 12.6641 16.8794V12.6875H16.7563C17.1133 12.6875 17.4204 12.3804 17.4204 12.0151C17.4204 11.6499 17.1133 11.3428 16.7563 11.3428H12.6641V7.14258C12.6641 6.77734 12.3652 6.48682 12 6.48682C11.6348 6.48682 11.3276 6.77734 11.3276 7.14258V11.3428H7.24365C6.87842 11.3428 6.57129 11.6499 6.57129 12.0151C6.57129 12.3804 6.87842 12.6875 7.24365 12.6875H11.3276V16.8794C11.3276 17.2446 11.6348 17.5352 12 17.5352Z" fill="white"/>
</svg>
