<svg width="154" height="154" viewBox="0 0 154 154" fill="none" xmlns="http://www.w3.org/2000/svg">
<circle opacity="0.3" cx="77" cy="77" r="77" fill="#E7E6E8"/>
<g filter="url(#filter0_d)">
<rect x="37" y="60.3335" width="44.0169" height="75.5118" rx="2.27674" fill="white"/>
<rect x="37.1897" y="60.5232" width="43.6375" height="75.1323" rx="2.08701" stroke="black" stroke-width="0.379456"/>
</g>
<path d="M57.8698 82.2471L54.4547 81.8676L53.6958 78.4525L60.3363 71.812L63.7514 72.5709L64.3206 75.986L57.8698 82.2471Z" stroke="black" stroke-width="0.379456"/>
<path d="M54.4546 81.8677L63.7513 72.571" stroke="black" stroke-width="0.379456"/>
<path d="M57.8698 82.2471L54.4547 81.8676L53.6958 78.4525L60.3363 71.812L63.7514 72.5709L64.3206 75.986L57.8698 82.2471Z" stroke="black" stroke-width="0.379456"/>
<path d="M54.4546 81.8677L63.7513 72.571" stroke="black" stroke-width="0.379456"/>
<path d="M64.2258 78.168L63.8464 81.5831L60.4313 82.342L53.7908 75.7016L54.5497 72.2865L57.9648 71.7173L64.2258 78.168Z" stroke="black" stroke-width="0.379456"/>
<path d="M63.8464 81.5833L54.5498 72.2866" stroke="black" stroke-width="0.379456"/>
<path d="M45.9175 100.935H72.4794" stroke="black" stroke-width="0.379456"/>
<path d="M45.9175 106.248H72.4794" stroke="black" stroke-width="0.379456"/>
<rect x="58.4392" y="114.027" width="28.4592" height="7.20967" rx="3.60483" fill="#9E58EE" stroke="black" stroke-width="0.379456"/>
<path d="M82.6689 117.576C82.743 117.502 82.743 117.382 82.6689 117.307L81.4615 116.1C81.3874 116.026 81.2673 116.026 81.1932 116.1C81.1191 116.174 81.1191 116.294 81.1932 116.368L82.2665 117.442L81.1932 118.515C81.1191 118.589 81.1191 118.709 81.1932 118.783C81.2673 118.857 81.3874 118.857 81.4615 118.783L82.6689 117.576ZM62.2339 117.631H82.5348V117.252H62.2339V117.631Z" fill="black"/>
<g filter="url(#filter1_d)">
<rect x="69.0312" y="15.5576" width="44.0169" height="75.5118" rx="2.27674" fill="white"/>
<rect x="69.221" y="15.7473" width="43.6375" height="75.1323" rx="2.08701" stroke="black" stroke-width="0.379456"/>
</g>
<rect x="89.4812" y="60.5232" width="28.4592" height="7.20967" rx="3.60483" fill="#9E58EE" stroke="black" stroke-width="0.379456"/>
<path d="M113.711 64.0724C113.785 63.9983 113.785 63.8782 113.711 63.8041L112.504 62.5967C112.429 62.5226 112.309 62.5226 112.235 62.5967C112.161 62.6707 112.161 62.7909 112.235 62.865L113.308 63.9382L112.235 65.0115C112.161 65.0856 112.161 65.2057 112.235 65.2798C112.309 65.3539 112.429 65.3539 112.504 65.2798L113.711 64.0724ZM93.2759 64.128H113.577V63.7485H93.2759V64.128Z" fill="black"/>
<rect x="58.5965" y="42.4099" width="47.432" height="8.34804" fill="white" stroke="black" stroke-width="0.379456"/>
<path d="M64.8572 44.3074V48.8608" stroke="black" stroke-width="0.379456"/>
<path d="M66.8286 45.4458L62.8852 47.7225" stroke="black" stroke-width="0.379456"/>
<path d="M66.8286 47.7224L62.8852 45.4457" stroke="black" stroke-width="0.379456"/>
<path d="M73.6589 44.3074V48.8608" stroke="black" stroke-width="0.379456"/>
<path d="M75.6306 45.4458L71.6872 47.7225" stroke="black" stroke-width="0.379456"/>
<path d="M75.6306 47.7224L71.6872 45.4457" stroke="black" stroke-width="0.379456"/>
<path d="M82.4609 44.3074V48.8608" stroke="black" stroke-width="0.379456"/>
<path d="M84.4324 45.4458L80.4889 47.7225" stroke="black" stroke-width="0.379456"/>
<path d="M84.4324 47.7224L80.4889 45.4457" stroke="black" stroke-width="0.379456"/>
<path d="M91.2627 44.3074V48.8608" stroke="black" stroke-width="0.379456"/>
<path d="M93.2341 45.4458L89.2907 47.7225" stroke="black" stroke-width="0.379456"/>
<path d="M93.2341 47.7224L89.2907 45.4457" stroke="black" stroke-width="0.379456"/>
<path d="M100.065 44.3074V48.8608" stroke="black" stroke-width="0.379456"/>
<path d="M102.036 45.4458L98.093 47.7225" stroke="black" stroke-width="0.379456"/>
<path d="M102.036 47.7224L98.093 45.4457" stroke="black" stroke-width="0.379456"/>
<rect x="58.5965" y="28.6241" width="47.432" height="8.34804" fill="white" stroke="black" stroke-width="0.379456"/>
<path d="M64.8572 30.5212V35.0747" stroke="black" stroke-width="0.379456"/>
<path d="M66.8286 31.6597L62.8852 33.9364" stroke="black" stroke-width="0.379456"/>
<path d="M66.8286 33.9363L62.8852 31.6595" stroke="black" stroke-width="0.379456"/>
<path d="M73.6589 30.5212V35.0747" stroke="black" stroke-width="0.379456"/>
<path d="M75.6306 31.6597L71.6872 33.9364" stroke="black" stroke-width="0.379456"/>
<path d="M75.6306 33.9363L71.6872 31.6595" stroke="black" stroke-width="0.379456"/>
<path d="M82.4609 30.5212V35.0747" stroke="black" stroke-width="0.379456"/>
<path d="M84.4324 31.6597L80.4889 33.9364" stroke="black" stroke-width="0.379456"/>
<path d="M84.4324 33.9363L80.4889 31.6595" stroke="black" stroke-width="0.379456"/>
<path d="M91.2627 30.5212V35.0747" stroke="black" stroke-width="0.379456"/>
<path d="M93.2341 31.6597L89.2907 33.9364" stroke="black" stroke-width="0.379456"/>
<path d="M93.2341 33.9363L89.2907 31.6595" stroke="black" stroke-width="0.379456"/>
<path d="M100.065 30.5212V35.0747" stroke="black" stroke-width="0.379456"/>
<path d="M102.036 31.6597L98.093 33.9364" stroke="black" stroke-width="0.379456"/>
<path d="M102.036 33.9363L98.093 31.6595" stroke="black" stroke-width="0.379456"/>
<path d="M27.4272 81.2036L24.3354 82.5607C19.8259 84.5402 17.7748 89.8005 19.7542 94.3101C21.7336 98.8196 26.994 100.871 31.5035 98.8912L55.1275 88.5217" stroke="black" stroke-width="0.379456"/>
<path d="M136.209 87.6167L139.301 86.2596C143.81 84.2801 145.861 79.0198 143.882 74.5102C141.903 70.0007 136.642 67.9496 132.133 69.9291L108.509 80.2987" stroke="black" stroke-width="0.379456"/>
<path fill-rule="evenodd" clip-rule="evenodd" d="M131.655 88.3373L135.45 88.3373L135.45 88.7168L131.655 88.7168L131.655 88.3373Z" fill="black"/>
<path fill-rule="evenodd" clip-rule="evenodd" d="M133.742 86.6298L133.742 90.4243L133.363 90.4243L133.363 86.6298L133.742 86.6298Z" fill="black"/>
<defs>
<filter id="filter0_d" x="33.2054" y="57.2978" width="51.606" height="83.1009" filterUnits="userSpaceOnUse" color-interpolation-filters="sRGB">
<feFlood flood-opacity="0" result="BackgroundImageFix"/>
<feColorMatrix in="SourceAlpha" type="matrix" values="0 0 0 0 0 0 0 0 0 0 0 0 0 0 0 0 0 0 127 0"/>
<feOffset dy="0.758912"/>
<feGaussianBlur stdDeviation="1.89728"/>
<feColorMatrix type="matrix" values="0 0 0 0 0 0 0 0 0 0 0 0 0 0 0 0 0 0 0.1 0"/>
<feBlend mode="normal" in2="BackgroundImageFix" result="effect1_dropShadow"/>
<feBlend mode="normal" in="SourceGraphic" in2="effect1_dropShadow" result="shape"/>
</filter>
<filter id="filter1_d" x="65.2367" y="12.522" width="51.606" height="83.1009" filterUnits="userSpaceOnUse" color-interpolation-filters="sRGB">
<feFlood flood-opacity="0" result="BackgroundImageFix"/>
<feColorMatrix in="SourceAlpha" type="matrix" values="0 0 0 0 0 0 0 0 0 0 0 0 0 0 0 0 0 0 127 0"/>
<feOffset dy="0.758912"/>
<feGaussianBlur stdDeviation="1.89728"/>
<feColorMatrix type="matrix" values="0 0 0 0 0 0 0 0 0 0 0 0 0 0 0 0 0 0 0.1 0"/>
<feBlend mode="normal" in2="BackgroundImageFix" result="effect1_dropShadow"/>
<feBlend mode="normal" in="SourceGraphic" in2="effect1_dropShadow" result="shape"/>
</filter>
</defs>
</svg>
