<svg width="24" height="24" viewBox="0 0 24 24" fill="none" xmlns="http://www.w3.org/2000/svg">
<path d="M9.43506 17.8008C9.62598 17.8008 9.79199 17.7261 9.9165 17.6016L15.0464 12.4966C15.1792 12.3638 15.2539 12.1895 15.2539 12.0068C15.2539 11.8242 15.1792 11.6416 15.0464 11.5171L9.9165 6.42041C9.79199 6.2876 9.62598 6.21289 9.43506 6.21289C9.04492 6.21289 8.74609 6.51172 8.74609 6.90186C8.74609 7.08447 8.8291 7.25879 8.94531 7.3916L13.5854 12.0068L8.94531 16.6221C8.8291 16.7549 8.74609 16.9209 8.74609 17.1118C8.74609 17.502 9.04492 17.8008 9.43506 17.8008Z" fill="#666666"/>
</svg>
