<svg width="32" height="32" viewBox="0 0 32 32" fill="none" xmlns="http://www.w3.org/2000/svg">
<path d="M7.0419 9.93581L15.1955 6.35346C15.7082 6.12821 16.2918 6.12821 16.8045 6.35346L24.9581 9.93581C25.3566 10.1109 25.3566 10.6763 24.9581 10.8513L16.8045 14.4337C16.2918 14.6589 15.7082 14.6589 15.1955 14.4337L7.0419 10.8513C6.6434 10.6763 6.6434 10.1109 7.0419 9.93581Z" fill="black"/>
<path fill-rule="evenodd" clip-rule="evenodd" d="M11 19.5641L7.04192 21.3031C6.64342 21.4782 6.64342 22.0435 7.04192 22.2186L15.1955 25.801C15.7082 26.0262 16.2918 26.0262 16.8045 25.801L24.9581 22.2186C25.3566 22.0435 25.3566 21.4782 24.9581 21.3031L21.0001 19.5641L16.8045 21.4074C16.2918 21.6327 15.7082 21.6327 15.1955 21.4074L11 19.5641Z" fill="black"/>
<path fill-rule="evenodd" clip-rule="evenodd" d="M11 13.9575L7.04192 15.6965C6.64342 15.8716 6.64342 16.437 7.04192 16.612L15.1955 20.1944C15.7082 20.4196 16.2918 20.4196 16.8045 20.1944L24.9581 16.612C25.3566 16.437 25.3566 15.8716 24.9581 15.6965L21.0001 13.9575L16.8045 15.8009C16.2918 16.0261 15.7082 16.0261 15.1955 15.8009L11 13.9575Z" fill="black"/>
</svg>
