<svg width="32" height="32" viewBox="0 0 32 32" fill="none" xmlns="http://www.w3.org/2000/svg">
<path d="M9 25C9 25.5522 9.44775 26 10 26H13C13.5522 26 14 25.5522 14 25V19.5C14 19.2239 14.2239 19 14.5 19H17.5C17.7761 19 18 19.2239 18 19.5V25C18 25.5522 18.4478 26 19 26H22C22.5522 26 23 25.5522 23 25V16H9V25Z" fill="black"/>
<path d="M5.42131 15.6971L15.3243 6.61941C15.7066 6.26895 16.2934 6.26895 16.6757 6.61941L26.5787 15.6971C27.0829 16.1593 26.7559 17 26.0719 17H5.9281C5.24409 17 4.91709 16.1593 5.42131 15.6971Z" fill="black"/>
</svg>
