<svg width="32" height="32" viewBox="0 0 32 32" fill="none" xmlns="http://www.w3.org/2000/svg">
<ellipse cx="15.8638" cy="10.9795" rx="3.23059" ry="3.40062" fill="black"/>
<ellipse cx="8.73137" cy="13.0702" rx="2.55046" ry="2.72049" fill="black"/>
<ellipse cx="23.2688" cy="13.0702" rx="2.55046" ry="2.72049" fill="black"/>
<path d="M22.6651 22.5921C22.6651 24.6324 19.6201 24.7898 15.8639 24.7898C12.1076 24.7898 9.06262 24.6324 9.06262 22.5921C9.06262 18.8358 10.7474 16.4709 15.8639 16.4709C20.9803 16.4709 22.6651 18.8358 22.6651 22.5921Z" fill="black"/>
<path d="M7.10678 17.1514C8.12398 17.1463 8.894 17.8728 8.70167 18.1489C8.65615 18.2142 8.61196 18.2806 8.56908 18.3479C7.74848 19.636 7.40776 21.283 7.40776 23.2114C7.40776 23.2512 7.40742 23.3083 7.34898 23.3359C7.29053 23.3635 6.89722 23.3635 6.89722 23.3635C4.13807 23.3159 4 22.3091 4 20.6346C4 18.9187 5.39087 17.1514 7.10678 17.1514Z" fill="black"/>
<path d="M24.8932 17.1514C23.876 17.1463 23.106 17.8728 23.2983 18.1489C23.3439 18.2142 23.388 18.2806 23.4309 18.3479C24.2515 19.636 24.5922 21.283 24.5922 23.2114C24.5922 23.2512 24.5926 23.3083 24.651 23.3359C24.7095 23.3635 25.1028 23.3635 25.1028 23.3635C27.8619 23.3159 28 22.3091 28 20.6346C28 18.9187 26.6091 17.1514 24.8932 17.1514Z" fill="black"/>
</svg>
