<svg width="32" height="33" viewBox="0 0 32 33" fill="none" xmlns="http://www.w3.org/2000/svg">
<path d="M10.2852 12.0078H12.2891C12.418 10.332 13.543 9.28906 15.3125 9.28906C17.0586 9.28906 18.1836 10.3555 18.1836 11.8086C18.1836 13.0625 17.6562 13.8008 16.2969 14.6328C14.6914 15.5938 13.9414 16.6484 13.9531 18.1953V19.2734H16.0039V18.5117C16.0039 17.2812 16.4258 16.625 17.9141 15.7461C19.4141 14.8438 20.3633 13.543 20.3633 11.7031C20.3633 9.28906 18.3477 7.46094 15.3945 7.46094C12.1016 7.46094 10.4141 9.47656 10.2852 12.0078ZM15.1367 24.7109C16.0859 24.7109 16.7539 24.0312 16.7539 23.082C16.7539 22.1211 16.0859 21.4414 15.1367 21.4414C14.1875 21.4414 13.5078 22.1211 13.5078 23.082C13.5078 24.0312 14.1875 24.7109 15.1367 24.7109Z" fill="black"/>
</svg>
