<svg width="22" height="22" viewBox="0 0 22 22" fill="none" xmlns="http://www.w3.org/2000/svg">
<circle cx="11" cy="11" r="11" fill="black" fill-opacity="0.7"/>
<path d="M10.7071 5.29266C10.3166 4.90213 9.68344 4.90212 9.29291 5.29264C8.90237 5.68315 8.90236 6.31632 9.29288 6.70685L10.7071 5.29266ZM15 10.9999L15.7071 11.707C16.0976 11.3165 16.0976 10.6834 15.7071 10.2928L15 10.9999ZM9.29289 15.2928C8.90237 15.6833 8.90237 16.3165 9.29289 16.707C9.68342 17.0976 10.3166 17.0976 10.7071 16.707L9.29289 15.2928ZM9.29288 6.70685L14.2929 11.707L15.7071 10.2928L10.7071 5.29266L9.29288 6.70685ZM14.2929 10.2928L9.29289 15.2928L10.7071 16.707L15.7071 11.707L14.2929 10.2928Z" fill="white"/>
</svg>
