<svg width="16" height="16" viewBox="0 0 16 16" fill="none" xmlns="http://www.w3.org/2000/svg">
<path d="M6.71338 14.8135C7.58496 15.6934 8.41504 15.6851 9.28662 14.8135L10.2412 13.8589C10.3325 13.7676 10.4321 13.7344 10.5566 13.7344H11.9014C13.1299 13.7344 13.7275 13.1533 13.7275 11.9082V10.5635C13.7275 10.439 13.7607 10.3477 13.8521 10.248L14.7983 9.29346C15.6782 8.42188 15.6699 7.5918 14.7983 6.72021L13.8521 5.76562C13.7607 5.66602 13.7275 5.57471 13.7275 5.4502V4.10547C13.7275 2.86865 13.1382 2.2793 11.9014 2.2793H10.5566C10.4321 2.2793 10.3325 2.24609 10.2412 2.15479L9.28662 1.2002C8.40674 0.320312 7.58496 0.328613 6.71338 1.2002L5.75049 2.15479C5.65918 2.24609 5.56787 2.2793 5.44336 2.2793H4.09033C2.85352 2.2793 2.27246 2.86035 2.27246 4.10547V5.4502C2.27246 5.57471 2.23926 5.66602 2.14795 5.76562L1.19336 6.72021C0.313477 7.5918 0.321777 8.42188 1.19336 9.29346L2.14795 10.248C2.23926 10.3477 2.27246 10.439 2.27246 10.5635V11.9082C2.27246 13.145 2.85352 13.7344 4.09033 13.7344H5.44336C5.56787 13.7344 5.65918 13.7676 5.75049 13.8589L6.71338 14.8135ZM6.9541 11.2856C6.73828 11.2856 6.58887 11.2026 6.48096 11.0864L4.33936 8.729C4.23975 8.62939 4.18994 8.47168 4.18994 8.32227C4.18994 7.97363 4.44727 7.71631 4.8291 7.71631C5.02832 7.71631 5.16943 7.77441 5.31055 7.92383L6.9292 9.7002L10.1167 5.19287C10.2827 4.97705 10.4238 4.89404 10.6812 4.89404C11.0381 4.89404 11.2954 5.15967 11.2954 5.5C11.2954 5.63281 11.2456 5.77393 11.1709 5.89844L7.46045 11.0532C7.35254 11.1943 7.17822 11.2856 6.9541 11.2856Z" fill="#7610EB"/>
</svg>
