<svg width="24" height="24" viewBox="0 0 24 24" fill="none" xmlns="http://www.w3.org/2000/svg">
<rect width="24" height="24" fill="white"/>
<path d="M8.42426 4.57574C8.18995 4.34142 7.81005 4.34142 7.57574 4.57574L3.75736 8.39411C3.52304 8.62843 3.52304 9.00833 3.75736 9.24264C3.99167 9.47696 4.37157 9.47696 4.60589 9.24264L8 5.84853L11.3941 9.24264C11.6284 9.47696 12.0083 9.47696 12.2426 9.24264C12.477 9.00833 12.477 8.62843 12.2426 8.39411L8.42426 4.57574ZM7.4 19C7.4 19.3314 7.66863 19.6 8 19.6C8.33137 19.6 8.6 19.3314 8.6 19H7.4ZM7.4 5V19H8.6V5H7.4Z" fill="#C4C4C4" fill-opacity="0.6"/>
<path d="M15.5757 19.4243C15.8101 19.6586 16.1899 19.6586 16.4243 19.4243L20.2426 15.6059C20.477 15.3716 20.477 14.9917 20.2426 14.7574C20.0083 14.523 19.6284 14.523 19.3941 14.7574L16 18.1515L12.6059 14.7574C12.3716 14.523 11.9917 14.523 11.7574 14.7574C11.523 14.9917 11.523 15.3716 11.7574 15.6059L15.5757 19.4243ZM16.6 5C16.6 4.66863 16.3314 4.4 16 4.4C15.6686 4.4 15.4 4.66863 15.4 5H16.6ZM16.6 19V5H15.4V19H16.6Z" fill="#C4C4C4" fill-opacity="0.6"/>
</svg>
