<svg width="32" height="32" viewBox="0 0 32 32" fill="none" xmlns="http://www.w3.org/2000/svg">
<rect width="32" height="32" rx="9.6" fill="black"/>
<rect x="5.33301" y="5.33325" width="21.3333" height="21.3333" rx="10.6667" fill="#1ED760"/>
<path d="M20.9023 20.7157C20.7113 21.034 20.3039 21.1231 19.9856 20.9321C17.4775 19.4043 14.3327 19.0606 10.6151 19.9009C10.2586 19.9773 9.90211 19.7608 9.82572 19.4043C9.74933 19.0478 9.96577 18.6914 10.3223 18.615C14.3837 17.6856 17.8721 18.0802 20.6731 19.799C20.9914 19.99 21.0933 20.3974 20.9023 20.7157ZM22.2009 17.8129C21.959 18.2076 21.4497 18.3221 21.0551 18.093C18.1904 16.3233 13.8235 15.814 10.4368 16.8453C9.99123 16.9726 9.53289 16.7307 9.40558 16.2978C9.27826 15.8522 9.52016 15.3938 9.96577 15.2665C13.8362 14.0952 18.6488 14.6554 21.9463 16.6797C22.3155 16.9089 22.4428 17.4182 22.2009 17.8129ZM22.3155 14.7827C18.8779 12.7457 13.2123 12.5547 9.92757 13.5478C9.40558 13.7133 8.84538 13.4204 8.67987 12.8857C8.51436 12.3637 8.81992 11.8035 9.34192 11.638C13.1105 10.4922 19.3745 10.7213 23.3213 13.064C23.7924 13.344 23.9452 13.9552 23.6651 14.4262C23.3977 14.91 22.7866 15.0756 22.3155 14.7827Z" fill="black"/>
</svg>
