<svg width="48" height="48" viewBox="0 0 48 48" fill="none" xmlns="http://www.w3.org/2000/svg">
<rect width="48" height="48" rx="14.4" fill="black"/>
<rect x="8" y="8" width="32" height="32" rx="16" fill="#1ED760"/>
<path d="M31.3539 31.0736C31.0675 31.551 30.4563 31.6847 29.9789 31.3983C26.2167 29.1066 21.4996 28.5909 15.9231 29.8514C15.3884 29.9659 14.8537 29.6413 14.7391 29.1066C14.6245 28.5718 14.9491 28.0371 15.4839 27.9225C21.576 26.5284 26.8087 27.1204 31.0102 29.6986C31.4876 29.985 31.6404 30.5962 31.3539 31.0736ZM33.3019 26.7194C32.939 27.3114 32.1751 27.4833 31.5831 27.1395C27.2861 24.485 20.7357 23.7211 15.6558 25.268C14.9873 25.4589 14.2998 25.0961 14.1089 24.4468C13.9179 23.7783 14.2807 23.0908 14.9491 22.8999C20.7548 21.1429 27.9737 21.9832 32.9199 25.0197C33.4737 25.3634 33.6647 26.1273 33.3019 26.7194ZM33.4737 22.1742C28.3174 19.1185 19.819 18.8321 14.8918 20.3217C14.1089 20.57 13.2686 20.1307 13.0203 19.3286C12.772 18.5456 13.2304 17.7053 14.0134 17.4571C19.6662 15.7383 29.0622 16.082 34.9824 19.596C35.6891 20.0161 35.9182 20.9328 35.4981 21.6394C35.097 22.3651 34.1803 22.6134 33.4737 22.1742Z" fill="black"/>
</svg>
