<svg width="32" height="32" viewBox="0 0 32 32" fill="none" xmlns="http://www.w3.org/2000/svg">
<rect width="32" height="32" rx="9.6" fill="white"/>
<path d="M16.0557 15.6195C16.0687 15.3688 16.1586 15.164 16.2991 15.0042V14.7913H16.1124C15.7351 14.7913 15.4157 14.9359 15.23 15.2626H15.2192V14.8272H14.2515V17.4822H15.2194V16.4104C15.2194 15.9555 15.3525 15.6086 15.8896 15.6086C15.9481 15.609 16.0028 15.6124 16.0557 15.6195Z" fill="#2A73CC"/>
<path d="M23.3838 15.6098C23.4642 15.3751 23.5945 15.1661 23.764 14.9984V14.791H23.5777C23.2003 14.791 22.8813 14.9356 22.6946 15.2621H22.6841V14.8272H21.7158V17.4822H22.6841V16.4104C22.6841 15.9555 22.8176 15.6086 23.3547 15.6086L23.3838 15.6098Z" fill="#2A73CC"/>
<path d="M18.0211 15.5103C17.8718 15.4326 17.664 15.3809 17.4987 15.3809C17.3876 15.3809 17.1958 15.4271 17.1958 15.562C17.1958 15.7434 17.4987 15.769 17.6326 15.7955C18.0837 15.8832 18.4251 16.0904 18.4251 16.5815C18.4251 17.2799 17.7707 17.5707 17.1372 17.5707C16.7486 17.5707 16.3664 17.4619 16.0361 17.2651L16.3871 16.6074C16.5837 16.7425 16.9136 16.8766 17.153 16.8766C17.2754 16.8766 17.4562 16.8199 17.4562 16.6749C17.4562 16.4679 17.153 16.457 16.8494 16.3796C16.5466 16.302 16.2437 16.1574 16.2437 15.6811C16.2437 15.0289 16.8494 14.7395 17.4463 14.7395C17.7548 14.7395 18.0636 14.7859 18.3449 14.9102L18.0211 15.5103Z" fill="#2A73CC"/>
<path d="M26.6669 17.4823H25.699V17.187H25.6883C25.518 17.4509 25.1822 17.5698 24.8636 17.5698C24.0545 17.5698 23.4858 16.9124 23.4858 16.1516C23.4858 15.3915 24.0445 14.739 24.8528 14.739C25.1664 14.739 25.4967 14.8528 25.6988 15.0855V14.8273H26.6665L26.6669 17.4823ZM24.4859 16.1573C24.4859 16.4935 24.7151 16.7522 25.1082 16.7522C25.5016 16.7522 25.7298 16.4939 25.7298 16.1573C25.7298 15.8312 25.5016 15.557 25.1082 15.557C24.7151 15.5572 24.4859 15.8312 24.4859 16.1573Z" fill="#2A73CC"/>
<path d="M21.5629 16.3128H19.525C19.525 16.6955 19.733 16.9023 20.1318 16.9023C20.3392 16.9023 20.488 16.8353 20.5946 16.6591H21.5258C21.3715 17.2855 20.7596 17.5701 20.1374 17.5701C19.2337 17.5701 18.5581 17.0729 18.5581 16.1574C18.5581 15.2724 19.1797 14.7395 20.068 14.7395C21.0148 14.7395 21.5633 15.309 21.5633 16.2143L21.5629 16.3128ZM20.6638 15.769C20.6158 15.5154 20.3764 15.3499 20.116 15.3499C19.8338 15.3499 19.6007 15.4943 19.5412 15.769H20.6638Z" fill="#2A73CC"/>
<path d="M11.1727 16.1111C11.1717 16.0882 11.1701 16.0659 11.1684 16.0431C11.1684 16.0431 11.1684 16.0429 11.1684 16.0427C11.1684 16.0427 11.1684 16.0426 11.1684 16.0424C11.1466 15.796 11.0652 15.5655 10.9272 15.3573C10.8655 15.2645 10.795 15.1801 10.7162 15.1045C10.6011 14.9937 10.4677 14.902 10.3174 14.8295C10.0912 14.7215 9.84135 14.6669 9.57468 14.6669C9.54861 14.6669 9.52135 14.6673 9.49389 14.6683C9.30663 14.6768 9.1255 14.7124 8.95522 14.775C8.78357 14.837 8.63404 14.919 8.51177 15.0174C8.48688 15.0371 8.45982 15.0614 8.43078 15.0881L8.40984 15.1086L8.3812 15.139H8.3814H8.38159L8.36816 15.1523L8.36164 15.1594L8.32747 15.1953C8.30219 15.2238 8.27809 15.2522 8.25557 15.2801L8.25537 15.2797L8.25458 15.2789C8.20777 15.3358 8.16451 15.3946 8.13271 15.4476C8.11118 15.4816 8.09004 15.5165 8.06989 15.5515L7.79078 16.1158L7.79118 16.1162L7.77656 16.1449L7.74574 16.2073C7.68451 16.3311 7.61893 16.4546 7.54564 16.5565C7.38229 16.7357 7.19759 16.8234 6.96016 16.8234C6.94357 16.8234 6.92658 16.8226 6.9092 16.8216C6.76619 16.8159 6.64352 16.7821 6.53468 16.7177C6.52303 16.7108 6.51177 16.7037 6.5009 16.6964C6.41201 16.6373 6.34387 16.5615 6.2929 16.4668C6.23542 16.3596 6.20994 16.25 6.2135 16.1338C6.21369 16.1306 6.21389 16.1279 6.21389 16.1253C6.22159 15.9404 6.29211 15.7966 6.43414 15.6724C6.46871 15.6426 6.50485 15.6173 6.54258 15.5947C6.54792 15.5916 6.55325 15.5886 6.55858 15.5859C6.66406 15.5284 6.78416 15.4997 6.92184 15.4997L6.96471 15.5009C7.18337 15.5092 7.35206 15.5776 7.48658 15.7109L7.90851 14.9534C7.80757 14.8858 7.69359 14.8277 7.56797 14.7805C7.56322 14.7787 7.55829 14.7768 7.55335 14.7752C7.53834 14.7699 7.52352 14.7643 7.50811 14.7594C7.37458 14.7147 7.23453 14.6873 7.09034 14.6748C7.08678 14.6743 7.08283 14.6739 7.07927 14.6735C7.05715 14.6721 7.03463 14.6693 7.01251 14.6683C6.98841 14.6673 6.96411 14.6669 6.94041 14.6667H6.92678C6.6615 14.6677 6.41498 14.7221 6.18959 14.8297C5.93715 14.9514 5.73251 15.1286 5.5808 15.3569C5.4295 15.5853 5.34693 15.8387 5.33508 16.1107C5.33409 16.134 5.3335 16.1571 5.3335 16.1798C5.3333 16.5603 5.47197 16.8949 5.74772 17.1758C6.03552 17.4705 6.40984 17.6293 6.85922 17.6481C6.88806 17.6493 6.91651 17.6501 6.94495 17.6501C7.19918 17.6501 7.43443 17.6048 7.6454 17.5144C7.69814 17.4918 7.7493 17.4654 7.80164 17.4359C7.83009 17.4195 7.85695 17.4022 7.88362 17.3836L7.90337 17.3704L7.93656 17.3476C7.97646 17.319 8.01379 17.288 8.05014 17.255L8.06278 17.2429C8.08411 17.2226 8.10545 17.2021 8.12559 17.1809L8.20125 17.0954L8.23009 17.0592L8.24352 17.0395L8.25695 17.0201C8.36935 16.8313 8.73518 16.1441 8.73518 16.1441V16.1427L8.7569 16.1008L8.77508 16.068C8.829 15.9699 8.86792 15.9001 8.91947 15.8268L8.92085 15.8247C9.04115 15.6503 9.24797 15.526 9.49172 15.5051C9.90061 15.4699 10.2589 15.7386 10.2919 16.1052C10.3247 16.4718 10.0197 16.7975 9.61083 16.8329C9.52569 16.8402 9.44293 16.8345 9.3649 16.8173L9.36293 16.8181C9.06288 16.7556 8.87187 16.5368 8.77764 16.439L8.38416 17.1626C8.38416 17.1626 8.50643 17.2858 8.59019 17.3474C8.67414 17.4089 8.78258 17.4693 8.8691 17.5068C9.07908 17.5965 9.30742 17.6503 9.55967 17.6503C9.5889 17.6503 9.58298 17.6503 9.6134 17.6491C10.0624 17.6303 10.4626 17.4583 10.7512 17.1635C11.0246 16.8836 11.1729 16.564 11.1743 16.1858V16.1745C11.1741 16.1536 11.1735 16.1324 11.1727 16.1111Z" fill="#2A73CC"/>
<path d="M12.6777 17.5719C12.4736 17.5719 12.2885 17.5482 12.1224 17.5008C11.9563 17.4534 11.8144 17.3786 11.6969 17.2758C11.579 17.1731 11.4881 17.0424 11.4241 16.8837C11.3601 16.7251 11.3281 16.5339 11.3281 16.3111V14.8267H12.2619V16.2993C12.2619 16.4662 12.3018 16.5871 12.3814 16.6625C12.4612 16.7382 12.5625 16.7759 12.6854 16.7759C12.811 16.7759 12.9129 16.7407 12.9915 16.6702C13.0698 16.5997 13.1093 16.4828 13.1093 16.3184V14.8267H14.043V16.2915C14.043 16.5223 14.0102 16.7184 13.9448 16.8798C13.8794 17.0414 13.7872 17.1733 13.6685 17.276C13.5492 17.3788 13.4056 17.4534 13.2367 17.501C13.0678 17.5482 12.8815 17.5719 12.6777 17.5719Z" fill="#2A73CC"/>
</svg>
