<svg width="48" height="48" viewBox="0 0 48 48" fill="none" xmlns="http://www.w3.org/2000/svg">
<rect width="48" height="48" rx="14.4" fill="white"/>
<path d="M24.0833 23.4294C24.1029 23.0534 24.2377 22.7461 24.4484 22.5064V22.187H24.1684C23.6024 22.187 23.1233 22.4039 22.8448 22.894H22.8285V22.2409H21.377V26.2235H22.8288V24.6158C22.8288 23.9334 23.0285 23.4131 23.8341 23.4131C23.9218 23.4137 24.0039 23.4187 24.0833 23.4294Z" fill="#2A73CC"/>
<path d="M35.0757 23.4147C35.1962 23.0627 35.3918 22.7492 35.646 22.4976V22.1865H35.3666C34.8004 22.1865 34.3219 22.4034 34.0419 22.8932H34.0262V22.2407H32.5737V26.2233H34.0262V24.6156C34.0262 23.9332 34.2265 23.4129 35.0321 23.4129L35.0757 23.4147Z" fill="#2A73CC"/>
<path d="M27.0317 23.2655C26.8077 23.1491 26.496 23.0714 26.248 23.0714C26.0815 23.0714 25.7938 23.1408 25.7938 23.3432C25.7938 23.6152 26.248 23.6537 26.4489 23.6934C27.1256 23.8249 27.6376 24.1357 27.6376 24.8723C27.6376 25.92 26.656 26.3562 25.7058 26.3562C25.1229 26.3562 24.5496 26.1929 24.0542 25.8978L24.5807 24.9112C24.8755 25.1138 25.3703 25.315 25.7295 25.315C25.9132 25.315 26.1843 25.23 26.1843 25.0125C26.1843 24.702 25.7295 24.6857 25.2741 24.5695C24.8198 24.4531 24.3656 24.2362 24.3656 23.5218C24.3656 22.5434 25.2741 22.1094 26.1695 22.1094C26.6323 22.1094 27.0954 22.179 27.5173 22.3654L27.0317 23.2655Z" fill="#2A73CC"/>
<path d="M40.0001 26.2234H38.5482V25.7804H38.5322C38.2768 26.1762 37.7731 26.3546 37.2952 26.3546C36.0816 26.3546 35.2285 25.3685 35.2285 24.2272C35.2285 23.0871 36.0664 22.1084 37.2789 22.1084C37.7494 22.1084 38.2448 22.2791 38.5479 22.6281V22.2408H39.9995L40.0001 26.2234ZM36.7287 24.2358C36.7287 24.7401 37.0724 25.1283 37.662 25.1283C38.2522 25.1283 38.5944 24.7407 38.5944 24.2358C38.5944 23.7466 38.2522 23.3354 37.662 23.3354C37.0724 23.3357 36.7287 23.7466 36.7287 24.2358Z" fill="#2A73CC"/>
<path d="M32.3447 24.4694H29.2878C29.2878 25.0433 29.5998 25.3535 30.198 25.3535C30.5091 25.3535 30.7322 25.2531 30.8922 24.9888H32.289C32.0576 25.9283 31.1396 26.3553 30.2063 26.3553C28.8507 26.3553 27.8374 25.6095 27.8374 24.2362C27.8374 22.9088 28.7698 22.1094 30.1023 22.1094C31.5224 22.1094 32.3453 22.9636 32.3453 24.3215L32.3447 24.4694ZM30.9959 23.6537C30.9239 23.2732 30.5648 23.0249 30.1743 23.0249C29.7509 23.0249 29.4013 23.2415 29.3121 23.6537H30.9959Z" fill="#2A73CC"/>
<path d="M16.7588 24.1665C16.7573 24.1321 16.755 24.0987 16.7523 24.0646C16.7523 24.0646 16.7523 24.0643 16.7523 24.064C16.7523 24.064 16.7523 24.0637 16.7523 24.0634C16.7197 23.6939 16.5976 23.3481 16.3905 23.0359C16.2981 22.8966 16.1923 22.7701 16.0741 22.6566C15.9013 22.4904 15.7013 22.3529 15.4759 22.2441C15.1366 22.0821 14.7618 22.0003 14.3618 22.0003C14.3227 22.0003 14.2818 22.0009 14.2406 22.0024C13.9597 22.0151 13.688 22.0684 13.4326 22.1624C13.1751 22.2554 12.9508 22.3784 12.7674 22.5259C12.7301 22.5556 12.6895 22.592 12.6459 22.632L12.6145 22.6628L12.5716 22.7084H12.5719H12.5721L12.552 22.7283L12.5422 22.739L12.491 22.7929C12.453 22.8356 12.4169 22.8782 12.3831 22.92L12.3828 22.9194L12.3816 22.9182C12.3114 23.0036 12.2465 23.0919 12.1988 23.1713C12.1665 23.2222 12.1348 23.2747 12.1046 23.3271L11.6859 24.1736L11.6865 24.1742L11.6646 24.2172L11.6184 24.3108C11.5265 24.4966 11.4281 24.6818 11.3182 24.8347C11.0732 25.1034 10.7961 25.235 10.44 25.235C10.4151 25.235 10.3896 25.2338 10.3636 25.2323C10.149 25.2237 9.96504 25.173 9.80178 25.0764C9.7843 25.0661 9.76741 25.0554 9.75111 25.0444C9.61778 24.9559 9.51556 24.8421 9.43911 24.7001C9.35289 24.5393 9.31467 24.3748 9.32 24.2006C9.3203 24.1959 9.32059 24.1917 9.32059 24.1879C9.33215 23.9105 9.43793 23.6948 9.65096 23.5084C9.70282 23.4637 9.75704 23.4258 9.81363 23.392C9.82163 23.3873 9.82963 23.3828 9.83763 23.3787C9.99585 23.2924 10.176 23.2495 10.3825 23.2495L10.4468 23.2513C10.7748 23.2637 11.0279 23.3662 11.2296 23.5662L11.8625 22.4299C11.7111 22.3286 11.5401 22.2415 11.3517 22.1707C11.3446 22.168 11.3372 22.165 11.3298 22.1627C11.3073 22.1547 11.285 22.1464 11.2619 22.139C11.0616 22.072 10.8516 22.0308 10.6353 22.0121C10.6299 22.0113 10.624 22.0107 10.6187 22.0101C10.5855 22.008 10.5517 22.0039 10.5185 22.0024C10.4824 22.0009 10.4459 22.0003 10.4104 22H10.3899C9.992 22.0015 9.62222 22.083 9.28415 22.2444C8.90548 22.427 8.59852 22.6927 8.37096 23.0353C8.144 23.3778 8.02015 23.7579 8.00237 24.1659C8.00089 24.2009 8 24.2356 8 24.2696C7.9997 24.8403 8.2077 25.3422 8.62133 25.7636C9.05304 26.2056 9.61452 26.4439 10.2886 26.472C10.3319 26.4738 10.3745 26.475 10.4172 26.475C10.7985 26.475 11.1514 26.4071 11.4679 26.2714C11.547 26.2376 11.6237 26.1979 11.7022 26.1538C11.7449 26.1292 11.7852 26.1031 11.8252 26.0753L11.8548 26.0554L11.9046 26.0213C11.9644 25.9784 12.0204 25.9319 12.075 25.8824L12.0939 25.8643C12.1259 25.8338 12.1579 25.803 12.1881 25.7713L12.3016 25.643L12.3449 25.5887L12.365 25.5591L12.3852 25.5301C12.5538 25.2468 13.1025 24.216 13.1025 24.216V24.2139L13.1351 24.1511L13.1624 24.1019C13.2433 23.9547 13.3016 23.8501 13.379 23.7401L13.381 23.7369C13.5615 23.4753 13.8717 23.2889 14.2373 23.2575C14.8507 23.2047 15.3881 23.6077 15.4376 24.1576C15.4868 24.7076 15.0293 25.1961 14.416 25.2492C14.2883 25.2601 14.1641 25.2516 14.0471 25.2258L14.0441 25.227C13.5941 25.1333 13.3076 24.805 13.1662 24.6584L12.576 25.7437C12.576 25.7437 12.7594 25.9286 12.885 26.021C13.011 26.1132 13.1736 26.2039 13.3034 26.2601C13.6184 26.3947 13.9609 26.4753 14.3393 26.4753C14.3831 26.4753 14.3742 26.4753 14.4199 26.4735C15.0933 26.4453 15.6936 26.1873 16.1265 25.7452C16.5366 25.3253 16.7591 24.8459 16.7612 24.2785V24.2616C16.7609 24.2302 16.76 24.1985 16.7588 24.1665Z" fill="#2A73CC"/>
<path d="M19.0165 26.3579C18.7104 26.3579 18.4328 26.3224 18.1836 26.2512C17.9344 26.1801 17.7217 26.0678 17.5454 25.9138C17.3685 25.7597 17.2322 25.5635 17.1362 25.3256C17.0402 25.0877 16.9922 24.8009 16.9922 24.4667V22.24H18.3928V24.4489C18.3928 24.6992 18.4526 24.8806 18.572 24.9938C18.6917 25.1072 18.8437 25.1638 19.028 25.1638C19.2165 25.1638 19.3694 25.1111 19.4873 25.0053C19.6046 24.8995 19.6639 24.7241 19.6639 24.4776V22.24H21.0645V24.4373C21.0645 24.7834 21.0153 25.0776 20.9172 25.3197C20.8192 25.5621 20.6808 25.76 20.5027 25.9141C20.3237 26.0681 20.1083 26.1801 19.855 26.2515C19.6017 26.3224 19.3223 26.3579 19.0165 26.3579Z" fill="#2A73CC"/>
</svg>
