<svg width="32" height="32" viewBox="0 0 32 32" fill="none" xmlns="http://www.w3.org/2000/svg">
<g clip-path="url(#clip0)">
<path fill-rule="evenodd" clip-rule="evenodd" d="M0 10.0098V21.9893C0 22.1419 0 22.2945 0.00011313 22.4471C0.0252829 27.6867 4.248 31.9342 9.47809 31.9992C9.57888 31.9993 9.67966 31.9992 9.78044 31.9992C9.85689 31.9991 9.93333 31.9991 10.0098 31.9991H21.9893C22.175 31.9991 22.3607 31.9991 22.5463 31.9989C27.7402 31.9213 31.9346 27.719 31.9992 22.5219C31.9993 22.4208 31.9992 22.3198 31.9992 22.2187C31.9991 22.1422 31.9991 22.0658 31.9991 21.9893V10.0098H32C32 9.85754 32 9.7053 31.9999 9.55306C31.9747 4.28836 27.7116 0.0253157 22.4469 0.000112333C22.2947 0 22.1425 0 21.9902 0H10.0098C9.85754 0 9.7053 0 9.55306 0.000112333C4.28836 0.0253157 0.0253211 4.28835 0.000112355 9.55305C0 9.70526 0 9.85752 0 10.0098Z" fill="url(#paint0_linear)"/>
<path fill-rule="evenodd" clip-rule="evenodd" d="M22.5594 4.87524C22.4823 4.88233 21.7971 5.00377 21.7147 5.02061L12.2299 6.93441L12.2264 6.93529C11.9791 6.98759 11.7849 7.07535 11.6351 7.20122C11.4543 7.3528 11.3541 7.56732 11.316 7.81729C11.308 7.87047 11.2947 7.97862 11.2947 8.13818C11.2947 8.13818 11.2947 17.8286 11.2947 20.0092C11.2947 20.2867 11.2726 20.5561 11.0847 20.7857C10.8967 21.0153 10.6645 21.0844 10.3924 21.1394C10.1858 21.1811 9.97928 21.2227 9.77275 21.2644C8.98914 21.4222 8.47945 21.5294 8.01762 21.7085C7.57618 21.8796 7.24554 22.0976 6.98228 22.3742C6.46017 22.9211 6.24831 23.6631 6.321 24.358C6.38305 24.951 6.64987 25.5183 7.10815 25.9376C7.41751 26.2213 7.80399 26.4367 8.25962 26.528C8.73208 26.6228 9.23557 26.59 9.9713 26.4411C10.3631 26.3622 10.7301 26.239 11.0793 26.0325C11.425 25.8286 11.7211 25.5565 11.9525 25.2249C12.1847 24.8925 12.3345 24.5229 12.417 24.1302C12.5021 23.7251 12.5224 23.359 12.5224 22.9548V12.659C12.5224 12.1076 12.6784 11.9622 13.1234 11.8541C13.1234 11.8541 21.0073 10.2638 21.3752 10.192C21.8884 10.0936 22.1304 10.2399 22.1304 10.778V17.8064C22.1304 18.0848 22.1278 18.3667 21.9381 18.5971C21.7501 18.8267 21.5179 18.8959 21.2458 18.9508C21.0392 18.9925 20.8327 19.0341 20.6261 19.0758C19.8425 19.2336 19.3329 19.3408 18.871 19.5199C18.4296 19.691 18.0989 19.909 17.8357 20.1856C17.3136 20.7325 17.0831 21.4745 17.1558 22.1694C17.2178 22.7624 17.5033 23.3298 17.9615 23.749C18.2709 24.0327 18.6574 24.2419 19.113 24.3341C19.5855 24.4289 20.089 24.3952 20.8247 24.2472C21.2165 24.1683 21.5835 24.0504 21.9327 23.8439C22.2784 23.64 22.5745 23.3679 22.8059 23.0364C23.0381 22.7039 23.1879 22.3343 23.2704 21.9416C23.3555 21.5365 23.359 21.1704 23.359 20.7662V5.7138C23.3608 5.16776 23.0727 4.83092 22.5594 4.87524Z" fill="white"/>
</g>
<defs>
<linearGradient id="paint0_linear" x1="15.9557" y1="31.7877" x2="15.9557" y2="0.687741" gradientUnits="userSpaceOnUse">
<stop stop-color="#FA233B"/>
<stop offset="1" stop-color="#FB5C74"/>
</linearGradient>
<clipPath id="clip0">
<rect width="32" height="32" fill="white"/>
</clipPath>
</defs>
</svg>
