<svg width="48" height="48" viewBox="0 0 48 48" fill="none" xmlns="http://www.w3.org/2000/svg">
<g clip-path="url(#clip0)">
<path fill-rule="evenodd" clip-rule="evenodd" d="M0 15.0147V32.984C0 33.2129 0 33.4418 0.000169667 33.6707C0.0379245 41.53 6.37191 47.9011 14.217 47.9989C14.3681 47.9989 14.5193 47.9988 14.6705 47.9988C14.7852 47.9987 14.8999 47.9987 15.0147 47.9987H32.984C33.2625 47.9987 33.5411 47.9987 33.8196 47.9984C41.6104 47.8819 47.9017 41.5785 47.9989 33.7831C47.9989 33.6314 47.9988 33.4798 47.9988 33.3282C47.9987 33.2135 47.9987 33.0987 47.9987 32.984V15.0147H48C48 14.7863 48 14.558 47.9998 14.3296C47.962 6.43254 41.5675 0.0379735 33.6704 0.000168498C33.442 0 33.2137 0 32.9853 0H15.0147C14.7863 0 14.558 0 14.3296 0.0001685C6.43254 0.0379736 0.0379818 6.43253 0.000168572 14.3296C0 14.5579 0 14.7863 0 15.0147Z" fill="url(#paint0_linear)"/>
<path fill-rule="evenodd" clip-rule="evenodd" d="M33.8394 7.31298C33.7237 7.32362 32.6959 7.50578 32.5723 7.53104L18.3451 10.4017L18.3398 10.4031C17.9688 10.4815 17.6776 10.6131 17.4529 10.802C17.1817 11.0293 17.0314 11.3511 16.9743 11.7261C16.9623 11.8058 16.9424 11.968 16.9424 12.2074C16.9424 12.2074 16.9424 26.743 16.9424 30.0139C16.9424 30.4301 16.9091 30.8343 16.6272 31.1787C16.3453 31.5231 15.997 31.6268 15.5888 31.7092C15.279 31.7717 14.9692 31.8342 14.6594 31.8967C13.484 32.1334 12.7194 32.2943 12.0267 32.5628C11.3645 32.8195 10.8686 33.1466 10.4737 33.5614C9.6905 34.3818 9.37272 35.4947 9.48175 36.5371C9.57482 37.4267 9.97504 38.2776 10.6625 38.9066C11.1265 39.332 11.7062 39.6551 12.3897 39.7921C13.0984 39.9344 13.8536 39.8852 14.9572 39.6618C15.5449 39.5435 16.0954 39.3586 16.6192 39.0488C17.1378 38.743 17.5819 38.3348 17.9289 37.8375C18.2773 37.3389 18.502 36.7845 18.6257 36.1954C18.7533 35.5878 18.7839 35.0386 18.7839 34.4323V18.9885C18.7839 18.1615 19.0179 17.9435 19.6854 17.7812C19.6854 17.7812 31.5112 15.3959 32.063 15.2882C32.8329 15.1406 33.1959 15.36 33.1959 16.1671V26.7098C33.1959 27.1273 33.1919 27.5501 32.9073 27.8958C32.6254 28.2402 32.2771 28.3439 31.8689 28.4263C31.5591 28.4888 31.2493 28.5513 30.9395 28.6138C29.7641 28.8505 28.9995 29.0114 28.3068 29.28C27.6446 29.5366 27.1487 29.8637 26.7538 30.2785C25.9706 31.0989 25.6249 32.2118 25.7339 33.2543C25.827 34.1438 26.2551 34.9948 26.9426 35.6237C27.4066 36.0492 27.9863 36.363 28.6698 36.5012C29.3785 36.6435 30.1337 36.593 31.2373 36.3709C31.825 36.2526 32.3755 36.0758 32.8994 35.7659C33.4179 35.4601 33.862 35.0519 34.209 34.5546C34.5574 34.056 34.7821 33.5016 34.9058 32.9125C35.0334 32.3049 35.0387 31.7558 35.0387 31.1494V8.57082C35.0414 7.75176 34.6093 7.2465 33.8394 7.31298Z" fill="white"/>
</g>
<defs>
<linearGradient id="paint0_linear" x1="23.9335" y1="47.6815" x2="23.9335" y2="1.03161" gradientUnits="userSpaceOnUse">
<stop stop-color="#FA233B"/>
<stop offset="1" stop-color="#FB5C74"/>
</linearGradient>
<clipPath id="clip0">
<rect width="48" height="48" fill="white"/>
</clipPath>
</defs>
</svg>
