<svg width="32" height="33" viewBox="0 0 32 33" fill="none" xmlns="http://www.w3.org/2000/svg">
<path d="M7.50007 23.8859H24.6419C25.1053 23.5764 25.1332 22.356 24.6419 21.5006C23.9276 20.2567 22.4555 18.9627 22.4555 15.5314C22.4555 10.8985 19.3103 8.88586 16.071 8.88586C12.8317 8.88586 9.68655 10.8985 9.68655 15.5314C9.68655 18.9627 7.97748 20.2567 7.2631 21.5006C6.77179 22.356 7.03676 23.5764 7.50007 23.8859Z" fill="black"/>
<path d="M19.1372 24.6628C19.1372 26.3519 17.768 27.7211 16.0789 27.7211C14.3899 27.7211 13.0206 26.3519 13.0206 24.6628H19.1372Z" fill="black"/>
<path fill-rule="evenodd" clip-rule="evenodd" d="M14.5 9.45062V7.5C14.5 6.67157 15.1716 6 16 6C16.8284 6 17.5 6.67157 17.5 7.5V9.45062H14.5Z" fill="black"/>
</svg>
