<svg width="32" height="32" viewBox="0 0 32 32" fill="none" xmlns="http://www.w3.org/2000/svg">
<path d="M9 16.009L8.28641 15.3085C7.90422 15.6978 7.90457 16.3215 8.2872 16.7104L9 16.009ZM16.15 24.7014C16.5373 25.095 17.1705 25.1002 17.5642 24.7128C17.9578 24.3254 17.9629 23.6923 17.5756 23.2986L16.15 24.7014ZM17.5764 8.70056C17.9633 8.30646 17.9575 7.67332 17.5633 7.28641C17.1692 6.8995 16.5361 6.90533 16.1492 7.29944L17.5764 8.70056ZM8.2872 16.7104L16.15 24.7014L17.5756 23.2986L9.7128 15.3077L8.2872 16.7104ZM9.71359 16.7096L17.5764 8.70056L16.1492 7.29944L8.28641 15.3085L9.71359 16.7096Z" fill="black"/>
</svg>
