<svg width="32" height="33" viewBox="0 0 32 33" fill="none" xmlns="http://www.w3.org/2000/svg">
<path d="M21.75 8C21.75 7.58579 21.4142 7.25 21 7.25C20.5858 7.25 20.25 7.58579 20.25 8L21.75 8ZM20.4697 24.5303C20.7626 24.8232 21.2374 24.8232 21.5303 24.5303L26.3033 19.7574C26.5962 19.4645 26.5962 18.9896 26.3033 18.6967C26.0104 18.4038 25.5355 18.4038 25.2426 18.6967L21 22.9393L16.7574 18.6967C16.4645 18.4038 15.9896 18.4038 15.6967 18.6967C15.4038 18.9896 15.4038 19.4645 15.6967 19.7574L20.4697 24.5303ZM20.25 8L20.25 24L21.75 24L21.75 8L20.25 8Z" fill="black"/>
<path d="M10.25 24C10.25 24.4142 10.5858 24.75 11 24.75C11.4142 24.75 11.75 24.4142 11.75 24L10.25 24ZM11.5303 7.46967C11.2374 7.17678 10.7626 7.17678 10.4697 7.46967L5.6967 12.2426C5.40381 12.5355 5.40381 13.0104 5.6967 13.3033C5.98959 13.5962 6.46447 13.5962 6.75736 13.3033L11 9.06066L15.2426 13.3033C15.5355 13.5962 16.0104 13.5962 16.3033 13.3033C16.5962 13.0104 16.5962 12.5355 16.3033 12.2426L11.5303 7.46967ZM11.75 24L11.75 8L10.25 8L10.25 24L11.75 24Z" fill="black"/>
</svg>
