<svg width="24" height="24" viewBox="0 0 24 24" fill="none" xmlns="http://www.w3.org/2000/svg">
<path d="M4 5V4.335H3.335V5H4ZM20 5H20.665V4.335H20V5ZM4 20H3.335V21.7699L4.50046 20.4379L4 20ZM7.5 16V15.335H7.19824L6.99954 15.5621L7.5 16ZM20 16V16.665H20.665V16H20ZM4 5.665H20V4.335H4V5.665ZM4.665 11V5H3.335V11H4.665ZM4.665 16V11H3.335V16H4.665ZM4.665 20V16H3.335V20H4.665ZM6.99954 15.5621L3.49954 19.5621L4.50046 20.4379L8.00046 16.4379L6.99954 15.5621ZM20 15.335H7.5V16.665H20V15.335ZM19.335 5V16H20.665V5H19.335Z" fill="black"/>
<path d="M7 8L17 8" stroke="black" stroke-width="1.18"/>
<path d="M7 11L17 11" stroke="black" stroke-width="1.18"/>
</svg>
