<svg width="24" height="24" viewBox="0 0 24 24" fill="none" xmlns="http://www.w3.org/2000/svg">
<path d="M11.7467 12.6733L11.7692 12.0827L11.7579 12.0822H11.7467V12.6733ZM10.9769 12.6733V12.0822H10.104L10.428 12.8927L10.9769 12.6733ZM17.5733 15.0899L17.0842 15.4218L17.2601 15.681H17.5733V15.0899ZM19.1329 15.0899V15.681H19.724V15.0899H19.1329ZM19.1329 4H19.724V3.40889H19.1329V4ZM17.5733 4V3.40889H17.2601L17.0842 3.66809L17.5733 4ZM11.7374 6.41688V7.00799H11.7485L11.7595 7.00758L11.7374 6.41688ZM7.26952 12.5887L7.43773 12.0221L7.42203 12.0174L7.40611 12.0136L7.26952 12.5887ZM7.47982 12.6409L7.59641 12.0614H7.5964L7.47982 12.6409ZM8.34957 13.5042L7.80873 13.7427L7.80873 13.7427L8.34957 13.5042ZM8.387 13.5889L8.93513 13.3676L8.93141 13.3584L8.92737 13.3493L8.387 13.5889ZM10.9751 20.0001L10.427 20.2213L10.5763 20.5912H10.9751V20.0001ZM13.9053 20.0001V20.5912H14.7781L14.4542 19.7807L13.9053 20.0001ZM11.7467 12.0822H10.9769V13.2645H11.7467V12.0822ZM17.5733 15.0899C18.0625 14.758 18.0623 14.7577 18.062 14.7573C18.062 14.7572 18.0617 14.7569 18.0616 14.7566C18.0612 14.7562 18.0609 14.7557 18.0605 14.7551C18.0598 14.754 18.0589 14.7528 18.058 14.7514C18.0561 14.7487 18.0538 14.7455 18.0511 14.7417C18.0458 14.7341 18.0388 14.7244 18.0302 14.7128C18.013 14.6895 17.9892 14.6584 17.9584 14.6205C17.897 14.5447 17.8079 14.4418 17.6885 14.3206C17.4497 14.0781 17.0898 13.7621 16.5886 13.444C15.582 12.805 14.024 12.1685 11.7692 12.0827L11.7242 13.264C13.7673 13.3418 15.1226 13.9137 15.9549 14.442C16.3731 14.7075 16.664 14.9651 16.8461 15.15C16.9372 15.2426 17.0011 15.3169 17.0401 15.365C17.0595 15.389 17.0728 15.4065 17.08 15.4163C17.0837 15.4212 17.0858 15.4242 17.0865 15.4251C17.0868 15.4256 17.0868 15.4256 17.0864 15.425C17.0862 15.4248 17.086 15.4244 17.0856 15.4238C17.0854 15.4235 17.0852 15.4232 17.085 15.4229C17.0849 15.4227 17.0847 15.4225 17.0846 15.4224C17.0844 15.4221 17.0842 15.4218 17.5733 15.0899ZM19.1329 14.4988H17.5733V15.681H19.1329V14.4988ZM18.5417 4V15.0899H19.724V4H18.5417ZM17.5733 4.59111H19.1329V3.40889H17.5733V4.59111ZM11.7595 7.00758C14.0179 6.92321 15.5783 6.28672 16.5864 5.64729C17.0884 5.32887 17.4489 5.01262 17.688 4.76981C17.8076 4.64843 17.8968 4.54538 17.9583 4.46952C17.9891 4.43158 18.0129 4.40041 18.0302 4.37712C18.0388 4.36548 18.0458 4.35579 18.0511 4.34821C18.0538 4.34442 18.0561 4.34116 18.058 4.33844C18.0589 4.33707 18.0598 4.33585 18.0605 4.33476C18.0609 4.33422 18.0612 4.33371 18.0616 4.33323C18.0617 4.33299 18.062 4.33266 18.062 4.33254C18.0623 4.33222 18.0625 4.33191 17.5733 4C17.0842 3.66809 17.0844 3.66779 17.0846 3.66751C17.0847 3.66742 17.0849 3.66714 17.085 3.66697C17.0852 3.66664 17.0854 3.66633 17.0856 3.66606C17.086 3.66552 17.0862 3.66511 17.0864 3.66484C17.0868 3.66428 17.0868 3.66426 17.0865 3.66474C17.0858 3.66571 17.0837 3.66871 17.08 3.67363C17.0728 3.68346 17.0595 3.70092 17.04 3.72499C17.001 3.77313 16.937 3.84759 16.8457 3.94023C16.6633 4.12546 16.372 4.38327 15.9531 4.64897C15.1195 5.17778 13.7619 5.74973 11.7154 5.82618L11.7595 7.00758ZM7.99542 7.00799H11.7374V5.82577H7.99542V7.00799ZM5.4583 9.54511C5.4583 8.14354 6.59384 7.00799 7.99542 7.00799V5.82577C5.94092 5.82577 4.27608 7.49062 4.27608 9.54511H5.4583ZM7.40611 12.0136C6.2887 11.7482 5.4583 10.7433 5.4583 9.54511H4.27608C4.27608 11.3032 5.49466 12.7748 7.13293 13.1638L7.40611 12.0136ZM7.5964 12.0614C7.54145 12.0504 7.4886 12.0372 7.43773 12.0221L7.10131 13.1554C7.1862 13.1806 7.2735 13.2024 7.36323 13.2204L7.5964 12.0614ZM8.8904 13.2656C8.78692 13.031 8.66626 12.7418 8.46962 12.521C8.23579 12.2584 7.94265 12.1311 7.59641 12.0614L7.36323 13.2204C7.55358 13.2587 7.57832 13.2978 7.58672 13.3072C7.60223 13.3246 7.62721 13.3588 7.66588 13.4332C7.70598 13.5104 7.74798 13.605 7.80873 13.7427L8.8904 13.2656ZM8.92737 13.3493C8.91475 13.3208 8.90252 13.2931 8.8904 13.2656L7.80873 13.7427C7.82079 13.7701 7.83347 13.7988 7.84663 13.8285L8.92737 13.3493ZM11.5233 19.7788L8.93513 13.3676L7.83887 13.8101L10.427 20.2213L11.5233 19.7788ZM13.9053 19.4089H10.9751V20.5912H13.9053V19.4089ZM10.428 12.8927L13.3564 20.2194L14.4542 19.7807L11.5257 12.454L10.428 12.8927Z" fill="black"/>
</svg>
